%TF.GenerationSoftware,KiCad,Pcbnew,10.0.0*%
%TF.CreationDate,2026-03-22T13:59:09-07:00*%
%TF.ProjectId,battery_tester,62617474-6572-4795-9f74-65737465722e,rev?*%
%TF.SameCoordinates,Original*%
%TF.FileFunction,Soldermask,Top*%
%TF.FilePolarity,Negative*%
%FSLAX46Y46*%
G04 Gerber Fmt 4.6, Leading zero omitted, Abs format (unit mm)*
G04 Created by KiCad (PCBNEW 10.0.0) date 2026-03-22 13:59:09*
%MOMM*%
%LPD*%
G01*
G04 APERTURE LIST*
%ADD10R,2.000000X1.905000*%
%ADD11C,2.400000*%
%ADD12R,1.700000X1.700000*%
%ADD13C,1.700000*%
%ADD14C,1.600000*%
G04 APERTURE END LIST*
D10*
%TO.C,Q4*%
X169500000Y-58420000D03*
X169500000Y-60960000D03*
X169500000Y-63500000D03*
%TD*%
D11*
%TO.C,R7*%
X106000000Y-92960000D03*
X131400000Y-92960000D03*
%TD*%
%TO.C,R5*%
X30000000Y-92960000D03*
X55400000Y-92960000D03*
%TD*%
D12*
%TO.C,J1*%
X30000000Y-60960000D03*
D13*
X30000000Y-63500000D03*
%TD*%
D14*
%TO.C,R11*%
X36500000Y-60960000D03*
X46660000Y-60960000D03*
%TD*%
%TO.C,R10*%
X124500000Y-33000000D03*
X124500000Y-43160000D03*
%TD*%
D10*
%TO.C,Q1*%
X55500000Y-58420000D03*
X55500000Y-60960000D03*
X55500000Y-63500000D03*
%TD*%
D11*
%TO.C,R4*%
X144000000Y-70960000D03*
X169400000Y-70960000D03*
%TD*%
D12*
%TO.C,J102*%
X109000000Y-29880000D03*
D13*
X109000000Y-32420000D03*
X109000000Y-34960000D03*
X109000000Y-37500000D03*
X109000000Y-40040000D03*
X109000000Y-42580000D03*
X109000000Y-45120000D03*
%TD*%
D14*
%TO.C,R13*%
X112500000Y-60960000D03*
X122660000Y-60960000D03*
%TD*%
D10*
%TO.C,Q2*%
X93500000Y-58420000D03*
X93500000Y-60960000D03*
X93500000Y-63500000D03*
%TD*%
D12*
%TO.C,J104*%
X136340000Y-45500000D03*
D13*
X138880000Y-45500000D03*
X141420000Y-45500000D03*
X143960000Y-45500000D03*
X146500000Y-45500000D03*
X149040000Y-45500000D03*
X151580000Y-45500000D03*
X154120000Y-45500000D03*
X156660000Y-45500000D03*
X159200000Y-45500000D03*
%TD*%
D10*
%TO.C,Q7*%
X131500000Y-80420000D03*
X131500000Y-82960000D03*
X131500000Y-85500000D03*
%TD*%
D14*
%TO.C,R12*%
X74500000Y-60960000D03*
X84660000Y-60960000D03*
%TD*%
D12*
%TO.C,J3*%
X106000000Y-60960000D03*
D13*
X106000000Y-63500000D03*
%TD*%
D12*
%TO.C,J4*%
X144000000Y-60960000D03*
D13*
X144000000Y-63500000D03*
%TD*%
D14*
%TO.C,R16*%
X74500000Y-82960000D03*
X84660000Y-82960000D03*
%TD*%
D12*
%TO.C,J101*%
X91500000Y-29880000D03*
D13*
X91500000Y-32420000D03*
X91500000Y-34960000D03*
X91500000Y-37500000D03*
X91500000Y-40040000D03*
X91500000Y-42580000D03*
X91500000Y-45120000D03*
%TD*%
D11*
%TO.C,R2*%
X68000000Y-70960000D03*
X93400000Y-70960000D03*
%TD*%
%TO.C,R1*%
X30000000Y-70960000D03*
X55400000Y-70960000D03*
%TD*%
D12*
%TO.C,J2*%
X68000000Y-60960000D03*
D13*
X68000000Y-63500000D03*
%TD*%
D10*
%TO.C,Q8*%
X169500000Y-80420000D03*
X169500000Y-82960000D03*
X169500000Y-85500000D03*
%TD*%
%TO.C,Q6*%
X93500000Y-80420000D03*
X93500000Y-82960000D03*
X93500000Y-85500000D03*
%TD*%
D14*
%TO.C,R9*%
X76000000Y-33000000D03*
X76000000Y-43160000D03*
%TD*%
D11*
%TO.C,R3*%
X106000000Y-70960000D03*
X131400000Y-70960000D03*
%TD*%
D12*
%TO.C,J7*%
X106000000Y-82960000D03*
D13*
X106000000Y-85500000D03*
%TD*%
D10*
%TO.C,Q5*%
X55500000Y-80420000D03*
X55500000Y-82960000D03*
X55500000Y-85500000D03*
%TD*%
D11*
%TO.C,R8*%
X144000000Y-92960000D03*
X169400000Y-92960000D03*
%TD*%
D12*
%TO.C,J6*%
X68000000Y-82960000D03*
D13*
X68000000Y-85500000D03*
%TD*%
D10*
%TO.C,Q3*%
X131500000Y-58420000D03*
X131500000Y-60960000D03*
X131500000Y-63500000D03*
%TD*%
D14*
%TO.C,R18*%
X150500000Y-82960000D03*
X160660000Y-82960000D03*
%TD*%
%TO.C,R17*%
X112500000Y-82960000D03*
X122660000Y-82960000D03*
%TD*%
D12*
%TO.C,J8*%
X144000000Y-82960000D03*
D13*
X144000000Y-85500000D03*
%TD*%
D12*
%TO.C,J5*%
X30000000Y-82960000D03*
D13*
X30000000Y-85500000D03*
%TD*%
D14*
%TO.C,R15*%
X36500000Y-82960000D03*
X46660000Y-82960000D03*
%TD*%
D12*
%TO.C,J105*%
X169500000Y-29920000D03*
D13*
X169500000Y-32460000D03*
X169500000Y-35000000D03*
%TD*%
D12*
%TO.C,J103*%
X40220000Y-45000000D03*
D13*
X42760000Y-45000000D03*
X45300000Y-45000000D03*
X47840000Y-45000000D03*
X50380000Y-45000000D03*
X52920000Y-45000000D03*
X55460000Y-45000000D03*
X58000000Y-45000000D03*
X60540000Y-45000000D03*
X63080000Y-45000000D03*
%TD*%
D11*
%TO.C,R6*%
X68000000Y-92960000D03*
X93400000Y-92960000D03*
%TD*%
D14*
%TO.C,R14*%
X150500000Y-60960000D03*
X160660000Y-60960000D03*
%TD*%
M02*
