%TF.GenerationSoftware,KiCad,Pcbnew,10.0.0*%
%TF.CreationDate,2026-03-22T13:59:08-07:00*%
%TF.ProjectId,battery_tester,62617474-6572-4795-9f74-65737465722e,rev?*%
%TF.SameCoordinates,Original*%
%TF.FileFunction,Copper,L1,Top*%
%TF.FilePolarity,Positive*%
%FSLAX46Y46*%
G04 Gerber Fmt 4.6, Leading zero omitted, Abs format (unit mm)*
G04 Created by KiCad (PCBNEW 10.0.0) date 2026-03-22 13:59:08*
%MOMM*%
%LPD*%
G01*
G04 APERTURE LIST*
%TA.AperFunction,ComponentPad*%
%ADD10R,2.000000X1.905000*%
%TD*%
%TA.AperFunction,ComponentPad*%
%ADD11C,2.400000*%
%TD*%
%TA.AperFunction,ComponentPad*%
%ADD12R,1.700000X1.700000*%
%TD*%
%TA.AperFunction,ComponentPad*%
%ADD13C,1.700000*%
%TD*%
%TA.AperFunction,ComponentPad*%
%ADD14C,1.600000*%
%TD*%
%TA.AperFunction,ViaPad*%
%ADD15C,0.600000*%
%TD*%
%TA.AperFunction,Conductor*%
%ADD16C,0.200000*%
%TD*%
G04 APERTURE END LIST*
D10*
%TO.P,Q4,1*%
%TO.N,GPIO5*%
X169500000Y-58420000D03*
%TO.P,Q4,2*%
%TO.N,CH4_D*%
X169500000Y-60960000D03*
%TO.P,Q4,3*%
%TO.N,GND*%
X169500000Y-63500000D03*
%TD*%
D11*
%TO.P,R7,1*%
%TO.N,CH7_D*%
X106000000Y-92960000D03*
%TO.P,R7,2*%
%TO.N,BATT7+*%
X131400000Y-92960000D03*
%TD*%
%TO.P,R5,1*%
%TO.N,CH5_D*%
X30000000Y-92960000D03*
%TO.P,R5,2*%
%TO.N,BATT5+*%
X55400000Y-92960000D03*
%TD*%
D12*
%TO.P,J1,1*%
%TO.N,BATT1+*%
X30000000Y-60960000D03*
D13*
%TO.P,J1,2*%
%TO.N,GND*%
X30000000Y-63500000D03*
%TD*%
D14*
%TO.P,R11,1*%
%TO.N,GND*%
X36500000Y-60960000D03*
%TO.P,R11,2*%
%TO.N,GPIO2*%
X46660000Y-60960000D03*
%TD*%
%TO.P,R10,1*%
%TO.N,SCL*%
X124500000Y-33000000D03*
%TO.P,R10,2*%
%TO.N,+3V3*%
X124500000Y-43160000D03*
%TD*%
D10*
%TO.P,Q1,1*%
%TO.N,GPIO2*%
X55500000Y-58420000D03*
%TO.P,Q1,2*%
%TO.N,CH1_D*%
X55500000Y-60960000D03*
%TO.P,Q1,3*%
%TO.N,GND*%
X55500000Y-63500000D03*
%TD*%
D11*
%TO.P,R4,1*%
%TO.N,CH4_D*%
X144000000Y-70960000D03*
%TO.P,R4,2*%
%TO.N,BATT4+*%
X169400000Y-70960000D03*
%TD*%
D12*
%TO.P,J102,1*%
%TO.N,+5V*%
X109000000Y-29880000D03*
D13*
%TO.P,J102,2*%
%TO.N,GND*%
X109000000Y-32420000D03*
%TO.P,J102,3*%
%TO.N,+3V3*%
X109000000Y-34960000D03*
%TO.P,J102,4*%
%TO.N,GPIO10*%
X109000000Y-37500000D03*
%TO.P,J102,5*%
%TO.N,GPIO9*%
X109000000Y-40040000D03*
%TO.P,J102,6*%
%TO.N,GPIO8*%
X109000000Y-42580000D03*
%TO.P,J102,7*%
%TO.N,GPIO20*%
X109000000Y-45120000D03*
%TD*%
D14*
%TO.P,R13,1*%
%TO.N,GND*%
X112500000Y-60960000D03*
%TO.P,R13,2*%
%TO.N,GPIO4*%
X122660000Y-60960000D03*
%TD*%
D10*
%TO.P,Q2,1*%
%TO.N,GPIO3*%
X93500000Y-58420000D03*
%TO.P,Q2,2*%
%TO.N,CH2_D*%
X93500000Y-60960000D03*
%TO.P,Q2,3*%
%TO.N,GND*%
X93500000Y-63500000D03*
%TD*%
D12*
%TO.P,J104,1*%
%TO.N,+3V3*%
X136340000Y-45500000D03*
D13*
%TO.P,J104,2*%
%TO.N,GND*%
X138880000Y-45500000D03*
%TO.P,J104,3*%
%TO.N,SCL*%
X141420000Y-45500000D03*
%TO.P,J104,4*%
%TO.N,SDA*%
X143960000Y-45500000D03*
%TO.P,J104,5*%
%TO.N,+3V3*%
X146500000Y-45500000D03*
%TO.P,J104,6*%
%TO.N,N/C*%
X149040000Y-45500000D03*
%TO.P,J104,7*%
%TO.N,BATT5+*%
X151580000Y-45500000D03*
%TO.P,J104,8*%
%TO.N,BATT6+*%
X154120000Y-45500000D03*
%TO.P,J104,9*%
%TO.N,BATT7+*%
X156660000Y-45500000D03*
%TO.P,J104,10*%
%TO.N,BATT8+*%
X159200000Y-45500000D03*
%TD*%
D10*
%TO.P,Q7,1*%
%TO.N,GPIO10*%
X131500000Y-80420000D03*
%TO.P,Q7,2*%
%TO.N,CH7_D*%
X131500000Y-82960000D03*
%TO.P,Q7,3*%
%TO.N,GND*%
X131500000Y-85500000D03*
%TD*%
D14*
%TO.P,R12,1*%
%TO.N,GND*%
X74500000Y-60960000D03*
%TO.P,R12,2*%
%TO.N,GPIO3*%
X84660000Y-60960000D03*
%TD*%
D12*
%TO.P,J3,1*%
%TO.N,BATT3+*%
X106000000Y-60960000D03*
D13*
%TO.P,J3,2*%
%TO.N,GND*%
X106000000Y-63500000D03*
%TD*%
D12*
%TO.P,J4,1*%
%TO.N,BATT4+*%
X144000000Y-60960000D03*
D13*
%TO.P,J4,2*%
%TO.N,GND*%
X144000000Y-63500000D03*
%TD*%
D14*
%TO.P,R16,1*%
%TO.N,GND*%
X74500000Y-82960000D03*
%TO.P,R16,2*%
%TO.N,GPIO9*%
X84660000Y-82960000D03*
%TD*%
D12*
%TO.P,J101,1*%
%TO.N,GPIO2*%
X91500000Y-29880000D03*
D13*
%TO.P,J101,2*%
%TO.N,GPIO3*%
X91500000Y-32420000D03*
%TO.P,J101,3*%
%TO.N,GPIO4*%
X91500000Y-34960000D03*
%TO.P,J101,4*%
%TO.N,GPIO5*%
X91500000Y-37500000D03*
%TO.P,J101,5*%
%TO.N,SDA*%
X91500000Y-40040000D03*
%TO.P,J101,6*%
%TO.N,SCL*%
X91500000Y-42580000D03*
%TO.P,J101,7*%
%TO.N,LED_DATA*%
X91500000Y-45120000D03*
%TD*%
D11*
%TO.P,R2,1*%
%TO.N,CH2_D*%
X68000000Y-70960000D03*
%TO.P,R2,2*%
%TO.N,BATT2+*%
X93400000Y-70960000D03*
%TD*%
%TO.P,R1,1*%
%TO.N,CH1_D*%
X30000000Y-70960000D03*
%TO.P,R1,2*%
%TO.N,BATT1+*%
X55400000Y-70960000D03*
%TD*%
D12*
%TO.P,J2,1*%
%TO.N,BATT2+*%
X68000000Y-60960000D03*
D13*
%TO.P,J2,2*%
%TO.N,GND*%
X68000000Y-63500000D03*
%TD*%
D10*
%TO.P,Q8,1*%
%TO.N,GPIO20*%
X169500000Y-80420000D03*
%TO.P,Q8,2*%
%TO.N,CH8_D*%
X169500000Y-82960000D03*
%TO.P,Q8,3*%
%TO.N,GND*%
X169500000Y-85500000D03*
%TD*%
%TO.P,Q6,1*%
%TO.N,GPIO9*%
X93500000Y-80420000D03*
%TO.P,Q6,2*%
%TO.N,CH6_D*%
X93500000Y-82960000D03*
%TO.P,Q6,3*%
%TO.N,GND*%
X93500000Y-85500000D03*
%TD*%
D14*
%TO.P,R9,1*%
%TO.N,SDA*%
X76000000Y-33000000D03*
%TO.P,R9,2*%
%TO.N,+3V3*%
X76000000Y-43160000D03*
%TD*%
D11*
%TO.P,R3,1*%
%TO.N,CH3_D*%
X106000000Y-70960000D03*
%TO.P,R3,2*%
%TO.N,BATT3+*%
X131400000Y-70960000D03*
%TD*%
D12*
%TO.P,J7,1*%
%TO.N,BATT7+*%
X106000000Y-82960000D03*
D13*
%TO.P,J7,2*%
%TO.N,GND*%
X106000000Y-85500000D03*
%TD*%
D10*
%TO.P,Q5,1*%
%TO.N,GPIO8*%
X55500000Y-80420000D03*
%TO.P,Q5,2*%
%TO.N,CH5_D*%
X55500000Y-82960000D03*
%TO.P,Q5,3*%
%TO.N,GND*%
X55500000Y-85500000D03*
%TD*%
D11*
%TO.P,R8,1*%
%TO.N,CH8_D*%
X144000000Y-92960000D03*
%TO.P,R8,2*%
%TO.N,BATT8+*%
X169400000Y-92960000D03*
%TD*%
D12*
%TO.P,J6,1*%
%TO.N,BATT6+*%
X68000000Y-82960000D03*
D13*
%TO.P,J6,2*%
%TO.N,GND*%
X68000000Y-85500000D03*
%TD*%
D10*
%TO.P,Q3,1*%
%TO.N,GPIO4*%
X131500000Y-58420000D03*
%TO.P,Q3,2*%
%TO.N,CH3_D*%
X131500000Y-60960000D03*
%TO.P,Q3,3*%
%TO.N,GND*%
X131500000Y-63500000D03*
%TD*%
D14*
%TO.P,R18,1*%
%TO.N,GND*%
X150500000Y-82960000D03*
%TO.P,R18,2*%
%TO.N,GPIO20*%
X160660000Y-82960000D03*
%TD*%
%TO.P,R17,1*%
%TO.N,GND*%
X112500000Y-82960000D03*
%TO.P,R17,2*%
%TO.N,GPIO10*%
X122660000Y-82960000D03*
%TD*%
D12*
%TO.P,J8,1*%
%TO.N,BATT8+*%
X144000000Y-82960000D03*
D13*
%TO.P,J8,2*%
%TO.N,GND*%
X144000000Y-85500000D03*
%TD*%
D12*
%TO.P,J5,1*%
%TO.N,BATT5+*%
X30000000Y-82960000D03*
D13*
%TO.P,J5,2*%
%TO.N,GND*%
X30000000Y-85500000D03*
%TD*%
D14*
%TO.P,R15,1*%
%TO.N,GND*%
X36500000Y-82960000D03*
%TO.P,R15,2*%
%TO.N,GPIO8*%
X46660000Y-82960000D03*
%TD*%
D12*
%TO.P,J105,1*%
%TO.N,+5V*%
X169500000Y-29920000D03*
D13*
%TO.P,J105,2*%
%TO.N,LED_DATA*%
X169500000Y-32460000D03*
%TO.P,J105,3*%
%TO.N,GND*%
X169500000Y-35000000D03*
%TD*%
D12*
%TO.P,J103,1*%
%TO.N,+3V3*%
X40220000Y-45000000D03*
D13*
%TO.P,J103,2*%
%TO.N,GND*%
X42760000Y-45000000D03*
%TO.P,J103,3*%
%TO.N,SCL*%
X45300000Y-45000000D03*
%TO.P,J103,4*%
%TO.N,SDA*%
X47840000Y-45000000D03*
%TO.P,J103,5*%
%TO.N,GND*%
X50380000Y-45000000D03*
%TO.P,J103,6*%
%TO.N,N/C*%
X52920000Y-45000000D03*
%TO.P,J103,7*%
%TO.N,BATT1+*%
X55460000Y-45000000D03*
%TO.P,J103,8*%
%TO.N,BATT2+*%
X58000000Y-45000000D03*
%TO.P,J103,9*%
%TO.N,BATT3+*%
X60540000Y-45000000D03*
%TO.P,J103,10*%
%TO.N,BATT4+*%
X63080000Y-45000000D03*
%TD*%
D11*
%TO.P,R6,1*%
%TO.N,CH6_D*%
X68000000Y-92960000D03*
%TO.P,R6,2*%
%TO.N,BATT6+*%
X93400000Y-92960000D03*
%TD*%
D14*
%TO.P,R14,1*%
%TO.N,GND*%
X150500000Y-60960000D03*
%TO.P,R14,2*%
%TO.N,GPIO5*%
X160660000Y-60960000D03*
%TD*%
D15*
%TO.N,+3V3*%
X55000000Y-48500000D03*
X76000000Y-37000000D03*
%TO.N,SDA*%
X77500000Y-34500000D03*
%TO.N,SCL*%
X89500000Y-37500000D03*
X78500000Y-34170000D03*
%TO.N,LED_DATA*%
X130000000Y-46000000D03*
X139000000Y-42500000D03*
%TD*%
%TO.N,GND*%
D16*
X148500000Y-62960000D02*
X148500000Y-63000000D01*
X150500000Y-60960000D02*
X148500000Y-62960000D01*
X148500000Y-63000000D02*
X148000000Y-63500000D01*
X148000000Y-63500000D02*
X144000000Y-63500000D01*
X139500000Y-61000000D02*
X142500000Y-58000000D01*
X142500000Y-58000000D02*
X147500000Y-58000000D01*
X139540000Y-72000000D02*
X139500000Y-72000000D01*
X139500000Y-72000000D02*
X139500000Y-61000000D01*
X150500000Y-82960000D02*
X139540000Y-72000000D01*
X147500000Y-58000000D02*
X149000000Y-59500000D01*
X149000000Y-59500000D02*
X149040000Y-59500000D01*
X36500000Y-60960000D02*
X36500000Y-51260000D01*
X108540000Y-82960000D02*
X112500000Y-82960000D01*
X35350000Y-59810000D02*
X36500000Y-60960000D01*
X68000000Y-85500000D02*
X70540000Y-82960000D01*
X66450000Y-60210000D02*
X66850000Y-59810000D01*
X36500000Y-82960000D02*
X27500000Y-73960000D01*
X66850000Y-59810000D02*
X73350000Y-59810000D01*
X30000000Y-63500000D02*
X32540000Y-60960000D01*
X112500000Y-60960000D02*
X115040000Y-63500000D01*
X115040000Y-85500000D02*
X131500000Y-85500000D01*
X77040000Y-85500000D02*
X93500000Y-85500000D01*
X168650000Y-34150000D02*
X110730000Y-34150000D01*
X74500000Y-82960000D02*
X77040000Y-85500000D01*
X153040000Y-85500000D02*
X169500000Y-85500000D01*
X146540000Y-82960000D02*
X150500000Y-82960000D01*
X66450000Y-74910000D02*
X66450000Y-60210000D01*
X104850000Y-59810000D02*
X111350000Y-59810000D01*
X112500000Y-82960000D02*
X115040000Y-85500000D01*
X153040000Y-63500000D02*
X169500000Y-63500000D01*
X115040000Y-63500000D02*
X131500000Y-63500000D01*
X112500000Y-82960000D02*
X104450000Y-74910000D01*
X36500000Y-51260000D02*
X42760000Y-45000000D01*
X30000000Y-85500000D02*
X32540000Y-82960000D01*
X106000000Y-85500000D02*
X108540000Y-82960000D01*
X104450000Y-60210000D02*
X104850000Y-59810000D01*
X169500000Y-35000000D02*
X168650000Y-34150000D01*
X74500000Y-60960000D02*
X77040000Y-63500000D01*
X73350000Y-59810000D02*
X74500000Y-60960000D01*
X39040000Y-63500000D02*
X55500000Y-63500000D01*
X104450000Y-74910000D02*
X104450000Y-60210000D01*
X70540000Y-60960000D02*
X74500000Y-60960000D01*
X70540000Y-82960000D02*
X74500000Y-82960000D01*
X68000000Y-63500000D02*
X70540000Y-60960000D01*
X150500000Y-82960000D02*
X153040000Y-85500000D01*
X39040000Y-85500000D02*
X55500000Y-85500000D01*
X32540000Y-60960000D02*
X36500000Y-60960000D01*
X150500000Y-60960000D02*
X153040000Y-63500000D01*
X77040000Y-63500000D02*
X93500000Y-63500000D01*
X27500000Y-61160000D02*
X28850000Y-59810000D01*
X106000000Y-63500000D02*
X108540000Y-60960000D01*
X110730000Y-34150000D02*
X109000000Y-32420000D01*
X27500000Y-73960000D02*
X27500000Y-61160000D01*
X42500000Y-45400001D02*
X42760000Y-45400001D01*
X74500000Y-82960000D02*
X66450000Y-74910000D01*
X108540000Y-60960000D02*
X112500000Y-60960000D01*
X32540000Y-82960000D02*
X36500000Y-82960000D01*
X111350000Y-59810000D02*
X112500000Y-60960000D01*
X36500000Y-82960000D02*
X39040000Y-85500000D01*
X28850000Y-59810000D02*
X35350000Y-59810000D01*
X144000000Y-85500000D02*
X146540000Y-82960000D01*
X36500000Y-60960000D02*
X39040000Y-63500000D01*
%TO.N,+5V*%
X169460000Y-29880000D02*
X169500000Y-29920000D01*
X109000000Y-29880000D02*
X169460000Y-29880000D01*
%TO.N,+3V3*%
X137490000Y-46650000D02*
X145350000Y-46650000D01*
X145350000Y-46650000D02*
X146500000Y-45500000D01*
X55000000Y-48500000D02*
X64500000Y-48500000D01*
X64500000Y-48500000D02*
X76000000Y-37000000D01*
X136340000Y-45500000D02*
X137490000Y-46650000D01*
%TO.N,SDA*%
X59840000Y-33000000D02*
X47840000Y-45000000D01*
X76000000Y-33000000D02*
X77500000Y-34500000D01*
X76000000Y-33000000D02*
X59840000Y-33000000D01*
%TO.N,SCL*%
X58800000Y-31500000D02*
X77500000Y-31500000D01*
X89500000Y-40580000D02*
X91500000Y-42580000D01*
X78500000Y-32500000D02*
X78500000Y-34170000D01*
X77500000Y-31500000D02*
X78500000Y-32500000D01*
X89500000Y-37500000D02*
X89500000Y-40580000D01*
X45300000Y-45000000D02*
X58800000Y-31500000D01*
%TO.N,GPIO2*%
X52960000Y-60960000D02*
X55500000Y-58420000D01*
X46660000Y-60960000D02*
X52960000Y-60960000D01*
X55500000Y-58420000D02*
X83420000Y-30500000D01*
X90880000Y-30500000D02*
X91500000Y-29880000D01*
X83420000Y-30500000D02*
X90880000Y-30500000D01*
%TO.N,GPIO3*%
X93500000Y-58420000D02*
X93420000Y-58420000D01*
X90960000Y-60960000D02*
X93500000Y-58420000D01*
X93420000Y-58420000D02*
X88500000Y-53500000D01*
X88500000Y-35420000D02*
X91500000Y-32420000D01*
X84660000Y-60960000D02*
X90960000Y-60960000D01*
X88500000Y-53500000D02*
X88500000Y-35420000D01*
%TO.N,GPIO4*%
X128960000Y-60960000D02*
X131500000Y-58420000D01*
X122660000Y-60960000D02*
X128960000Y-60960000D01*
X91976346Y-38650000D02*
X91023654Y-38650000D01*
X131500000Y-58420000D02*
X111746346Y-58420000D01*
X90350000Y-36110000D02*
X91500000Y-34960000D01*
X90350000Y-37976346D02*
X90350000Y-36110000D01*
X111746346Y-58420000D02*
X91976346Y-38650000D01*
X91023654Y-38650000D02*
X90350000Y-37976346D01*
%TO.N,GPIO5*%
X110000000Y-56000000D02*
X91500000Y-37500000D01*
X167080000Y-56000000D02*
X110000000Y-56000000D01*
X160660000Y-60960000D02*
X166960000Y-60960000D01*
X169500000Y-58420000D02*
X167080000Y-56000000D01*
X166960000Y-60960000D02*
X169500000Y-58420000D01*
%TO.N,GPIO8*%
X57300000Y-82207500D02*
X57300000Y-93747007D01*
X27000000Y-92081321D02*
X27000000Y-48500000D01*
X29778679Y-94860000D02*
X27000000Y-92081321D01*
X46660000Y-82960000D02*
X52960000Y-82960000D01*
X56187006Y-94860000D02*
X29778679Y-94860000D01*
X55500000Y-80420000D02*
X56787500Y-81707500D01*
X27000000Y-48500000D02*
X47000000Y-28500000D01*
X56787500Y-81707500D02*
X56800000Y-81707500D01*
X57300000Y-93747007D02*
X56187006Y-94860000D01*
X47000000Y-28500000D02*
X94920000Y-28500000D01*
X56800000Y-81707500D02*
X57300000Y-82207500D01*
X52960000Y-82960000D02*
X55500000Y-80420000D01*
X94920000Y-28500000D02*
X109000000Y-42580000D01*
%TO.N,GPIO9*%
X95400000Y-93647007D02*
X93787007Y-95260000D01*
X93787007Y-95260000D02*
X29612993Y-95260000D01*
X97060000Y-28100000D02*
X109000000Y-40040000D01*
X26600000Y-48334314D02*
X46834315Y-28100000D01*
X90960000Y-82960000D02*
X93500000Y-80420000D01*
X29612993Y-95260000D02*
X26600000Y-92247006D01*
X95400000Y-82320000D02*
X95400000Y-93647007D01*
X93500000Y-80420000D02*
X95400000Y-82320000D01*
X46834315Y-28100000D02*
X97060000Y-28100000D01*
X84660000Y-82960000D02*
X90960000Y-82960000D01*
X26600000Y-92247006D02*
X26600000Y-48334314D01*
%TO.N,GPIO10*%
X143918679Y-95000000D02*
X170047007Y-95000000D01*
X131500000Y-80420000D02*
X142500000Y-91420000D01*
X122660000Y-82960000D02*
X128960000Y-82960000D01*
X142500000Y-91420000D02*
X142500000Y-93581321D01*
X162165686Y-34600000D02*
X111900000Y-34600000D01*
X111900000Y-34600000D02*
X109000000Y-37500000D01*
X171800000Y-44234314D02*
X162165686Y-34600000D01*
X171800000Y-93247007D02*
X171800000Y-44234314D01*
X142500000Y-93581321D02*
X143918679Y-95000000D01*
X170047007Y-95000000D02*
X171800000Y-93247007D01*
X128960000Y-82960000D02*
X131500000Y-80420000D01*
%TO.N,GPIO20*%
X160660000Y-82960000D02*
X166960000Y-82960000D01*
X166960000Y-82960000D02*
X169500000Y-80420000D01*
X119120000Y-35000000D02*
X109000000Y-45120000D01*
X171400000Y-78520000D02*
X171400000Y-44400000D01*
X171400000Y-44400000D02*
X162000000Y-35000000D01*
X162000000Y-35000000D02*
X119120000Y-35000000D01*
X169500000Y-80420000D02*
X171400000Y-78520000D01*
%TO.N,LED_DATA*%
X139000000Y-42500000D02*
X133500000Y-42500000D01*
X133500000Y-42500000D02*
X130000000Y-46000000D01*
%TO.N,BATT1+*%
X35833654Y-70960000D02*
X28850000Y-63976346D01*
X55400000Y-70960000D02*
X35833654Y-70960000D01*
X28850000Y-63976346D02*
X28850000Y-62110000D01*
X28850000Y-62110000D02*
X30000000Y-60960000D01*
%TO.N,BATT2+*%
X66850000Y-63976346D02*
X66850000Y-62110000D01*
X93400000Y-70960000D02*
X73833654Y-70960000D01*
X73833654Y-70960000D02*
X66850000Y-63976346D01*
X66850000Y-62110000D02*
X68000000Y-60960000D01*
%TO.N,BATT3+*%
X131400000Y-70960000D02*
X111833654Y-70960000D01*
X104850000Y-62110000D02*
X106000000Y-60960000D01*
X111833654Y-70960000D02*
X104850000Y-63976346D01*
X104850000Y-63976346D02*
X104850000Y-62110000D01*
%TO.N,BATT4+*%
X142850000Y-63976346D02*
X142850000Y-62110000D01*
X142850000Y-62110000D02*
X144000000Y-60960000D01*
X169400000Y-70960000D02*
X149833654Y-70960000D01*
X149833654Y-70960000D02*
X142850000Y-63976346D01*
%TO.N,BATT5+*%
X28850000Y-84110000D02*
X30000000Y-82960000D01*
X55400000Y-92960000D02*
X35833654Y-92960000D01*
X28850000Y-85976346D02*
X28850000Y-84110000D01*
X35833654Y-92960000D02*
X28850000Y-85976346D01*
%TO.N,BATT6+*%
X66850000Y-84110000D02*
X68000000Y-82960000D01*
X93400000Y-92960000D02*
X73833654Y-92960000D01*
X73833654Y-92960000D02*
X66850000Y-85976346D01*
X66850000Y-85976346D02*
X66850000Y-84110000D01*
%TO.N,BATT7+*%
X111833654Y-92960000D02*
X104850000Y-85976346D01*
X131400000Y-92960000D02*
X111833654Y-92960000D01*
X104850000Y-84110000D02*
X106000000Y-82960000D01*
X104850000Y-85976346D02*
X104850000Y-84110000D01*
%TO.N,BATT8+*%
X142850000Y-85976346D02*
X142850000Y-84110000D01*
X169400000Y-92960000D02*
X149833654Y-92960000D01*
X142850000Y-84110000D02*
X144000000Y-82960000D01*
X149833654Y-92960000D02*
X142850000Y-85976346D01*
%TO.N,CH1_D*%
X56900000Y-71581321D02*
X56900000Y-62360000D01*
X56021321Y-72460000D02*
X56900000Y-71581321D01*
X56900000Y-62360000D02*
X55500000Y-60960000D01*
X30000000Y-70960000D02*
X31500000Y-72460000D01*
X31500000Y-72460000D02*
X56021321Y-72460000D01*
%TO.N,CH2_D*%
X94900000Y-62360000D02*
X93500000Y-60960000D01*
X94021321Y-72460000D02*
X94900000Y-71581321D01*
X69500000Y-72460000D02*
X94021321Y-72460000D01*
X94900000Y-71581321D02*
X94900000Y-62360000D01*
X68000000Y-70960000D02*
X69500000Y-72460000D01*
%TO.N,CH3_D*%
X133000000Y-71500000D02*
X133000000Y-62460000D01*
X133000000Y-62460000D02*
X131500000Y-60960000D01*
X132040000Y-72460000D02*
X133000000Y-71500000D01*
X107500000Y-72460000D02*
X132040000Y-72460000D01*
X106000000Y-70960000D02*
X107500000Y-72460000D01*
%TO.N,CH4_D*%
X144000000Y-70960000D02*
X145500000Y-72460000D01*
X171000000Y-62460000D02*
X169500000Y-60960000D01*
X145500000Y-72460000D02*
X170040000Y-72460000D01*
X170040000Y-72460000D02*
X171000000Y-71500000D01*
X171000000Y-71500000D02*
X171000000Y-62460000D01*
%TO.N,CH5_D*%
X56900000Y-84360000D02*
X55500000Y-82960000D01*
X56021321Y-94460000D02*
X56900000Y-93581321D01*
X56900000Y-93581321D02*
X56900000Y-84360000D01*
X30000000Y-92960000D02*
X31500000Y-94460000D01*
X31500000Y-94460000D02*
X56021321Y-94460000D01*
%TO.N,CH6_D*%
X68000000Y-92960000D02*
X69500000Y-94460000D01*
X95000000Y-84460000D02*
X93500000Y-82960000D01*
X95000000Y-93481321D02*
X95000000Y-84460000D01*
X69500000Y-94460000D02*
X94021321Y-94460000D01*
X94021321Y-94460000D02*
X95000000Y-93481321D01*
%TO.N,CH7_D*%
X133000000Y-93481321D02*
X133000000Y-84460000D01*
X133000000Y-84460000D02*
X131500000Y-82960000D01*
X107500000Y-94460000D02*
X132021321Y-94460000D01*
X132021321Y-94460000D02*
X133000000Y-93481321D01*
X106000000Y-92960000D02*
X107500000Y-94460000D01*
%TO.N,CH8_D*%
X144000000Y-92960000D02*
X145500000Y-94460000D01*
X145500000Y-94460000D02*
X170021321Y-94460000D01*
X170900000Y-93581321D02*
X170900000Y-84360000D01*
X170021321Y-94460000D02*
X170900000Y-93581321D01*
X170900000Y-84360000D02*
X169500000Y-82960000D01*
%TO.N,GND*%
X149040000Y-59500000D02*
X150500000Y-60960000D01*
%TD*%
M02*
