M48
; DRILL file KiCad 10.0.0 date 2026-03-22T13:57:58
; FORMAT={-:-/ absolute / metric / decimal}
; #@! TF.CreationDate,2026-03-22T13:57:58-07:00
; #@! TF.GenerationSoftware,Kicad,Pcbnew,10.0.0
; #@! TF.FileFunction,Plated,1,2,PTH
FMAT,2
METRIC
; #@! TA.AperFunction,Plated,PTH,ViaDrill
T1C0.300
; #@! TA.AperFunction,Plated,PTH,ComponentDrill
T2C0.800
; #@! TA.AperFunction,Plated,PTH,ComponentDrill
T3C1.000
; #@! TA.AperFunction,Plated,PTH,ComponentDrill
T4C1.100
; #@! TA.AperFunction,Plated,PTH,ComponentDrill
T5C1.200
%
G90
G05
T1
X55.0Y-48.5
X76.0Y-37.0
X77.5Y-34.5
X78.5Y-34.17
X89.5Y-37.5
X130.0Y-46.0
X139.0Y-42.5
T2
X36.5Y-60.96
X36.5Y-82.96
X46.66Y-60.96
X46.66Y-82.96
X74.5Y-60.96
X74.5Y-82.96
X76.0Y-33.0
X76.0Y-43.16
X84.66Y-60.96
X84.66Y-82.96
X112.5Y-60.96
X112.5Y-82.96
X122.66Y-60.96
X122.66Y-82.96
X124.5Y-33.0
X124.5Y-43.16
X150.5Y-60.96
X150.5Y-82.96
X160.66Y-60.96
X160.66Y-82.96
T3
X30.0Y-60.96
X30.0Y-63.5
X30.0Y-82.96
X30.0Y-85.5
X40.22Y-45.0
X42.76Y-45.0
X45.3Y-45.0
X47.84Y-45.0
X50.38Y-45.0
X52.92Y-45.0
X55.46Y-45.0
X58.0Y-45.0
X60.54Y-45.0
X63.08Y-45.0
X68.0Y-60.96
X68.0Y-63.5
X68.0Y-82.96
X68.0Y-85.5
X91.5Y-29.88
X91.5Y-32.42
X91.5Y-34.96
X91.5Y-37.5
X91.5Y-40.04
X91.5Y-42.58
X91.5Y-45.12
X106.0Y-60.96
X106.0Y-63.5
X106.0Y-82.96
X106.0Y-85.5
X109.0Y-29.88
X109.0Y-32.42
X109.0Y-34.96
X109.0Y-37.5
X109.0Y-40.04
X109.0Y-42.58
X109.0Y-45.12
X136.34Y-45.5
X138.88Y-45.5
X141.42Y-45.5
X143.96Y-45.5
X144.0Y-60.96
X144.0Y-63.5
X144.0Y-82.96
X144.0Y-85.5
X146.5Y-45.5
X149.04Y-45.5
X151.58Y-45.5
X154.12Y-45.5
X156.66Y-45.5
X159.2Y-45.5
X169.5Y-29.92
X169.5Y-32.46
X169.5Y-35.0
T4
X55.5Y-58.42
X55.5Y-60.96
X55.5Y-63.5
X55.5Y-80.42
X55.5Y-82.96
X55.5Y-85.5
X93.5Y-58.42
X93.5Y-60.96
X93.5Y-63.5
X93.5Y-80.42
X93.5Y-82.96
X93.5Y-85.5
X131.5Y-58.42
X131.5Y-60.96
X131.5Y-63.5
X131.5Y-80.42
X131.5Y-82.96
X131.5Y-85.5
X169.5Y-58.42
X169.5Y-60.96
X169.5Y-63.5
X169.5Y-80.42
X169.5Y-82.96
X169.5Y-85.5
T5
X30.0Y-70.96
X30.0Y-92.96
X55.4Y-70.96
X55.4Y-92.96
X68.0Y-70.96
X68.0Y-92.96
X93.4Y-70.96
X93.4Y-92.96
X106.0Y-70.96
X106.0Y-92.96
X131.4Y-70.96
X131.4Y-92.96
X144.0Y-70.96
X144.0Y-92.96
X169.4Y-70.96
X169.4Y-92.96
M30
