%TF.GenerationSoftware,KiCad,Pcbnew,10.0.0*%
%TF.CreationDate,2026-03-22T13:59:08-07:00*%
%TF.ProjectId,battery_tester,62617474-6572-4795-9f74-65737465722e,rev?*%
%TF.SameCoordinates,Original*%
%TF.FileFunction,Copper,L2,Bot*%
%TF.FilePolarity,Positive*%
%FSLAX46Y46*%
G04 Gerber Fmt 4.6, Leading zero omitted, Abs format (unit mm)*
G04 Created by KiCad (PCBNEW 10.0.0) date 2026-03-22 13:59:08*
%MOMM*%
%LPD*%
G01*
G04 APERTURE LIST*
%TA.AperFunction,ComponentPad*%
%ADD10R,2.000000X1.905000*%
%TD*%
%TA.AperFunction,ComponentPad*%
%ADD11C,2.400000*%
%TD*%
%TA.AperFunction,ComponentPad*%
%ADD12R,1.700000X1.700000*%
%TD*%
%TA.AperFunction,ComponentPad*%
%ADD13C,1.700000*%
%TD*%
%TA.AperFunction,ComponentPad*%
%ADD14C,1.600000*%
%TD*%
%TA.AperFunction,ViaPad*%
%ADD15C,0.600000*%
%TD*%
%TA.AperFunction,Conductor*%
%ADD16C,0.200000*%
%TD*%
G04 APERTURE END LIST*
D10*
%TO.P,Q4,1*%
%TO.N,GPIO5*%
X169500000Y-58420000D03*
%TO.P,Q4,2*%
%TO.N,CH4_D*%
X169500000Y-60960000D03*
%TO.P,Q4,3*%
%TO.N,GND*%
X169500000Y-63500000D03*
%TD*%
D11*
%TO.P,R7,1*%
%TO.N,CH7_D*%
X106000000Y-92960000D03*
%TO.P,R7,2*%
%TO.N,BATT7+*%
X131400000Y-92960000D03*
%TD*%
%TO.P,R5,1*%
%TO.N,CH5_D*%
X30000000Y-92960000D03*
%TO.P,R5,2*%
%TO.N,BATT5+*%
X55400000Y-92960000D03*
%TD*%
D12*
%TO.P,J1,1*%
%TO.N,BATT1+*%
X30000000Y-60960000D03*
D13*
%TO.P,J1,2*%
%TO.N,GND*%
X30000000Y-63500000D03*
%TD*%
D14*
%TO.P,R11,1*%
%TO.N,GND*%
X36500000Y-60960000D03*
%TO.P,R11,2*%
%TO.N,GPIO2*%
X46660000Y-60960000D03*
%TD*%
%TO.P,R10,1*%
%TO.N,SCL*%
X124500000Y-33000000D03*
%TO.P,R10,2*%
%TO.N,+3V3*%
X124500000Y-43160000D03*
%TD*%
D10*
%TO.P,Q1,1*%
%TO.N,GPIO2*%
X55500000Y-58420000D03*
%TO.P,Q1,2*%
%TO.N,CH1_D*%
X55500000Y-60960000D03*
%TO.P,Q1,3*%
%TO.N,GND*%
X55500000Y-63500000D03*
%TD*%
D11*
%TO.P,R4,1*%
%TO.N,CH4_D*%
X144000000Y-70960000D03*
%TO.P,R4,2*%
%TO.N,BATT4+*%
X169400000Y-70960000D03*
%TD*%
D12*
%TO.P,J102,1*%
%TO.N,+5V*%
X109000000Y-29880000D03*
D13*
%TO.P,J102,2*%
%TO.N,GND*%
X109000000Y-32420000D03*
%TO.P,J102,3*%
%TO.N,+3V3*%
X109000000Y-34960000D03*
%TO.P,J102,4*%
%TO.N,GPIO10*%
X109000000Y-37500000D03*
%TO.P,J102,5*%
%TO.N,GPIO9*%
X109000000Y-40040000D03*
%TO.P,J102,6*%
%TO.N,GPIO8*%
X109000000Y-42580000D03*
%TO.P,J102,7*%
%TO.N,GPIO20*%
X109000000Y-45120000D03*
%TD*%
D14*
%TO.P,R13,1*%
%TO.N,GND*%
X112500000Y-60960000D03*
%TO.P,R13,2*%
%TO.N,GPIO4*%
X122660000Y-60960000D03*
%TD*%
D10*
%TO.P,Q2,1*%
%TO.N,GPIO3*%
X93500000Y-58420000D03*
%TO.P,Q2,2*%
%TO.N,CH2_D*%
X93500000Y-60960000D03*
%TO.P,Q2,3*%
%TO.N,GND*%
X93500000Y-63500000D03*
%TD*%
D12*
%TO.P,J104,1*%
%TO.N,+3V3*%
X136340000Y-45500000D03*
D13*
%TO.P,J104,2*%
%TO.N,GND*%
X138880000Y-45500000D03*
%TO.P,J104,3*%
%TO.N,SCL*%
X141420000Y-45500000D03*
%TO.P,J104,4*%
%TO.N,SDA*%
X143960000Y-45500000D03*
%TO.P,J104,5*%
%TO.N,+3V3*%
X146500000Y-45500000D03*
%TO.P,J104,6*%
%TO.N,N/C*%
X149040000Y-45500000D03*
%TO.P,J104,7*%
%TO.N,BATT5+*%
X151580000Y-45500000D03*
%TO.P,J104,8*%
%TO.N,BATT6+*%
X154120000Y-45500000D03*
%TO.P,J104,9*%
%TO.N,BATT7+*%
X156660000Y-45500000D03*
%TO.P,J104,10*%
%TO.N,BATT8+*%
X159200000Y-45500000D03*
%TD*%
D10*
%TO.P,Q7,1*%
%TO.N,GPIO10*%
X131500000Y-80420000D03*
%TO.P,Q7,2*%
%TO.N,CH7_D*%
X131500000Y-82960000D03*
%TO.P,Q7,3*%
%TO.N,GND*%
X131500000Y-85500000D03*
%TD*%
D14*
%TO.P,R12,1*%
%TO.N,GND*%
X74500000Y-60960000D03*
%TO.P,R12,2*%
%TO.N,GPIO3*%
X84660000Y-60960000D03*
%TD*%
D12*
%TO.P,J3,1*%
%TO.N,BATT3+*%
X106000000Y-60960000D03*
D13*
%TO.P,J3,2*%
%TO.N,GND*%
X106000000Y-63500000D03*
%TD*%
D12*
%TO.P,J4,1*%
%TO.N,BATT4+*%
X144000000Y-60960000D03*
D13*
%TO.P,J4,2*%
%TO.N,GND*%
X144000000Y-63500000D03*
%TD*%
D14*
%TO.P,R16,1*%
%TO.N,GND*%
X74500000Y-82960000D03*
%TO.P,R16,2*%
%TO.N,GPIO9*%
X84660000Y-82960000D03*
%TD*%
D12*
%TO.P,J101,1*%
%TO.N,GPIO2*%
X91500000Y-29880000D03*
D13*
%TO.P,J101,2*%
%TO.N,GPIO3*%
X91500000Y-32420000D03*
%TO.P,J101,3*%
%TO.N,GPIO4*%
X91500000Y-34960000D03*
%TO.P,J101,4*%
%TO.N,GPIO5*%
X91500000Y-37500000D03*
%TO.P,J101,5*%
%TO.N,SDA*%
X91500000Y-40040000D03*
%TO.P,J101,6*%
%TO.N,SCL*%
X91500000Y-42580000D03*
%TO.P,J101,7*%
%TO.N,LED_DATA*%
X91500000Y-45120000D03*
%TD*%
D11*
%TO.P,R2,1*%
%TO.N,CH2_D*%
X68000000Y-70960000D03*
%TO.P,R2,2*%
%TO.N,BATT2+*%
X93400000Y-70960000D03*
%TD*%
%TO.P,R1,1*%
%TO.N,CH1_D*%
X30000000Y-70960000D03*
%TO.P,R1,2*%
%TO.N,BATT1+*%
X55400000Y-70960000D03*
%TD*%
D12*
%TO.P,J2,1*%
%TO.N,BATT2+*%
X68000000Y-60960000D03*
D13*
%TO.P,J2,2*%
%TO.N,GND*%
X68000000Y-63500000D03*
%TD*%
D10*
%TO.P,Q8,1*%
%TO.N,GPIO20*%
X169500000Y-80420000D03*
%TO.P,Q8,2*%
%TO.N,CH8_D*%
X169500000Y-82960000D03*
%TO.P,Q8,3*%
%TO.N,GND*%
X169500000Y-85500000D03*
%TD*%
%TO.P,Q6,1*%
%TO.N,GPIO9*%
X93500000Y-80420000D03*
%TO.P,Q6,2*%
%TO.N,CH6_D*%
X93500000Y-82960000D03*
%TO.P,Q6,3*%
%TO.N,GND*%
X93500000Y-85500000D03*
%TD*%
D14*
%TO.P,R9,1*%
%TO.N,SDA*%
X76000000Y-33000000D03*
%TO.P,R9,2*%
%TO.N,+3V3*%
X76000000Y-43160000D03*
%TD*%
D11*
%TO.P,R3,1*%
%TO.N,CH3_D*%
X106000000Y-70960000D03*
%TO.P,R3,2*%
%TO.N,BATT3+*%
X131400000Y-70960000D03*
%TD*%
D12*
%TO.P,J7,1*%
%TO.N,BATT7+*%
X106000000Y-82960000D03*
D13*
%TO.P,J7,2*%
%TO.N,GND*%
X106000000Y-85500000D03*
%TD*%
D10*
%TO.P,Q5,1*%
%TO.N,GPIO8*%
X55500000Y-80420000D03*
%TO.P,Q5,2*%
%TO.N,CH5_D*%
X55500000Y-82960000D03*
%TO.P,Q5,3*%
%TO.N,GND*%
X55500000Y-85500000D03*
%TD*%
D11*
%TO.P,R8,1*%
%TO.N,CH8_D*%
X144000000Y-92960000D03*
%TO.P,R8,2*%
%TO.N,BATT8+*%
X169400000Y-92960000D03*
%TD*%
D12*
%TO.P,J6,1*%
%TO.N,BATT6+*%
X68000000Y-82960000D03*
D13*
%TO.P,J6,2*%
%TO.N,GND*%
X68000000Y-85500000D03*
%TD*%
D10*
%TO.P,Q3,1*%
%TO.N,GPIO4*%
X131500000Y-58420000D03*
%TO.P,Q3,2*%
%TO.N,CH3_D*%
X131500000Y-60960000D03*
%TO.P,Q3,3*%
%TO.N,GND*%
X131500000Y-63500000D03*
%TD*%
D14*
%TO.P,R18,1*%
%TO.N,GND*%
X150500000Y-82960000D03*
%TO.P,R18,2*%
%TO.N,GPIO20*%
X160660000Y-82960000D03*
%TD*%
%TO.P,R17,1*%
%TO.N,GND*%
X112500000Y-82960000D03*
%TO.P,R17,2*%
%TO.N,GPIO10*%
X122660000Y-82960000D03*
%TD*%
D12*
%TO.P,J8,1*%
%TO.N,BATT8+*%
X144000000Y-82960000D03*
D13*
%TO.P,J8,2*%
%TO.N,GND*%
X144000000Y-85500000D03*
%TD*%
D12*
%TO.P,J5,1*%
%TO.N,BATT5+*%
X30000000Y-82960000D03*
D13*
%TO.P,J5,2*%
%TO.N,GND*%
X30000000Y-85500000D03*
%TD*%
D14*
%TO.P,R15,1*%
%TO.N,GND*%
X36500000Y-82960000D03*
%TO.P,R15,2*%
%TO.N,GPIO8*%
X46660000Y-82960000D03*
%TD*%
D12*
%TO.P,J105,1*%
%TO.N,+5V*%
X169500000Y-29920000D03*
D13*
%TO.P,J105,2*%
%TO.N,LED_DATA*%
X169500000Y-32460000D03*
%TO.P,J105,3*%
%TO.N,GND*%
X169500000Y-35000000D03*
%TD*%
D12*
%TO.P,J103,1*%
%TO.N,+3V3*%
X40220000Y-45000000D03*
D13*
%TO.P,J103,2*%
%TO.N,GND*%
X42760000Y-45000000D03*
%TO.P,J103,3*%
%TO.N,SCL*%
X45300000Y-45000000D03*
%TO.P,J103,4*%
%TO.N,SDA*%
X47840000Y-45000000D03*
%TO.P,J103,5*%
%TO.N,GND*%
X50380000Y-45000000D03*
%TO.P,J103,6*%
%TO.N,N/C*%
X52920000Y-45000000D03*
%TO.P,J103,7*%
%TO.N,BATT1+*%
X55460000Y-45000000D03*
%TO.P,J103,8*%
%TO.N,BATT2+*%
X58000000Y-45000000D03*
%TO.P,J103,9*%
%TO.N,BATT3+*%
X60540000Y-45000000D03*
%TO.P,J103,10*%
%TO.N,BATT4+*%
X63080000Y-45000000D03*
%TD*%
D11*
%TO.P,R6,1*%
%TO.N,CH6_D*%
X68000000Y-92960000D03*
%TO.P,R6,2*%
%TO.N,BATT6+*%
X93400000Y-92960000D03*
%TD*%
D14*
%TO.P,R14,1*%
%TO.N,GND*%
X150500000Y-60960000D03*
%TO.P,R14,2*%
%TO.N,GPIO5*%
X160660000Y-60960000D03*
%TD*%
D15*
%TO.N,+3V3*%
X55000000Y-48500000D03*
X76000000Y-37000000D03*
%TO.N,SDA*%
X77500000Y-34500000D03*
%TO.N,SCL*%
X89500000Y-37500000D03*
X78500000Y-34170000D03*
%TO.N,LED_DATA*%
X130000000Y-46000000D03*
X139000000Y-42500000D03*
%TD*%
%TO.N,GND*%
D16*
X107850000Y-33570000D02*
X77430000Y-33570000D01*
X159676346Y-44350000D02*
X168200000Y-52873654D01*
X53900000Y-93581321D02*
X53900000Y-87100000D01*
X92778679Y-94460000D02*
X91900000Y-93581321D01*
X106000000Y-63500000D02*
X93500000Y-63500000D01*
X54778679Y-72460000D02*
X53900000Y-71581321D01*
X106000000Y-85500000D02*
X97040000Y-94460000D01*
X91900000Y-93581321D02*
X91900000Y-87100000D01*
X129900000Y-87100000D02*
X131500000Y-85500000D01*
X77430000Y-33570000D02*
X67150000Y-43850000D01*
X97040000Y-94460000D02*
X92778679Y-94460000D01*
X50380000Y-45000000D02*
X51500000Y-43880000D01*
X68000000Y-63500000D02*
X59040000Y-72460000D01*
X59040000Y-94460000D02*
X54778679Y-94460000D01*
X53900000Y-87100000D02*
X55500000Y-85500000D01*
X150500000Y-82960000D02*
X139000000Y-94460000D01*
X168200000Y-52873654D02*
X168200000Y-62200000D01*
X91900000Y-87100000D02*
X93500000Y-85500000D01*
X43910000Y-43850000D02*
X42760000Y-45000000D01*
X67150000Y-43850000D02*
X51500000Y-43850000D01*
X168200000Y-62200000D02*
X169500000Y-63500000D01*
X68000000Y-85500000D02*
X59040000Y-94460000D01*
X130778679Y-94460000D02*
X129900000Y-93581321D01*
X51500000Y-43850000D02*
X43910000Y-43850000D01*
X59040000Y-72460000D02*
X54778679Y-72460000D01*
X53900000Y-71581321D02*
X53900000Y-65100000D01*
X129900000Y-93581321D02*
X129900000Y-87100000D01*
X54778679Y-94460000D02*
X53900000Y-93581321D01*
X53900000Y-65100000D02*
X55500000Y-63500000D01*
X109000000Y-32420000D02*
X107850000Y-33570000D01*
X140030000Y-44350000D02*
X159676346Y-44350000D01*
X139000000Y-94460000D02*
X130778679Y-94460000D01*
X51500000Y-43880000D02*
X51500000Y-43850000D01*
X138880000Y-45500000D02*
X140030000Y-44350000D01*
%TO.N,+3V3*%
X76000000Y-37000000D02*
X77650000Y-38650000D01*
X117200000Y-43160000D02*
X124500000Y-43160000D01*
X43720000Y-48500000D02*
X55000000Y-48500000D01*
X80510000Y-38650000D02*
X105310000Y-38650000D01*
X105310000Y-38650000D02*
X109000000Y-34960000D01*
X124500000Y-43160000D02*
X131160000Y-43160000D01*
X133500000Y-45500000D02*
X136340000Y-45500000D01*
X131160000Y-43160000D02*
X133500000Y-45500000D01*
X77650000Y-38650000D02*
X80510000Y-38650000D01*
X109000000Y-34960000D02*
X117200000Y-43160000D01*
X76000000Y-43160000D02*
X80510000Y-38650000D01*
X40220000Y-45000000D02*
X43720000Y-48500000D01*
%TO.N,SDA*%
X123514365Y-43730000D02*
X125184365Y-45400000D01*
X87280000Y-44260000D02*
X91500000Y-40040000D01*
X135434314Y-48000000D02*
X141460000Y-48000000D01*
X74900000Y-43615635D02*
X75544365Y-44260000D01*
X132834314Y-45400000D02*
X135434314Y-48000000D01*
X74900000Y-37100000D02*
X74900000Y-43615635D01*
X91500000Y-40040000D02*
X95190000Y-43730000D01*
X125184365Y-45400000D02*
X132834314Y-45400000D01*
X95190000Y-43730000D02*
X123514365Y-43730000D01*
X141460000Y-48000000D02*
X143960000Y-45500000D01*
X75544365Y-44260000D02*
X87280000Y-44260000D01*
X77500000Y-34500000D02*
X74900000Y-37100000D01*
%TO.N,SCL*%
X90650000Y-36350000D02*
X89500000Y-37500000D01*
X78500000Y-34170000D02*
X81830000Y-37500000D01*
X123700001Y-33799999D02*
X108293655Y-33799999D01*
X141420000Y-45500000D02*
X140270000Y-46650000D01*
X137490000Y-45736346D02*
X137490000Y-44350000D01*
X138403654Y-46650000D02*
X137490000Y-45736346D01*
X140270000Y-46650000D02*
X138403654Y-46650000D01*
X137490000Y-44350000D02*
X126140000Y-33000000D01*
X126140000Y-33000000D02*
X124500000Y-33000000D01*
X108293655Y-33799999D02*
X105743654Y-36350000D01*
X81830000Y-37500000D02*
X89500000Y-37500000D01*
X124500000Y-33000000D02*
X123700001Y-33799999D01*
X105743654Y-36350000D02*
X90650000Y-36350000D01*
%TO.N,LED_DATA*%
X159460000Y-42500000D02*
X139000000Y-42500000D01*
X129730000Y-46270000D02*
X92650000Y-46270000D01*
X169500000Y-32460000D02*
X159460000Y-42500000D01*
X130000000Y-46000000D02*
X129730000Y-46270000D01*
X92650000Y-46270000D02*
X91500000Y-45120000D01*
%TO.N,BATT1+*%
X56800000Y-46340000D02*
X55460000Y-45000000D01*
X55400000Y-70960000D02*
X56800000Y-69560000D01*
X56800000Y-69560000D02*
X56800000Y-46340000D01*
%TO.N,BATT2+*%
X68000000Y-60960000D02*
X68000000Y-55000000D01*
X68000000Y-55000000D02*
X58000000Y-45000000D01*
%TO.N,BATT3+*%
X106000000Y-60960000D02*
X104747500Y-59707500D01*
X75247500Y-59707500D02*
X60540000Y-45000000D01*
X104747500Y-59707500D02*
X75247500Y-59707500D01*
%TO.N,BATT4+*%
X144000000Y-60960000D02*
X140040000Y-57000000D01*
X75080000Y-57000000D02*
X63080000Y-45000000D01*
X140040000Y-57000000D02*
X75080000Y-57000000D01*
%TO.N,BATT5+*%
X142850000Y-62110000D02*
X145150000Y-62110000D01*
X78900000Y-69460000D02*
X135500000Y-69460000D01*
X151580000Y-55680000D02*
X151580000Y-45500000D01*
X55400000Y-92960000D02*
X78900000Y-69460000D01*
X145150000Y-62110000D02*
X151580000Y-55680000D01*
X135500000Y-69460000D02*
X142850000Y-62110000D01*
%TO.N,BATT6+*%
X93400000Y-92960000D02*
X107192500Y-79167500D01*
X154120000Y-55006346D02*
X154120000Y-45500000D01*
X107192500Y-79167500D02*
X129958846Y-79167500D01*
X129958846Y-79167500D02*
X154120000Y-55006346D01*
%TO.N,BATT7+*%
X156660000Y-67700000D02*
X156660000Y-45500000D01*
X131400000Y-92960000D02*
X156660000Y-67700000D01*
%TO.N,BATT8+*%
X169400000Y-92960000D02*
X169400000Y-87952500D01*
X159200000Y-77752500D02*
X159200000Y-45500000D01*
X169400000Y-87952500D02*
X159200000Y-77752500D01*
%TD*%
%TA.AperFunction,Conductor*%
%TO.N,GND*%
G36*
X177442539Y-19520185D02*
G01*
X177488294Y-19572989D01*
X177499500Y-19624500D01*
X177499500Y-100875500D01*
X177479815Y-100942539D01*
X177427011Y-100988294D01*
X177375500Y-100999500D01*
X23124500Y-100999500D01*
X23057461Y-100979815D01*
X23011706Y-100927011D01*
X23000500Y-100875500D01*
X23000500Y-92848549D01*
X28299500Y-92848549D01*
X28299500Y-93071450D01*
X28299501Y-93071466D01*
X28328594Y-93292452D01*
X28328595Y-93292457D01*
X28328596Y-93292463D01*
X28328597Y-93292465D01*
X28386290Y-93507780D01*
X28386293Y-93507790D01*
X28471593Y-93713722D01*
X28471595Y-93713726D01*
X28583052Y-93906774D01*
X28583057Y-93906780D01*
X28583058Y-93906782D01*
X28718751Y-94083622D01*
X28718757Y-94083629D01*
X28876370Y-94241242D01*
X28876376Y-94241247D01*
X29053226Y-94376948D01*
X29246274Y-94488405D01*
X29452219Y-94573710D01*
X29667537Y-94631404D01*
X29888543Y-94660500D01*
X29888550Y-94660500D01*
X30111450Y-94660500D01*
X30111457Y-94660500D01*
X30332463Y-94631404D01*
X30547781Y-94573710D01*
X30753726Y-94488405D01*
X30946774Y-94376948D01*
X31123624Y-94241247D01*
X31281247Y-94083624D01*
X31416948Y-93906774D01*
X31528405Y-93713726D01*
X31613710Y-93507781D01*
X31671404Y-93292463D01*
X31700500Y-93071457D01*
X31700500Y-92848543D01*
X31671404Y-92627537D01*
X31613710Y-92412219D01*
X31528405Y-92206274D01*
X31416948Y-92013226D01*
X31281247Y-91836376D01*
X31281242Y-91836370D01*
X31123629Y-91678757D01*
X31123622Y-91678751D01*
X30946782Y-91543058D01*
X30946780Y-91543057D01*
X30946774Y-91543052D01*
X30753726Y-91431595D01*
X30753724Y-91431594D01*
X30753722Y-91431593D01*
X30547790Y-91346293D01*
X30547783Y-91346291D01*
X30547781Y-91346290D01*
X30332463Y-91288596D01*
X30332457Y-91288595D01*
X30332452Y-91288594D01*
X30111466Y-91259501D01*
X30111463Y-91259500D01*
X30111457Y-91259500D01*
X29888543Y-91259500D01*
X29888537Y-91259500D01*
X29888533Y-91259501D01*
X29667547Y-91288594D01*
X29667540Y-91288595D01*
X29667537Y-91288596D01*
X29663432Y-91289696D01*
X29452219Y-91346290D01*
X29452209Y-91346293D01*
X29246277Y-91431593D01*
X29246273Y-91431595D01*
X29053226Y-91543052D01*
X29053217Y-91543058D01*
X28876377Y-91678751D01*
X28876370Y-91678757D01*
X28718757Y-91836370D01*
X28718751Y-91836377D01*
X28583058Y-92013217D01*
X28583052Y-92013226D01*
X28471595Y-92206273D01*
X28471593Y-92206277D01*
X28386293Y-92412209D01*
X28386290Y-92412219D01*
X28328597Y-92627534D01*
X28328594Y-92627547D01*
X28299501Y-92848533D01*
X28299500Y-92848549D01*
X23000500Y-92848549D01*
X23000500Y-82062135D01*
X28649500Y-82062135D01*
X28649500Y-83857870D01*
X28649501Y-83857876D01*
X28655908Y-83917483D01*
X28706202Y-84052328D01*
X28706206Y-84052335D01*
X28792452Y-84167544D01*
X28792455Y-84167547D01*
X28907664Y-84253793D01*
X28907671Y-84253797D01*
X28925643Y-84260500D01*
X29042517Y-84304091D01*
X29102127Y-84310500D01*
X29112685Y-84310499D01*
X29179723Y-84330179D01*
X29200372Y-84346818D01*
X29870591Y-85017037D01*
X29807007Y-85034075D01*
X29692993Y-85099901D01*
X29599901Y-85192993D01*
X29534075Y-85307007D01*
X29517037Y-85370591D01*
X28884728Y-84738282D01*
X28884727Y-84738282D01*
X28845380Y-84792439D01*
X28748904Y-84981782D01*
X28683242Y-85183869D01*
X28683242Y-85183872D01*
X28650000Y-85393753D01*
X28650000Y-85606246D01*
X28683242Y-85816127D01*
X28683242Y-85816130D01*
X28748904Y-86018217D01*
X28845375Y-86207550D01*
X28884728Y-86261716D01*
X29517037Y-85629408D01*
X29534075Y-85692993D01*
X29599901Y-85807007D01*
X29692993Y-85900099D01*
X29807007Y-85965925D01*
X29870590Y-85982962D01*
X29238282Y-86615269D01*
X29238282Y-86615270D01*
X29292449Y-86654624D01*
X29481782Y-86751095D01*
X29683870Y-86816757D01*
X29893754Y-86850000D01*
X30106246Y-86850000D01*
X30316127Y-86816757D01*
X30316130Y-86816757D01*
X30518217Y-86751095D01*
X30707554Y-86654622D01*
X30761716Y-86615270D01*
X30761717Y-86615270D01*
X30129408Y-85982962D01*
X30192993Y-85965925D01*
X30307007Y-85900099D01*
X30400099Y-85807007D01*
X30465925Y-85692993D01*
X30482962Y-85629408D01*
X31115270Y-86261717D01*
X31115270Y-86261716D01*
X31154622Y-86207554D01*
X31251095Y-86018217D01*
X31316757Y-85816130D01*
X31316757Y-85816127D01*
X31338439Y-85679240D01*
X31350000Y-85606246D01*
X31350000Y-85393753D01*
X31316757Y-85183872D01*
X31316757Y-85183869D01*
X31251095Y-84981782D01*
X31154624Y-84792449D01*
X31115270Y-84738282D01*
X31115269Y-84738282D01*
X30482962Y-85370590D01*
X30465925Y-85307007D01*
X30400099Y-85192993D01*
X30307007Y-85099901D01*
X30192993Y-85034075D01*
X30129409Y-85017037D01*
X30799627Y-84346818D01*
X30860950Y-84313333D01*
X30887307Y-84310499D01*
X30897872Y-84310499D01*
X30957483Y-84304091D01*
X31092331Y-84253796D01*
X31207546Y-84167546D01*
X31293796Y-84052331D01*
X31344091Y-83917483D01*
X31350500Y-83857873D01*
X31350499Y-82857682D01*
X35200000Y-82857682D01*
X35200000Y-83062317D01*
X35232009Y-83264417D01*
X35295244Y-83459031D01*
X35388141Y-83641350D01*
X35388147Y-83641359D01*
X35420523Y-83685921D01*
X35420524Y-83685922D01*
X36100000Y-83006446D01*
X36100000Y-83012661D01*
X36127259Y-83114394D01*
X36179920Y-83205606D01*
X36254394Y-83280080D01*
X36345606Y-83332741D01*
X36447339Y-83360000D01*
X36453553Y-83360000D01*
X35774076Y-84039474D01*
X35818650Y-84071859D01*
X36000968Y-84164755D01*
X36195582Y-84227990D01*
X36397683Y-84260000D01*
X36602317Y-84260000D01*
X36804417Y-84227990D01*
X36999031Y-84164755D01*
X37181349Y-84071859D01*
X37225921Y-84039474D01*
X36546447Y-83360000D01*
X36552661Y-83360000D01*
X36654394Y-83332741D01*
X36745606Y-83280080D01*
X36820080Y-83205606D01*
X36872741Y-83114394D01*
X36900000Y-83012661D01*
X36900000Y-83006447D01*
X37579474Y-83685921D01*
X37611859Y-83641349D01*
X37704755Y-83459031D01*
X37767990Y-83264417D01*
X37800000Y-83062317D01*
X37800000Y-82857682D01*
X37799995Y-82857648D01*
X45359500Y-82857648D01*
X45359500Y-83062351D01*
X45391522Y-83264534D01*
X45454781Y-83459223D01*
X45518691Y-83584653D01*
X45547585Y-83641359D01*
X45547715Y-83641613D01*
X45668028Y-83807213D01*
X45812786Y-83951971D01*
X45950928Y-84052335D01*
X45978390Y-84072287D01*
X46094607Y-84131503D01*
X46160776Y-84165218D01*
X46160778Y-84165218D01*
X46160781Y-84165220D01*
X46265137Y-84199127D01*
X46355465Y-84228477D01*
X46456557Y-84244488D01*
X46557648Y-84260500D01*
X46557649Y-84260500D01*
X46762351Y-84260500D01*
X46762352Y-84260500D01*
X46964534Y-84228477D01*
X47159219Y-84165220D01*
X47341610Y-84072287D01*
X47434590Y-84004732D01*
X47507213Y-83951971D01*
X47507215Y-83951968D01*
X47507219Y-83951966D01*
X47651966Y-83807219D01*
X47651968Y-83807215D01*
X47651971Y-83807213D01*
X47704732Y-83734590D01*
X47772287Y-83641610D01*
X47865220Y-83459219D01*
X47928477Y-83264534D01*
X47960500Y-83062352D01*
X47960500Y-82857648D01*
X47941538Y-82737930D01*
X47928477Y-82655465D01*
X47897372Y-82559735D01*
X47865220Y-82460781D01*
X47865218Y-82460778D01*
X47865218Y-82460776D01*
X47772419Y-82278650D01*
X47772287Y-82278390D01*
X47740092Y-82234077D01*
X47651971Y-82112786D01*
X47507213Y-81968028D01*
X47341613Y-81847715D01*
X47341612Y-81847714D01*
X47341610Y-81847713D01*
X47284653Y-81818691D01*
X47159223Y-81754781D01*
X46964534Y-81691522D01*
X46789995Y-81663878D01*
X46762352Y-81659500D01*
X46557648Y-81659500D01*
X46533329Y-81663351D01*
X46355465Y-81691522D01*
X46160776Y-81754781D01*
X45978386Y-81847715D01*
X45812786Y-81968028D01*
X45668028Y-82112786D01*
X45547715Y-82278386D01*
X45454781Y-82460776D01*
X45391522Y-82655465D01*
X45359500Y-82857648D01*
X37799995Y-82857648D01*
X37767990Y-82655582D01*
X37704755Y-82460968D01*
X37611859Y-82278650D01*
X37579474Y-82234077D01*
X37579474Y-82234076D01*
X36900000Y-82913551D01*
X36900000Y-82907339D01*
X36872741Y-82805606D01*
X36820080Y-82714394D01*
X36745606Y-82639920D01*
X36654394Y-82587259D01*
X36552661Y-82560000D01*
X36546446Y-82560000D01*
X37225922Y-81880524D01*
X37225921Y-81880523D01*
X37181359Y-81848147D01*
X37181350Y-81848141D01*
X36999031Y-81755244D01*
X36804417Y-81692009D01*
X36602317Y-81660000D01*
X36397683Y-81660000D01*
X36195582Y-81692009D01*
X36000968Y-81755244D01*
X35818644Y-81848143D01*
X35774077Y-81880523D01*
X35774077Y-81880524D01*
X36453554Y-82560000D01*
X36447339Y-82560000D01*
X36345606Y-82587259D01*
X36254394Y-82639920D01*
X36179920Y-82714394D01*
X36127259Y-82805606D01*
X36100000Y-82907339D01*
X36100000Y-82913553D01*
X35420524Y-82234077D01*
X35420523Y-82234077D01*
X35388143Y-82278644D01*
X35295244Y-82460968D01*
X35232009Y-82655582D01*
X35200000Y-82857682D01*
X31350499Y-82857682D01*
X31350499Y-82062128D01*
X31344091Y-82002517D01*
X31298591Y-81880524D01*
X31293798Y-81867673D01*
X31293793Y-81867664D01*
X31207547Y-81752455D01*
X31207544Y-81752452D01*
X31092335Y-81666206D01*
X31092328Y-81666202D01*
X30957482Y-81615908D01*
X30957483Y-81615908D01*
X30897883Y-81609501D01*
X30897881Y-81609500D01*
X30897873Y-81609500D01*
X30897864Y-81609500D01*
X29102129Y-81609500D01*
X29102123Y-81609501D01*
X29042516Y-81615908D01*
X28907671Y-81666202D01*
X28907664Y-81666206D01*
X28792455Y-81752452D01*
X28792452Y-81752455D01*
X28706206Y-81867664D01*
X28706202Y-81867671D01*
X28655908Y-82002517D01*
X28649501Y-82062116D01*
X28649501Y-82062123D01*
X28649500Y-82062135D01*
X23000500Y-82062135D01*
X23000500Y-79419635D01*
X53999500Y-79419635D01*
X53999500Y-81420370D01*
X53999501Y-81420376D01*
X54005908Y-81479983D01*
X54056202Y-81614828D01*
X54056205Y-81614833D01*
X54056848Y-81615692D01*
X54057222Y-81616695D01*
X54060454Y-81622614D01*
X54059602Y-81623078D01*
X54081263Y-81681157D01*
X54066410Y-81749429D01*
X54056848Y-81764308D01*
X54056205Y-81765166D01*
X54056202Y-81765171D01*
X54005908Y-81900017D01*
X53999501Y-81959616D01*
X53999501Y-81959623D01*
X53999500Y-81959635D01*
X53999500Y-83960370D01*
X53999501Y-83960376D01*
X54005908Y-84019983D01*
X54056202Y-84154828D01*
X54056205Y-84154833D01*
X54057161Y-84156110D01*
X54057717Y-84157603D01*
X54060454Y-84162614D01*
X54059733Y-84163007D01*
X54081575Y-84221575D01*
X54066721Y-84289848D01*
X54057164Y-84304719D01*
X54056649Y-84305406D01*
X54056645Y-84305413D01*
X54006403Y-84440120D01*
X54006401Y-84440127D01*
X54000000Y-84499655D01*
X54000000Y-85250000D01*
X55009252Y-85250000D01*
X54987482Y-85287708D01*
X54950000Y-85427591D01*
X54950000Y-85572409D01*
X54987482Y-85712292D01*
X55009252Y-85750000D01*
X54000000Y-85750000D01*
X54000000Y-86500344D01*
X54006401Y-86559872D01*
X54006403Y-86559879D01*
X54056645Y-86694586D01*
X54056649Y-86694593D01*
X54142809Y-86809687D01*
X54142812Y-86809690D01*
X54257906Y-86895850D01*
X54257913Y-86895854D01*
X54392620Y-86946096D01*
X54392627Y-86946098D01*
X54452155Y-86952499D01*
X54452172Y-86952500D01*
X55250000Y-86952500D01*
X55250000Y-85990747D01*
X55287708Y-86012518D01*
X55427591Y-86050000D01*
X55572409Y-86050000D01*
X55712292Y-86012518D01*
X55750000Y-85990747D01*
X55750000Y-86952500D01*
X56547828Y-86952500D01*
X56547844Y-86952499D01*
X56607372Y-86946098D01*
X56607379Y-86946096D01*
X56742086Y-86895854D01*
X56742093Y-86895850D01*
X56857187Y-86809690D01*
X56857190Y-86809687D01*
X56943350Y-86694593D01*
X56943354Y-86694586D01*
X56993596Y-86559879D01*
X56993598Y-86559872D01*
X56999999Y-86500344D01*
X57000000Y-86500327D01*
X57000000Y-85750000D01*
X55990748Y-85750000D01*
X56012518Y-85712292D01*
X56050000Y-85572409D01*
X56050000Y-85427591D01*
X56012518Y-85287708D01*
X55990748Y-85250000D01*
X57000000Y-85250000D01*
X57000000Y-84499672D01*
X56999999Y-84499655D01*
X56993598Y-84440127D01*
X56993596Y-84440120D01*
X56943354Y-84305413D01*
X56943350Y-84305406D01*
X56942841Y-84304726D01*
X56942543Y-84303929D01*
X56939103Y-84297628D01*
X56940009Y-84297133D01*
X56918424Y-84239262D01*
X56933276Y-84170989D01*
X56942843Y-84156102D01*
X56943796Y-84154831D01*
X56994091Y-84019983D01*
X57000500Y-83960373D01*
X57000499Y-81959628D01*
X56994091Y-81900017D01*
X56986821Y-81880524D01*
X56943798Y-81765173D01*
X56943796Y-81765171D01*
X56943796Y-81765169D01*
X56943154Y-81764312D01*
X56942781Y-81763311D01*
X56939548Y-81757391D01*
X56940399Y-81756926D01*
X56918735Y-81698853D01*
X56933583Y-81630579D01*
X56943151Y-81615692D01*
X56943796Y-81614831D01*
X56994091Y-81479983D01*
X57000500Y-81420373D01*
X57000499Y-79419628D01*
X56994091Y-79360017D01*
X56943796Y-79225169D01*
X56943795Y-79225168D01*
X56943793Y-79225164D01*
X56857547Y-79109955D01*
X56857544Y-79109952D01*
X56742335Y-79023706D01*
X56742328Y-79023702D01*
X56607482Y-78973408D01*
X56607483Y-78973408D01*
X56547883Y-78967001D01*
X56547881Y-78967000D01*
X56547873Y-78967000D01*
X56547864Y-78967000D01*
X54452129Y-78967000D01*
X54452123Y-78967001D01*
X54392516Y-78973408D01*
X54257671Y-79023702D01*
X54257664Y-79023706D01*
X54142455Y-79109952D01*
X54142452Y-79109955D01*
X54056206Y-79225164D01*
X54056202Y-79225171D01*
X54005908Y-79360017D01*
X53999501Y-79419616D01*
X53999501Y-79419623D01*
X53999500Y-79419635D01*
X23000500Y-79419635D01*
X23000500Y-70848549D01*
X28299500Y-70848549D01*
X28299500Y-71071450D01*
X28299501Y-71071466D01*
X28328594Y-71292452D01*
X28328595Y-71292457D01*
X28328596Y-71292463D01*
X28328597Y-71292465D01*
X28386290Y-71507780D01*
X28386293Y-71507790D01*
X28471593Y-71713722D01*
X28471595Y-71713726D01*
X28583052Y-71906774D01*
X28583057Y-71906780D01*
X28583058Y-71906782D01*
X28718751Y-72083622D01*
X28718757Y-72083629D01*
X28876370Y-72241242D01*
X28876376Y-72241247D01*
X29053226Y-72376948D01*
X29246274Y-72488405D01*
X29452219Y-72573710D01*
X29667537Y-72631404D01*
X29888543Y-72660500D01*
X29888550Y-72660500D01*
X30111450Y-72660500D01*
X30111457Y-72660500D01*
X30332463Y-72631404D01*
X30547781Y-72573710D01*
X30753726Y-72488405D01*
X30946774Y-72376948D01*
X31123624Y-72241247D01*
X31281247Y-72083624D01*
X31416948Y-71906774D01*
X31528405Y-71713726D01*
X31613710Y-71507781D01*
X31671404Y-71292463D01*
X31700500Y-71071457D01*
X31700500Y-70848543D01*
X31671404Y-70627537D01*
X31613710Y-70412219D01*
X31528405Y-70206274D01*
X31416948Y-70013226D01*
X31352102Y-69928716D01*
X31281248Y-69836377D01*
X31281242Y-69836370D01*
X31123629Y-69678757D01*
X31123622Y-69678751D01*
X30946782Y-69543058D01*
X30946780Y-69543057D01*
X30946774Y-69543052D01*
X30753726Y-69431595D01*
X30753722Y-69431593D01*
X30547790Y-69346293D01*
X30547783Y-69346291D01*
X30547781Y-69346290D01*
X30332463Y-69288596D01*
X30332457Y-69288595D01*
X30332452Y-69288594D01*
X30111466Y-69259501D01*
X30111463Y-69259500D01*
X30111457Y-69259500D01*
X29888543Y-69259500D01*
X29888537Y-69259500D01*
X29888533Y-69259501D01*
X29667547Y-69288594D01*
X29667540Y-69288595D01*
X29667537Y-69288596D01*
X29582935Y-69311265D01*
X29452219Y-69346290D01*
X29452209Y-69346293D01*
X29246277Y-69431593D01*
X29246273Y-69431595D01*
X29053226Y-69543052D01*
X29053217Y-69543058D01*
X28876377Y-69678751D01*
X28876370Y-69678757D01*
X28718757Y-69836370D01*
X28718751Y-69836377D01*
X28583058Y-70013217D01*
X28583052Y-70013226D01*
X28471595Y-70206273D01*
X28471593Y-70206277D01*
X28386293Y-70412209D01*
X28386290Y-70412219D01*
X28328597Y-70627534D01*
X28328594Y-70627547D01*
X28299501Y-70848533D01*
X28299500Y-70848549D01*
X23000500Y-70848549D01*
X23000500Y-60062135D01*
X28649500Y-60062135D01*
X28649500Y-61857870D01*
X28649501Y-61857876D01*
X28655908Y-61917483D01*
X28706202Y-62052328D01*
X28706206Y-62052335D01*
X28792452Y-62167544D01*
X28792455Y-62167547D01*
X28907664Y-62253793D01*
X28907671Y-62253797D01*
X28925643Y-62260500D01*
X29042517Y-62304091D01*
X29102127Y-62310500D01*
X29112685Y-62310499D01*
X29179723Y-62330179D01*
X29200372Y-62346818D01*
X29870591Y-63017037D01*
X29807007Y-63034075D01*
X29692993Y-63099901D01*
X29599901Y-63192993D01*
X29534075Y-63307007D01*
X29517037Y-63370591D01*
X28884728Y-62738282D01*
X28884727Y-62738282D01*
X28845380Y-62792439D01*
X28748904Y-62981782D01*
X28683242Y-63183869D01*
X28683242Y-63183872D01*
X28650000Y-63393753D01*
X28650000Y-63606246D01*
X28683242Y-63816127D01*
X28683242Y-63816130D01*
X28748904Y-64018217D01*
X28845375Y-64207550D01*
X28884728Y-64261716D01*
X29517037Y-63629408D01*
X29534075Y-63692993D01*
X29599901Y-63807007D01*
X29692993Y-63900099D01*
X29807007Y-63965925D01*
X29870590Y-63982962D01*
X29238282Y-64615269D01*
X29238282Y-64615270D01*
X29292449Y-64654624D01*
X29481782Y-64751095D01*
X29683870Y-64816757D01*
X29893754Y-64850000D01*
X30106246Y-64850000D01*
X30316127Y-64816757D01*
X30316130Y-64816757D01*
X30518217Y-64751095D01*
X30707554Y-64654622D01*
X30761716Y-64615270D01*
X30761717Y-64615270D01*
X30129408Y-63982962D01*
X30192993Y-63965925D01*
X30307007Y-63900099D01*
X30400099Y-63807007D01*
X30465925Y-63692993D01*
X30482962Y-63629408D01*
X31115270Y-64261717D01*
X31115270Y-64261716D01*
X31154622Y-64207554D01*
X31251095Y-64018217D01*
X31316757Y-63816130D01*
X31316757Y-63816127D01*
X31338439Y-63679240D01*
X31350000Y-63606246D01*
X31350000Y-63393753D01*
X31316757Y-63183872D01*
X31316757Y-63183869D01*
X31251095Y-62981782D01*
X31154624Y-62792449D01*
X31115270Y-62738282D01*
X31115269Y-62738282D01*
X30482962Y-63370590D01*
X30465925Y-63307007D01*
X30400099Y-63192993D01*
X30307007Y-63099901D01*
X30192993Y-63034075D01*
X30129409Y-63017037D01*
X30799627Y-62346818D01*
X30860950Y-62313333D01*
X30887307Y-62310499D01*
X30897872Y-62310499D01*
X30957483Y-62304091D01*
X31092331Y-62253796D01*
X31207546Y-62167546D01*
X31293796Y-62052331D01*
X31344091Y-61917483D01*
X31350500Y-61857873D01*
X31350499Y-60857682D01*
X35200000Y-60857682D01*
X35200000Y-61062317D01*
X35232009Y-61264417D01*
X35295244Y-61459031D01*
X35388141Y-61641350D01*
X35388147Y-61641359D01*
X35420523Y-61685921D01*
X35420524Y-61685922D01*
X36100000Y-61006446D01*
X36100000Y-61012661D01*
X36127259Y-61114394D01*
X36179920Y-61205606D01*
X36254394Y-61280080D01*
X36345606Y-61332741D01*
X36447339Y-61360000D01*
X36453553Y-61360000D01*
X35774076Y-62039474D01*
X35818650Y-62071859D01*
X36000968Y-62164755D01*
X36195582Y-62227990D01*
X36397683Y-62260000D01*
X36602317Y-62260000D01*
X36804417Y-62227990D01*
X36999031Y-62164755D01*
X37181349Y-62071859D01*
X37225921Y-62039474D01*
X36546447Y-61360000D01*
X36552661Y-61360000D01*
X36654394Y-61332741D01*
X36745606Y-61280080D01*
X36820080Y-61205606D01*
X36872741Y-61114394D01*
X36900000Y-61012661D01*
X36900000Y-61006447D01*
X37579474Y-61685921D01*
X37611859Y-61641349D01*
X37704755Y-61459031D01*
X37767990Y-61264417D01*
X37800000Y-61062317D01*
X37800000Y-60857682D01*
X37799995Y-60857648D01*
X45359500Y-60857648D01*
X45359500Y-61062351D01*
X45391522Y-61264534D01*
X45454781Y-61459223D01*
X45496979Y-61542040D01*
X45547585Y-61641359D01*
X45547715Y-61641613D01*
X45668028Y-61807213D01*
X45812786Y-61951971D01*
X45950928Y-62052335D01*
X45978390Y-62072287D01*
X46066062Y-62116958D01*
X46160776Y-62165218D01*
X46160778Y-62165218D01*
X46160781Y-62165220D01*
X46218571Y-62183997D01*
X46355465Y-62228477D01*
X46456557Y-62244488D01*
X46557648Y-62260500D01*
X46557649Y-62260500D01*
X46762351Y-62260500D01*
X46762352Y-62260500D01*
X46964534Y-62228477D01*
X47159219Y-62165220D01*
X47341610Y-62072287D01*
X47434590Y-62004732D01*
X47507213Y-61951971D01*
X47507215Y-61951968D01*
X47507219Y-61951966D01*
X47651966Y-61807219D01*
X47651968Y-61807215D01*
X47651971Y-61807213D01*
X47704732Y-61734590D01*
X47772287Y-61641610D01*
X47865220Y-61459219D01*
X47928477Y-61264534D01*
X47960500Y-61062352D01*
X47960500Y-60857648D01*
X47945177Y-60760903D01*
X47928477Y-60655465D01*
X47881244Y-60510097D01*
X47865220Y-60460781D01*
X47865218Y-60460778D01*
X47865218Y-60460776D01*
X47816397Y-60364961D01*
X47772287Y-60278390D01*
X47740092Y-60234077D01*
X47651971Y-60112786D01*
X47507213Y-59968028D01*
X47341613Y-59847715D01*
X47341612Y-59847714D01*
X47341610Y-59847713D01*
X47284653Y-59818691D01*
X47159223Y-59754781D01*
X46964534Y-59691522D01*
X46789995Y-59663878D01*
X46762352Y-59659500D01*
X46557648Y-59659500D01*
X46533329Y-59663351D01*
X46355465Y-59691522D01*
X46160776Y-59754781D01*
X45978386Y-59847715D01*
X45812786Y-59968028D01*
X45668028Y-60112786D01*
X45547715Y-60278386D01*
X45454781Y-60460776D01*
X45391522Y-60655465D01*
X45359500Y-60857648D01*
X37799995Y-60857648D01*
X37767990Y-60655582D01*
X37704755Y-60460968D01*
X37611859Y-60278650D01*
X37579474Y-60234077D01*
X37579474Y-60234076D01*
X36900000Y-60913551D01*
X36900000Y-60907339D01*
X36872741Y-60805606D01*
X36820080Y-60714394D01*
X36745606Y-60639920D01*
X36654394Y-60587259D01*
X36552661Y-60560000D01*
X36546446Y-60560000D01*
X37225922Y-59880524D01*
X37225921Y-59880523D01*
X37181359Y-59848147D01*
X37181350Y-59848141D01*
X36999031Y-59755244D01*
X36804417Y-59692009D01*
X36602317Y-59660000D01*
X36397683Y-59660000D01*
X36195582Y-59692009D01*
X36000968Y-59755244D01*
X35818644Y-59848143D01*
X35774077Y-59880523D01*
X35774077Y-59880524D01*
X36453554Y-60560000D01*
X36447339Y-60560000D01*
X36345606Y-60587259D01*
X36254394Y-60639920D01*
X36179920Y-60714394D01*
X36127259Y-60805606D01*
X36100000Y-60907339D01*
X36100000Y-60913553D01*
X35420524Y-60234077D01*
X35420523Y-60234077D01*
X35388143Y-60278644D01*
X35295244Y-60460968D01*
X35232009Y-60655582D01*
X35200000Y-60857682D01*
X31350499Y-60857682D01*
X31350499Y-60062128D01*
X31344091Y-60002517D01*
X31298591Y-59880524D01*
X31293798Y-59867673D01*
X31293793Y-59867664D01*
X31207547Y-59752455D01*
X31207544Y-59752452D01*
X31092335Y-59666206D01*
X31092328Y-59666202D01*
X30957482Y-59615908D01*
X30957483Y-59615908D01*
X30897883Y-59609501D01*
X30897881Y-59609500D01*
X30897873Y-59609500D01*
X30897864Y-59609500D01*
X29102129Y-59609500D01*
X29102123Y-59609501D01*
X29042516Y-59615908D01*
X28907671Y-59666202D01*
X28907664Y-59666206D01*
X28792455Y-59752452D01*
X28792452Y-59752455D01*
X28706206Y-59867664D01*
X28706202Y-59867671D01*
X28655908Y-60002517D01*
X28649501Y-60062116D01*
X28649501Y-60062123D01*
X28649500Y-60062135D01*
X23000500Y-60062135D01*
X23000500Y-44102135D01*
X38869500Y-44102135D01*
X38869500Y-45897870D01*
X38869501Y-45897876D01*
X38875908Y-45957483D01*
X38926202Y-46092328D01*
X38926206Y-46092335D01*
X39012452Y-46207544D01*
X39012455Y-46207547D01*
X39127664Y-46293793D01*
X39127671Y-46293797D01*
X39262517Y-46344091D01*
X39262516Y-46344091D01*
X39269444Y-46344835D01*
X39322127Y-46350500D01*
X40669902Y-46350499D01*
X40736941Y-46370184D01*
X40757583Y-46386818D01*
X43235139Y-48864374D01*
X43235149Y-48864385D01*
X43239479Y-48868715D01*
X43239480Y-48868716D01*
X43351284Y-48980520D01*
X43351286Y-48980521D01*
X43351290Y-48980524D01*
X43488209Y-49059573D01*
X43488216Y-49059577D01*
X43600019Y-49089534D01*
X43640942Y-49100500D01*
X43640943Y-49100500D01*
X54420234Y-49100500D01*
X54487273Y-49120185D01*
X54489125Y-49121398D01*
X54620814Y-49209390D01*
X54620827Y-49209397D01*
X54766498Y-49269735D01*
X54766503Y-49269737D01*
X54921153Y-49300499D01*
X54921156Y-49300500D01*
X54921158Y-49300500D01*
X55078844Y-49300500D01*
X55078845Y-49300499D01*
X55233497Y-49269737D01*
X55379179Y-49209394D01*
X55510289Y-49121789D01*
X55621789Y-49010289D01*
X55709394Y-48879179D01*
X55769737Y-48733497D01*
X55800500Y-48578842D01*
X55800500Y-48421158D01*
X55800500Y-48421155D01*
X55800499Y-48421153D01*
X55769737Y-48266503D01*
X55769735Y-48266498D01*
X55709397Y-48120827D01*
X55709390Y-48120814D01*
X55621789Y-47989711D01*
X55621786Y-47989707D01*
X55510292Y-47878213D01*
X55510288Y-47878210D01*
X55379185Y-47790609D01*
X55379172Y-47790602D01*
X55233501Y-47730264D01*
X55233489Y-47730261D01*
X55078845Y-47699500D01*
X55078842Y-47699500D01*
X54921158Y-47699500D01*
X54921155Y-47699500D01*
X54766510Y-47730261D01*
X54766498Y-47730264D01*
X54620827Y-47790602D01*
X54620814Y-47790609D01*
X54489125Y-47878602D01*
X54422447Y-47899480D01*
X54420234Y-47899500D01*
X44020097Y-47899500D01*
X43953058Y-47879815D01*
X43932416Y-47863181D01*
X42630916Y-46561681D01*
X42597431Y-46500358D01*
X42602415Y-46430666D01*
X42644287Y-46374733D01*
X42709751Y-46350316D01*
X42718597Y-46350000D01*
X42866246Y-46350000D01*
X43076127Y-46316757D01*
X43076130Y-46316757D01*
X43278217Y-46251095D01*
X43467554Y-46154622D01*
X43521716Y-46115270D01*
X43521717Y-46115270D01*
X42889408Y-45482962D01*
X42952993Y-45465925D01*
X43067007Y-45400099D01*
X43160099Y-45307007D01*
X43225925Y-45192993D01*
X43242962Y-45129408D01*
X43875270Y-45761717D01*
X43875270Y-45761716D01*
X43914622Y-45707555D01*
X43919232Y-45698507D01*
X43967205Y-45647709D01*
X44035025Y-45630912D01*
X44101161Y-45653447D01*
X44140204Y-45698504D01*
X44144949Y-45707817D01*
X44269890Y-45879786D01*
X44420213Y-46030109D01*
X44592179Y-46155048D01*
X44592181Y-46155049D01*
X44592184Y-46155051D01*
X44781588Y-46251557D01*
X44983757Y-46317246D01*
X45193713Y-46350500D01*
X45193714Y-46350500D01*
X45406286Y-46350500D01*
X45406287Y-46350500D01*
X45616243Y-46317246D01*
X45818412Y-46251557D01*
X46007816Y-46155051D01*
X46094138Y-46092335D01*
X46179786Y-46030109D01*
X46179788Y-46030106D01*
X46179792Y-46030104D01*
X46330104Y-45879792D01*
X46330106Y-45879788D01*
X46330109Y-45879786D01*
X46455048Y-45707820D01*
X46455047Y-45707820D01*
X46455051Y-45707816D01*
X46459514Y-45699054D01*
X46507488Y-45648259D01*
X46575308Y-45631463D01*
X46641444Y-45653999D01*
X46680486Y-45699056D01*
X46684951Y-45707820D01*
X46809890Y-45879786D01*
X46960213Y-46030109D01*
X47132179Y-46155048D01*
X47132181Y-46155049D01*
X47132184Y-46155051D01*
X47321588Y-46251557D01*
X47523757Y-46317246D01*
X47733713Y-46350500D01*
X47733714Y-46350500D01*
X47946286Y-46350500D01*
X47946287Y-46350500D01*
X48156243Y-46317246D01*
X48358412Y-46251557D01*
X48547816Y-46155051D01*
X48634138Y-46092335D01*
X48719786Y-46030109D01*
X48719788Y-46030106D01*
X48719792Y-46030104D01*
X48870104Y-45879792D01*
X48870106Y-45879788D01*
X48870109Y-45879786D01*
X48955890Y-45761717D01*
X48995051Y-45707816D01*
X48999793Y-45698508D01*
X49047763Y-45647711D01*
X49115583Y-45630911D01*
X49181719Y-45653445D01*
X49220763Y-45698500D01*
X49225373Y-45707547D01*
X49264728Y-45761716D01*
X49897037Y-45129408D01*
X49914075Y-45192993D01*
X49979901Y-45307007D01*
X50072993Y-45400099D01*
X50187007Y-45465925D01*
X50250590Y-45482962D01*
X49618282Y-46115269D01*
X49618282Y-46115270D01*
X49672449Y-46154624D01*
X49861782Y-46251095D01*
X50063870Y-46316757D01*
X50273754Y-46350000D01*
X50486246Y-46350000D01*
X50696127Y-46316757D01*
X50696130Y-46316757D01*
X50898217Y-46251095D01*
X51087554Y-46154622D01*
X51141716Y-46115270D01*
X51141717Y-46115270D01*
X50509408Y-45482962D01*
X50572993Y-45465925D01*
X50687007Y-45400099D01*
X50780099Y-45307007D01*
X50845925Y-45192993D01*
X50862962Y-45129408D01*
X51495270Y-45761717D01*
X51495270Y-45761716D01*
X51534622Y-45707555D01*
X51539232Y-45698507D01*
X51587205Y-45647709D01*
X51655025Y-45630912D01*
X51721161Y-45653447D01*
X51760204Y-45698504D01*
X51764949Y-45707817D01*
X51889890Y-45879786D01*
X52040213Y-46030109D01*
X52212179Y-46155048D01*
X52212181Y-46155049D01*
X52212184Y-46155051D01*
X52401588Y-46251557D01*
X52603757Y-46317246D01*
X52813713Y-46350500D01*
X52813714Y-46350500D01*
X53026286Y-46350500D01*
X53026287Y-46350500D01*
X53236243Y-46317246D01*
X53438412Y-46251557D01*
X53627816Y-46155051D01*
X53714138Y-46092335D01*
X53799786Y-46030109D01*
X53799788Y-46030106D01*
X53799792Y-46030104D01*
X53950104Y-45879792D01*
X53950106Y-45879788D01*
X53950109Y-45879786D01*
X54075048Y-45707820D01*
X54075047Y-45707820D01*
X54075051Y-45707816D01*
X54079514Y-45699054D01*
X54127488Y-45648259D01*
X54195308Y-45631463D01*
X54261444Y-45653999D01*
X54300486Y-45699056D01*
X54304951Y-45707820D01*
X54429890Y-45879786D01*
X54580213Y-46030109D01*
X54752179Y-46155048D01*
X54752181Y-46155049D01*
X54752184Y-46155051D01*
X54941588Y-46251557D01*
X55143757Y-46317246D01*
X55353713Y-46350500D01*
X55353714Y-46350500D01*
X55566286Y-46350500D01*
X55566287Y-46350500D01*
X55776243Y-46317246D01*
X55818523Y-46303507D01*
X55888362Y-46301511D01*
X55944522Y-46333757D01*
X56163181Y-46552416D01*
X56196666Y-46613739D01*
X56199500Y-46640097D01*
X56199500Y-56843000D01*
X56179815Y-56910039D01*
X56127011Y-56955794D01*
X56075500Y-56967000D01*
X54452129Y-56967000D01*
X54452123Y-56967001D01*
X54392516Y-56973408D01*
X54257671Y-57023702D01*
X54257664Y-57023706D01*
X54142455Y-57109952D01*
X54142452Y-57109955D01*
X54056206Y-57225164D01*
X54056202Y-57225171D01*
X54005908Y-57360017D01*
X53999501Y-57419616D01*
X53999501Y-57419623D01*
X53999500Y-57419635D01*
X53999500Y-59420370D01*
X53999501Y-59420376D01*
X54005908Y-59479983D01*
X54056202Y-59614828D01*
X54056205Y-59614833D01*
X54056848Y-59615692D01*
X54057222Y-59616695D01*
X54060454Y-59622614D01*
X54059602Y-59623078D01*
X54081263Y-59681157D01*
X54066410Y-59749429D01*
X54056848Y-59764308D01*
X54056205Y-59765166D01*
X54056202Y-59765171D01*
X54005908Y-59900017D01*
X53999501Y-59959616D01*
X53999501Y-59959623D01*
X53999500Y-59959635D01*
X53999500Y-61960370D01*
X53999501Y-61960376D01*
X54005908Y-62019983D01*
X54056202Y-62154828D01*
X54056205Y-62154833D01*
X54057161Y-62156110D01*
X54057717Y-62157603D01*
X54060454Y-62162614D01*
X54059733Y-62163007D01*
X54081575Y-62221575D01*
X54066721Y-62289848D01*
X54057164Y-62304719D01*
X54056649Y-62305406D01*
X54056645Y-62305413D01*
X54006403Y-62440120D01*
X54006401Y-62440127D01*
X54000000Y-62499655D01*
X54000000Y-63250000D01*
X55009252Y-63250000D01*
X54987482Y-63287708D01*
X54950000Y-63427591D01*
X54950000Y-63572409D01*
X54987482Y-63712292D01*
X55009252Y-63750000D01*
X54000000Y-63750000D01*
X54000000Y-64500344D01*
X54006401Y-64559872D01*
X54006403Y-64559879D01*
X54056645Y-64694586D01*
X54056649Y-64694593D01*
X54142809Y-64809687D01*
X54142812Y-64809690D01*
X54257906Y-64895850D01*
X54257913Y-64895854D01*
X54392620Y-64946096D01*
X54392627Y-64946098D01*
X54452155Y-64952499D01*
X54452172Y-64952500D01*
X55250000Y-64952500D01*
X55250000Y-63990747D01*
X55287708Y-64012518D01*
X55427591Y-64050000D01*
X55572409Y-64050000D01*
X55712292Y-64012518D01*
X55750000Y-63990747D01*
X55750000Y-64952500D01*
X56075500Y-64952500D01*
X56142539Y-64972185D01*
X56188294Y-65024989D01*
X56199500Y-65076500D01*
X56199500Y-69259901D01*
X56179815Y-69326940D01*
X56163181Y-69347582D01*
X56159592Y-69351171D01*
X56098269Y-69384656D01*
X56028577Y-69379672D01*
X56024459Y-69378051D01*
X55947781Y-69346290D01*
X55875565Y-69326940D01*
X55732463Y-69288596D01*
X55732457Y-69288595D01*
X55732452Y-69288594D01*
X55511466Y-69259501D01*
X55511463Y-69259500D01*
X55511457Y-69259500D01*
X55288543Y-69259500D01*
X55288537Y-69259500D01*
X55288533Y-69259501D01*
X55067547Y-69288594D01*
X55067540Y-69288595D01*
X55067537Y-69288596D01*
X54982935Y-69311265D01*
X54852219Y-69346290D01*
X54852209Y-69346293D01*
X54646277Y-69431593D01*
X54646273Y-69431595D01*
X54453226Y-69543052D01*
X54453217Y-69543058D01*
X54276377Y-69678751D01*
X54276370Y-69678757D01*
X54118757Y-69836370D01*
X54118751Y-69836377D01*
X53983058Y-70013217D01*
X53983052Y-70013226D01*
X53871595Y-70206273D01*
X53871593Y-70206277D01*
X53786293Y-70412209D01*
X53786290Y-70412219D01*
X53728597Y-70627534D01*
X53728594Y-70627547D01*
X53699501Y-70848533D01*
X53699500Y-70848549D01*
X53699500Y-71071450D01*
X53699501Y-71071466D01*
X53728594Y-71292452D01*
X53728595Y-71292457D01*
X53728596Y-71292463D01*
X53728597Y-71292465D01*
X53786290Y-71507780D01*
X53786293Y-71507790D01*
X53871593Y-71713722D01*
X53871595Y-71713726D01*
X53983052Y-71906774D01*
X53983057Y-71906780D01*
X53983058Y-71906782D01*
X54118751Y-72083622D01*
X54118757Y-72083629D01*
X54276370Y-72241242D01*
X54276376Y-72241247D01*
X54453226Y-72376948D01*
X54646274Y-72488405D01*
X54852219Y-72573710D01*
X55067537Y-72631404D01*
X55288543Y-72660500D01*
X55288550Y-72660500D01*
X55511450Y-72660500D01*
X55511457Y-72660500D01*
X55732463Y-72631404D01*
X55947781Y-72573710D01*
X56153726Y-72488405D01*
X56346774Y-72376948D01*
X56523624Y-72241247D01*
X56681247Y-72083624D01*
X56816948Y-71906774D01*
X56928405Y-71713726D01*
X57013710Y-71507781D01*
X57071404Y-71292463D01*
X57100500Y-71071457D01*
X57100500Y-70848549D01*
X66299500Y-70848549D01*
X66299500Y-71071450D01*
X66299501Y-71071466D01*
X66328594Y-71292452D01*
X66328595Y-71292457D01*
X66328596Y-71292463D01*
X66328597Y-71292465D01*
X66386290Y-71507780D01*
X66386293Y-71507790D01*
X66471593Y-71713722D01*
X66471595Y-71713726D01*
X66583052Y-71906774D01*
X66583057Y-71906780D01*
X66583058Y-71906782D01*
X66718751Y-72083622D01*
X66718757Y-72083629D01*
X66876370Y-72241242D01*
X66876376Y-72241247D01*
X67053226Y-72376948D01*
X67246274Y-72488405D01*
X67452219Y-72573710D01*
X67667537Y-72631404D01*
X67888543Y-72660500D01*
X67888550Y-72660500D01*
X68111450Y-72660500D01*
X68111457Y-72660500D01*
X68332463Y-72631404D01*
X68547781Y-72573710D01*
X68753726Y-72488405D01*
X68946774Y-72376948D01*
X69123624Y-72241247D01*
X69281247Y-72083624D01*
X69416948Y-71906774D01*
X69528405Y-71713726D01*
X69613710Y-71507781D01*
X69671404Y-71292463D01*
X69700500Y-71071457D01*
X69700500Y-70848543D01*
X69671404Y-70627537D01*
X69613710Y-70412219D01*
X69528405Y-70206274D01*
X69416948Y-70013226D01*
X69352102Y-69928716D01*
X69281248Y-69836377D01*
X69281242Y-69836370D01*
X69123629Y-69678757D01*
X69123622Y-69678751D01*
X68946782Y-69543058D01*
X68946780Y-69543057D01*
X68946774Y-69543052D01*
X68753726Y-69431595D01*
X68753722Y-69431593D01*
X68547790Y-69346293D01*
X68547783Y-69346291D01*
X68547781Y-69346290D01*
X68332463Y-69288596D01*
X68332457Y-69288595D01*
X68332452Y-69288594D01*
X68111466Y-69259501D01*
X68111463Y-69259500D01*
X68111457Y-69259500D01*
X67888543Y-69259500D01*
X67888537Y-69259500D01*
X67888533Y-69259501D01*
X67667547Y-69288594D01*
X67667540Y-69288595D01*
X67667537Y-69288596D01*
X67582935Y-69311265D01*
X67452219Y-69346290D01*
X67452209Y-69346293D01*
X67246277Y-69431593D01*
X67246273Y-69431595D01*
X67053226Y-69543052D01*
X67053217Y-69543058D01*
X66876377Y-69678751D01*
X66876370Y-69678757D01*
X66718757Y-69836370D01*
X66718751Y-69836377D01*
X66583058Y-70013217D01*
X66583052Y-70013226D01*
X66471595Y-70206273D01*
X66471593Y-70206277D01*
X66386293Y-70412209D01*
X66386290Y-70412219D01*
X66328597Y-70627534D01*
X66328594Y-70627547D01*
X66299501Y-70848533D01*
X66299500Y-70848549D01*
X57100500Y-70848549D01*
X57100500Y-70848543D01*
X57071404Y-70627537D01*
X57013710Y-70412219D01*
X56981948Y-70335539D01*
X56974479Y-70266069D01*
X57005754Y-70203590D01*
X57008800Y-70200433D01*
X57158506Y-70050728D01*
X57158511Y-70050724D01*
X57168714Y-70040520D01*
X57168716Y-70040520D01*
X57280520Y-69928716D01*
X57333832Y-69836376D01*
X57359577Y-69791785D01*
X57400501Y-69639057D01*
X57400501Y-69480943D01*
X57400501Y-69473348D01*
X57400500Y-69473330D01*
X57400500Y-46395881D01*
X57420185Y-46328842D01*
X57472989Y-46283087D01*
X57542147Y-46273143D01*
X57562814Y-46277949D01*
X57683757Y-46317246D01*
X57893713Y-46350500D01*
X57893714Y-46350500D01*
X58106286Y-46350500D01*
X58106287Y-46350500D01*
X58316243Y-46317246D01*
X58358523Y-46303507D01*
X58428362Y-46301511D01*
X58484522Y-46333757D01*
X67363181Y-55212416D01*
X67396666Y-55273739D01*
X67399500Y-55300097D01*
X67399500Y-59485500D01*
X67379815Y-59552539D01*
X67327011Y-59598294D01*
X67275501Y-59609500D01*
X67102130Y-59609500D01*
X67102123Y-59609501D01*
X67042516Y-59615908D01*
X66907671Y-59666202D01*
X66907664Y-59666206D01*
X66792455Y-59752452D01*
X66792452Y-59752455D01*
X66706206Y-59867664D01*
X66706202Y-59867671D01*
X66655908Y-60002517D01*
X66649501Y-60062116D01*
X66649501Y-60062123D01*
X66649500Y-60062135D01*
X66649500Y-61857870D01*
X66649501Y-61857876D01*
X66655908Y-61917483D01*
X66706202Y-62052328D01*
X66706206Y-62052335D01*
X66792452Y-62167544D01*
X66792455Y-62167547D01*
X66907664Y-62253793D01*
X66907671Y-62253797D01*
X66925643Y-62260500D01*
X67042517Y-62304091D01*
X67102127Y-62310500D01*
X67112685Y-62310499D01*
X67179723Y-62330179D01*
X67200372Y-62346818D01*
X67870591Y-63017037D01*
X67807007Y-63034075D01*
X67692993Y-63099901D01*
X67599901Y-63192993D01*
X67534075Y-63307007D01*
X67517037Y-63370591D01*
X66884728Y-62738282D01*
X66884727Y-62738282D01*
X66845380Y-62792439D01*
X66748904Y-62981782D01*
X66683242Y-63183869D01*
X66683242Y-63183872D01*
X66650000Y-63393753D01*
X66650000Y-63606246D01*
X66683242Y-63816127D01*
X66683242Y-63816130D01*
X66748904Y-64018217D01*
X66845375Y-64207550D01*
X66884728Y-64261716D01*
X67517037Y-63629408D01*
X67534075Y-63692993D01*
X67599901Y-63807007D01*
X67692993Y-63900099D01*
X67807007Y-63965925D01*
X67870590Y-63982962D01*
X67238282Y-64615269D01*
X67238282Y-64615270D01*
X67292449Y-64654624D01*
X67481782Y-64751095D01*
X67683870Y-64816757D01*
X67893754Y-64850000D01*
X68106246Y-64850000D01*
X68316127Y-64816757D01*
X68316130Y-64816757D01*
X68518217Y-64751095D01*
X68707554Y-64654622D01*
X68761716Y-64615270D01*
X68761717Y-64615270D01*
X68129408Y-63982962D01*
X68192993Y-63965925D01*
X68307007Y-63900099D01*
X68400099Y-63807007D01*
X68465925Y-63692993D01*
X68482962Y-63629408D01*
X69115270Y-64261717D01*
X69115270Y-64261716D01*
X69154622Y-64207554D01*
X69251095Y-64018217D01*
X69316757Y-63816130D01*
X69316757Y-63816127D01*
X69338439Y-63679240D01*
X69350000Y-63606246D01*
X69350000Y-63393753D01*
X69316757Y-63183872D01*
X69316757Y-63183869D01*
X69251095Y-62981782D01*
X69154624Y-62792449D01*
X69115270Y-62738282D01*
X68482962Y-63370590D01*
X68465925Y-63307007D01*
X68400099Y-63192993D01*
X68307007Y-63099901D01*
X68192993Y-63034075D01*
X68129409Y-63017037D01*
X68799627Y-62346818D01*
X68860950Y-62313333D01*
X68887307Y-62310499D01*
X68897872Y-62310499D01*
X68957483Y-62304091D01*
X69092331Y-62253796D01*
X69207546Y-62167546D01*
X69293796Y-62052331D01*
X69344091Y-61917483D01*
X69350500Y-61857873D01*
X69350499Y-60062128D01*
X69344091Y-60002517D01*
X69335810Y-59980315D01*
X69293797Y-59867671D01*
X69293793Y-59867664D01*
X69207547Y-59752455D01*
X69207544Y-59752452D01*
X69092335Y-59666206D01*
X69092328Y-59666202D01*
X68957482Y-59615908D01*
X68957483Y-59615908D01*
X68897883Y-59609501D01*
X68897881Y-59609500D01*
X68897873Y-59609500D01*
X68897865Y-59609500D01*
X68724500Y-59609500D01*
X68657461Y-59589815D01*
X68611706Y-59537011D01*
X68600500Y-59485500D01*
X68600500Y-55089060D01*
X68600501Y-55089047D01*
X68600501Y-54920944D01*
X68600161Y-54919675D01*
X68559577Y-54768216D01*
X68523800Y-54706247D01*
X68480524Y-54631290D01*
X68480518Y-54631282D01*
X60411416Y-46562181D01*
X60377931Y-46500858D01*
X60382915Y-46431166D01*
X60424787Y-46375233D01*
X60490251Y-46350816D01*
X60499097Y-46350500D01*
X60646286Y-46350500D01*
X60646287Y-46350500D01*
X60856243Y-46317246D01*
X60898523Y-46303507D01*
X60968362Y-46301511D01*
X61024522Y-46333757D01*
X74193786Y-59503021D01*
X74227271Y-59564344D01*
X74222287Y-59634036D01*
X74180415Y-59689969D01*
X74144424Y-59708633D01*
X74000968Y-59755244D01*
X73818644Y-59848143D01*
X73774077Y-59880523D01*
X73774077Y-59880524D01*
X74453554Y-60560000D01*
X74447339Y-60560000D01*
X74345606Y-60587259D01*
X74254394Y-60639920D01*
X74179920Y-60714394D01*
X74127259Y-60805606D01*
X74100000Y-60907339D01*
X74100000Y-60913553D01*
X73420524Y-60234077D01*
X73420523Y-60234077D01*
X73388143Y-60278644D01*
X73295244Y-60460968D01*
X73232009Y-60655582D01*
X73200000Y-60857682D01*
X73200000Y-61062317D01*
X73232009Y-61264417D01*
X73295244Y-61459031D01*
X73388141Y-61641350D01*
X73388147Y-61641359D01*
X73420523Y-61685921D01*
X73420524Y-61685922D01*
X74100000Y-61006446D01*
X74100000Y-61012661D01*
X74127259Y-61114394D01*
X74179920Y-61205606D01*
X74254394Y-61280080D01*
X74345606Y-61332741D01*
X74447339Y-61360000D01*
X74453553Y-61360000D01*
X73774076Y-62039474D01*
X73818650Y-62071859D01*
X74000968Y-62164755D01*
X74195582Y-62227990D01*
X74397683Y-62260000D01*
X74602317Y-62260000D01*
X74804417Y-62227990D01*
X74999031Y-62164755D01*
X75181349Y-62071859D01*
X75225922Y-62039474D01*
X74546447Y-61360000D01*
X74552661Y-61360000D01*
X74654394Y-61332741D01*
X74745606Y-61280080D01*
X74820080Y-61205606D01*
X74872741Y-61114394D01*
X74900000Y-61012661D01*
X74900000Y-61006446D01*
X75579474Y-61685921D01*
X75611859Y-61641349D01*
X75704755Y-61459031D01*
X75767990Y-61264417D01*
X75800000Y-61062317D01*
X75800000Y-60857682D01*
X75767990Y-60655582D01*
X75707793Y-60470319D01*
X75705798Y-60400478D01*
X75741878Y-60340645D01*
X75804578Y-60309816D01*
X75825724Y-60308000D01*
X83333750Y-60308000D01*
X83400789Y-60327685D01*
X83446544Y-60380489D01*
X83456488Y-60449647D01*
X83451681Y-60470318D01*
X83391523Y-60655461D01*
X83391523Y-60655464D01*
X83359500Y-60857648D01*
X83359500Y-61062351D01*
X83391522Y-61264534D01*
X83454781Y-61459223D01*
X83496979Y-61542040D01*
X83547585Y-61641359D01*
X83547715Y-61641613D01*
X83668028Y-61807213D01*
X83812786Y-61951971D01*
X83950928Y-62052335D01*
X83978390Y-62072287D01*
X84066062Y-62116958D01*
X84160776Y-62165218D01*
X84160778Y-62165218D01*
X84160781Y-62165220D01*
X84218571Y-62183997D01*
X84355465Y-62228477D01*
X84456557Y-62244488D01*
X84557648Y-62260500D01*
X84557649Y-62260500D01*
X84762351Y-62260500D01*
X84762352Y-62260500D01*
X84964534Y-62228477D01*
X85159219Y-62165220D01*
X85341610Y-62072287D01*
X85434590Y-62004732D01*
X85507213Y-61951971D01*
X85507215Y-61951968D01*
X85507219Y-61951966D01*
X85651966Y-61807219D01*
X85651968Y-61807215D01*
X85651971Y-61807213D01*
X85704732Y-61734590D01*
X85772287Y-61641610D01*
X85865220Y-61459219D01*
X85928477Y-61264534D01*
X85960500Y-61062352D01*
X85960500Y-60857648D01*
X85928477Y-60655466D01*
X85928476Y-60655462D01*
X85928476Y-60655461D01*
X85868319Y-60470318D01*
X85866324Y-60400477D01*
X85902404Y-60340644D01*
X85965105Y-60309816D01*
X85986250Y-60308000D01*
X91875500Y-60308000D01*
X91942539Y-60327685D01*
X91988294Y-60380489D01*
X91999500Y-60432000D01*
X91999500Y-61960370D01*
X91999501Y-61960376D01*
X92005908Y-62019983D01*
X92056202Y-62154828D01*
X92056205Y-62154833D01*
X92057161Y-62156110D01*
X92057717Y-62157603D01*
X92060454Y-62162614D01*
X92059733Y-62163007D01*
X92081575Y-62221575D01*
X92066721Y-62289848D01*
X92057164Y-62304719D01*
X92056649Y-62305406D01*
X92056645Y-62305413D01*
X92006403Y-62440120D01*
X92006401Y-62440127D01*
X92000000Y-62499655D01*
X92000000Y-63250000D01*
X93009252Y-63250000D01*
X92987482Y-63287708D01*
X92950000Y-63427591D01*
X92950000Y-63572409D01*
X92987482Y-63712292D01*
X93009252Y-63750000D01*
X92000000Y-63750000D01*
X92000000Y-64500344D01*
X92006401Y-64559872D01*
X92006403Y-64559879D01*
X92056645Y-64694586D01*
X92056649Y-64694593D01*
X92142809Y-64809687D01*
X92142812Y-64809690D01*
X92257906Y-64895850D01*
X92257913Y-64895854D01*
X92392620Y-64946096D01*
X92392627Y-64946098D01*
X92452155Y-64952499D01*
X92452172Y-64952500D01*
X93250000Y-64952500D01*
X93250000Y-63990747D01*
X93287708Y-64012518D01*
X93427591Y-64050000D01*
X93572409Y-64050000D01*
X93712292Y-64012518D01*
X93750000Y-63990747D01*
X93750000Y-64952500D01*
X94547828Y-64952500D01*
X94547844Y-64952499D01*
X94607372Y-64946098D01*
X94607379Y-64946096D01*
X94742086Y-64895854D01*
X94742093Y-64895850D01*
X94857187Y-64809690D01*
X94857190Y-64809687D01*
X94943350Y-64694593D01*
X94943354Y-64694586D01*
X94993596Y-64559879D01*
X94993598Y-64559873D01*
X94994149Y-64554752D01*
X94994149Y-64554750D01*
X94999999Y-64500344D01*
X95000000Y-64500327D01*
X95000000Y-63750000D01*
X93990748Y-63750000D01*
X94012518Y-63712292D01*
X94050000Y-63572409D01*
X94050000Y-63427591D01*
X94012518Y-63287708D01*
X93990748Y-63250000D01*
X95000000Y-63250000D01*
X95000000Y-62499672D01*
X94999999Y-62499655D01*
X94993598Y-62440127D01*
X94993596Y-62440120D01*
X94943354Y-62305413D01*
X94943350Y-62305406D01*
X94942841Y-62304726D01*
X94942543Y-62303929D01*
X94939103Y-62297628D01*
X94940009Y-62297133D01*
X94918424Y-62239262D01*
X94933276Y-62170989D01*
X94942843Y-62156102D01*
X94943796Y-62154831D01*
X94994091Y-62019983D01*
X95000500Y-61960373D01*
X95000499Y-60431999D01*
X95020184Y-60364961D01*
X95072987Y-60319206D01*
X95124499Y-60308000D01*
X104447403Y-60308000D01*
X104514442Y-60327685D01*
X104535084Y-60344319D01*
X104613181Y-60422416D01*
X104646666Y-60483739D01*
X104649500Y-60510097D01*
X104649500Y-61857870D01*
X104649501Y-61857876D01*
X104655908Y-61917483D01*
X104706202Y-62052328D01*
X104706206Y-62052335D01*
X104792452Y-62167544D01*
X104792455Y-62167547D01*
X104907664Y-62253793D01*
X104907671Y-62253797D01*
X104925643Y-62260500D01*
X105042517Y-62304091D01*
X105102127Y-62310500D01*
X105112685Y-62310499D01*
X105179723Y-62330179D01*
X105200372Y-62346818D01*
X105870591Y-63017037D01*
X105807007Y-63034075D01*
X105692993Y-63099901D01*
X105599901Y-63192993D01*
X105534075Y-63307007D01*
X105517037Y-63370591D01*
X104884728Y-62738282D01*
X104884727Y-62738282D01*
X104845380Y-62792439D01*
X104748904Y-62981782D01*
X104683242Y-63183869D01*
X104683242Y-63183872D01*
X104650000Y-63393753D01*
X104650000Y-63606246D01*
X104683242Y-63816127D01*
X104683242Y-63816130D01*
X104748904Y-64018217D01*
X104845375Y-64207550D01*
X104884728Y-64261716D01*
X105517037Y-63629408D01*
X105534075Y-63692993D01*
X105599901Y-63807007D01*
X105692993Y-63900099D01*
X105807007Y-63965925D01*
X105870590Y-63982962D01*
X105238282Y-64615269D01*
X105238282Y-64615270D01*
X105292449Y-64654624D01*
X105481782Y-64751095D01*
X105683870Y-64816757D01*
X105893754Y-64850000D01*
X106106246Y-64850000D01*
X106316127Y-64816757D01*
X106316130Y-64816757D01*
X106518217Y-64751095D01*
X106707554Y-64654622D01*
X106761716Y-64615270D01*
X106761717Y-64615270D01*
X106129408Y-63982962D01*
X106192993Y-63965925D01*
X106307007Y-63900099D01*
X106400099Y-63807007D01*
X106465925Y-63692993D01*
X106482962Y-63629409D01*
X107115270Y-64261717D01*
X107115270Y-64261716D01*
X107154622Y-64207554D01*
X107251095Y-64018217D01*
X107316757Y-63816130D01*
X107316757Y-63816127D01*
X107338439Y-63679240D01*
X107350000Y-63606246D01*
X107350000Y-63393753D01*
X107316757Y-63183872D01*
X107316757Y-63183869D01*
X107251095Y-62981782D01*
X107154624Y-62792449D01*
X107115270Y-62738282D01*
X106482962Y-63370590D01*
X106465925Y-63307007D01*
X106400099Y-63192993D01*
X106307007Y-63099901D01*
X106192993Y-63034075D01*
X106129409Y-63017037D01*
X106799627Y-62346818D01*
X106860950Y-62313333D01*
X106887307Y-62310499D01*
X106897872Y-62310499D01*
X106957483Y-62304091D01*
X107092331Y-62253796D01*
X107207546Y-62167546D01*
X107293796Y-62052331D01*
X107344091Y-61917483D01*
X107350500Y-61857873D01*
X107350499Y-60857682D01*
X111200000Y-60857682D01*
X111200000Y-61062317D01*
X111232009Y-61264417D01*
X111295244Y-61459031D01*
X111388141Y-61641350D01*
X111388147Y-61641359D01*
X111420523Y-61685921D01*
X111420524Y-61685922D01*
X112100000Y-61006446D01*
X112100000Y-61012661D01*
X112127259Y-61114394D01*
X112179920Y-61205606D01*
X112254394Y-61280080D01*
X112345606Y-61332741D01*
X112447339Y-61360000D01*
X112453553Y-61360000D01*
X111774076Y-62039474D01*
X111818650Y-62071859D01*
X112000968Y-62164755D01*
X112195582Y-62227990D01*
X112397683Y-62260000D01*
X112602317Y-62260000D01*
X112804417Y-62227990D01*
X112999031Y-62164755D01*
X113181349Y-62071859D01*
X113225922Y-62039474D01*
X112546447Y-61360000D01*
X112552661Y-61360000D01*
X112654394Y-61332741D01*
X112745606Y-61280080D01*
X112820080Y-61205606D01*
X112872741Y-61114394D01*
X112900000Y-61012661D01*
X112900000Y-61006447D01*
X113579474Y-61685921D01*
X113611859Y-61641349D01*
X113704755Y-61459031D01*
X113767990Y-61264417D01*
X113800000Y-61062317D01*
X113800000Y-60857682D01*
X113799995Y-60857648D01*
X121359500Y-60857648D01*
X121359500Y-61062351D01*
X121391522Y-61264534D01*
X121454781Y-61459223D01*
X121496979Y-61542040D01*
X121547585Y-61641359D01*
X121547715Y-61641613D01*
X121668028Y-61807213D01*
X121812786Y-61951971D01*
X121950928Y-62052335D01*
X121978390Y-62072287D01*
X122066062Y-62116958D01*
X122160776Y-62165218D01*
X122160778Y-62165218D01*
X122160781Y-62165220D01*
X122218571Y-62183997D01*
X122355465Y-62228477D01*
X122456557Y-62244488D01*
X122557648Y-62260500D01*
X122557649Y-62260500D01*
X122762351Y-62260500D01*
X122762352Y-62260500D01*
X122964534Y-62228477D01*
X123159219Y-62165220D01*
X123341610Y-62072287D01*
X123434590Y-62004732D01*
X123507213Y-61951971D01*
X123507215Y-61951968D01*
X123507219Y-61951966D01*
X123651966Y-61807219D01*
X123651968Y-61807215D01*
X123651971Y-61807213D01*
X123704732Y-61734590D01*
X123772287Y-61641610D01*
X123865220Y-61459219D01*
X123928477Y-61264534D01*
X123960500Y-61062352D01*
X123960500Y-60857648D01*
X123945177Y-60760903D01*
X123928477Y-60655465D01*
X123881244Y-60510097D01*
X123865220Y-60460781D01*
X123865218Y-60460778D01*
X123865218Y-60460776D01*
X123816397Y-60364961D01*
X123772287Y-60278390D01*
X123740092Y-60234077D01*
X123651971Y-60112786D01*
X123507213Y-59968028D01*
X123341613Y-59847715D01*
X123341612Y-59847714D01*
X123341610Y-59847713D01*
X123284653Y-59818691D01*
X123159223Y-59754781D01*
X122964534Y-59691522D01*
X122789995Y-59663878D01*
X122762352Y-59659500D01*
X122557648Y-59659500D01*
X122533329Y-59663351D01*
X122355465Y-59691522D01*
X122160776Y-59754781D01*
X121978386Y-59847715D01*
X121812786Y-59968028D01*
X121668028Y-60112786D01*
X121547715Y-60278386D01*
X121454781Y-60460776D01*
X121391522Y-60655465D01*
X121359500Y-60857648D01*
X113799995Y-60857648D01*
X113767990Y-60655582D01*
X113704755Y-60460968D01*
X113611859Y-60278650D01*
X113579474Y-60234077D01*
X113579474Y-60234076D01*
X112900000Y-60913551D01*
X112900000Y-60907339D01*
X112872741Y-60805606D01*
X112820080Y-60714394D01*
X112745606Y-60639920D01*
X112654394Y-60587259D01*
X112552661Y-60560000D01*
X112546446Y-60560000D01*
X113225922Y-59880524D01*
X113225921Y-59880523D01*
X113181359Y-59848147D01*
X113181350Y-59848141D01*
X112999031Y-59755244D01*
X112804417Y-59692009D01*
X112602317Y-59660000D01*
X112397683Y-59660000D01*
X112195582Y-59692009D01*
X112000968Y-59755244D01*
X111818644Y-59848143D01*
X111774077Y-59880523D01*
X111774077Y-59880524D01*
X112453554Y-60560000D01*
X112447339Y-60560000D01*
X112345606Y-60587259D01*
X112254394Y-60639920D01*
X112179920Y-60714394D01*
X112127259Y-60805606D01*
X112100000Y-60907339D01*
X112100000Y-60913553D01*
X111420524Y-60234077D01*
X111420523Y-60234077D01*
X111388143Y-60278644D01*
X111295244Y-60460968D01*
X111232009Y-60655582D01*
X111200000Y-60857682D01*
X107350499Y-60857682D01*
X107350499Y-60062128D01*
X107344091Y-60002517D01*
X107298591Y-59880524D01*
X107293798Y-59867673D01*
X107293793Y-59867664D01*
X107207547Y-59752455D01*
X107207544Y-59752452D01*
X107092335Y-59666206D01*
X107092328Y-59666202D01*
X106957482Y-59615908D01*
X106957483Y-59615908D01*
X106897883Y-59609501D01*
X106897881Y-59609500D01*
X106897873Y-59609500D01*
X106897865Y-59609500D01*
X105550097Y-59609500D01*
X105483058Y-59589815D01*
X105462416Y-59573181D01*
X105235090Y-59345855D01*
X105235088Y-59345852D01*
X105116217Y-59226981D01*
X105116216Y-59226980D01*
X105029404Y-59176860D01*
X105029404Y-59176859D01*
X105029400Y-59176858D01*
X104979285Y-59147923D01*
X104826557Y-59106999D01*
X104668443Y-59106999D01*
X104660847Y-59106999D01*
X104660831Y-59107000D01*
X95124500Y-59107000D01*
X95057461Y-59087315D01*
X95011706Y-59034511D01*
X95000500Y-58983000D01*
X95000499Y-57724500D01*
X95020184Y-57657461D01*
X95072987Y-57611706D01*
X95124499Y-57600500D01*
X129875500Y-57600500D01*
X129942539Y-57620185D01*
X129988294Y-57672989D01*
X129999500Y-57724500D01*
X129999500Y-59420370D01*
X129999501Y-59420376D01*
X130005908Y-59479983D01*
X130056202Y-59614828D01*
X130056205Y-59614833D01*
X130056848Y-59615692D01*
X130057222Y-59616695D01*
X130060454Y-59622614D01*
X130059602Y-59623078D01*
X130081263Y-59681157D01*
X130066410Y-59749429D01*
X130056848Y-59764308D01*
X130056205Y-59765166D01*
X130056202Y-59765171D01*
X130005908Y-59900017D01*
X129999501Y-59959616D01*
X129999501Y-59959623D01*
X129999500Y-59959635D01*
X129999500Y-61960370D01*
X129999501Y-61960376D01*
X130005908Y-62019983D01*
X130056202Y-62154828D01*
X130056205Y-62154833D01*
X130057161Y-62156110D01*
X130057717Y-62157603D01*
X130060454Y-62162614D01*
X130059733Y-62163007D01*
X130081575Y-62221575D01*
X130066721Y-62289848D01*
X130057164Y-62304719D01*
X130056649Y-62305406D01*
X130056645Y-62305413D01*
X130006403Y-62440120D01*
X130006401Y-62440127D01*
X130000000Y-62499655D01*
X130000000Y-63250000D01*
X131009252Y-63250000D01*
X130987482Y-63287708D01*
X130950000Y-63427591D01*
X130950000Y-63572409D01*
X130987482Y-63712292D01*
X131009252Y-63750000D01*
X130000000Y-63750000D01*
X130000000Y-64500344D01*
X130006401Y-64559872D01*
X130006403Y-64559879D01*
X130056645Y-64694586D01*
X130056649Y-64694593D01*
X130142809Y-64809687D01*
X130142812Y-64809690D01*
X130257906Y-64895850D01*
X130257913Y-64895854D01*
X130392620Y-64946096D01*
X130392627Y-64946098D01*
X130452155Y-64952499D01*
X130452172Y-64952500D01*
X131250000Y-64952500D01*
X131250000Y-63990747D01*
X131287708Y-64012518D01*
X131427591Y-64050000D01*
X131572409Y-64050000D01*
X131712292Y-64012518D01*
X131750000Y-63990747D01*
X131750000Y-64952500D01*
X132547828Y-64952500D01*
X132547844Y-64952499D01*
X132607372Y-64946098D01*
X132607379Y-64946096D01*
X132742086Y-64895854D01*
X132742093Y-64895850D01*
X132857187Y-64809690D01*
X132857190Y-64809687D01*
X132943350Y-64694593D01*
X132943354Y-64694586D01*
X132993596Y-64559879D01*
X132993598Y-64559872D01*
X132999999Y-64500344D01*
X133000000Y-64500327D01*
X133000000Y-63750000D01*
X131990748Y-63750000D01*
X132012518Y-63712292D01*
X132050000Y-63572409D01*
X132050000Y-63427591D01*
X132012518Y-63287708D01*
X131990748Y-63250000D01*
X133000000Y-63250000D01*
X133000000Y-62499672D01*
X132999999Y-62499655D01*
X132993598Y-62440127D01*
X132993596Y-62440120D01*
X132943354Y-62305413D01*
X132943350Y-62305406D01*
X132942841Y-62304726D01*
X132942543Y-62303929D01*
X132939103Y-62297628D01*
X132940009Y-62297133D01*
X132918424Y-62239262D01*
X132933276Y-62170989D01*
X132942843Y-62156102D01*
X132943796Y-62154831D01*
X132994091Y-62019983D01*
X133000500Y-61960373D01*
X133000499Y-59959628D01*
X132994091Y-59900017D01*
X132986821Y-59880524D01*
X132943798Y-59765173D01*
X132943796Y-59765171D01*
X132943796Y-59765169D01*
X132943154Y-59764312D01*
X132942781Y-59763311D01*
X132939548Y-59757391D01*
X132940399Y-59756926D01*
X132918735Y-59698853D01*
X132933583Y-59630579D01*
X132943151Y-59615692D01*
X132943796Y-59614831D01*
X132994091Y-59479983D01*
X133000500Y-59420373D01*
X133000499Y-57724499D01*
X133020184Y-57657461D01*
X133072987Y-57611706D01*
X133124499Y-57600500D01*
X139739903Y-57600500D01*
X139806942Y-57620185D01*
X139827584Y-57636819D01*
X142613181Y-60422416D01*
X142646666Y-60483739D01*
X142649500Y-60510097D01*
X142649500Y-61460769D01*
X142629815Y-61527808D01*
X142587500Y-61568156D01*
X142481287Y-61629477D01*
X142481282Y-61629481D01*
X135287584Y-68823181D01*
X135226261Y-68856666D01*
X135199903Y-68859500D01*
X78986670Y-68859500D01*
X78986654Y-68859499D01*
X78979058Y-68859499D01*
X78820943Y-68859499D01*
X78744579Y-68879961D01*
X78668214Y-68900423D01*
X78668209Y-68900426D01*
X78531290Y-68979475D01*
X78531282Y-68979481D01*
X56159592Y-91351171D01*
X56098269Y-91384656D01*
X56028577Y-91379672D01*
X56024459Y-91378051D01*
X55947781Y-91346290D01*
X55732463Y-91288596D01*
X55732457Y-91288595D01*
X55732452Y-91288594D01*
X55511466Y-91259501D01*
X55511463Y-91259500D01*
X55511457Y-91259500D01*
X55288543Y-91259500D01*
X55288537Y-91259500D01*
X55288533Y-91259501D01*
X55067547Y-91288594D01*
X55067540Y-91288595D01*
X55067537Y-91288596D01*
X55063432Y-91289696D01*
X54852219Y-91346290D01*
X54852209Y-91346293D01*
X54646277Y-91431593D01*
X54646273Y-91431595D01*
X54453226Y-91543052D01*
X54453217Y-91543058D01*
X54276377Y-91678751D01*
X54276370Y-91678757D01*
X54118757Y-91836370D01*
X54118751Y-91836377D01*
X53983058Y-92013217D01*
X53983052Y-92013226D01*
X53871595Y-92206273D01*
X53871593Y-92206277D01*
X53786293Y-92412209D01*
X53786290Y-92412219D01*
X53728597Y-92627534D01*
X53728594Y-92627547D01*
X53699501Y-92848533D01*
X53699500Y-92848549D01*
X53699500Y-93071450D01*
X53699501Y-93071466D01*
X53728594Y-93292452D01*
X53728595Y-93292457D01*
X53728596Y-93292463D01*
X53728597Y-93292465D01*
X53786290Y-93507780D01*
X53786293Y-93507790D01*
X53871593Y-93713722D01*
X53871595Y-93713726D01*
X53983052Y-93906774D01*
X53983057Y-93906780D01*
X53983058Y-93906782D01*
X54118751Y-94083622D01*
X54118757Y-94083629D01*
X54276370Y-94241242D01*
X54276376Y-94241247D01*
X54453226Y-94376948D01*
X54646274Y-94488405D01*
X54852219Y-94573710D01*
X55067537Y-94631404D01*
X55288543Y-94660500D01*
X55288550Y-94660500D01*
X55511450Y-94660500D01*
X55511457Y-94660500D01*
X55732463Y-94631404D01*
X55947781Y-94573710D01*
X56153726Y-94488405D01*
X56346774Y-94376948D01*
X56523624Y-94241247D01*
X56681247Y-94083624D01*
X56816948Y-93906774D01*
X56928405Y-93713726D01*
X57013710Y-93507781D01*
X57071404Y-93292463D01*
X57100500Y-93071457D01*
X57100500Y-92848549D01*
X66299500Y-92848549D01*
X66299500Y-93071450D01*
X66299501Y-93071466D01*
X66328594Y-93292452D01*
X66328595Y-93292457D01*
X66328596Y-93292463D01*
X66328597Y-93292465D01*
X66386290Y-93507780D01*
X66386293Y-93507790D01*
X66471593Y-93713722D01*
X66471595Y-93713726D01*
X66583052Y-93906774D01*
X66583057Y-93906780D01*
X66583058Y-93906782D01*
X66718751Y-94083622D01*
X66718757Y-94083629D01*
X66876370Y-94241242D01*
X66876376Y-94241247D01*
X67053226Y-94376948D01*
X67246274Y-94488405D01*
X67452219Y-94573710D01*
X67667537Y-94631404D01*
X67888543Y-94660500D01*
X67888550Y-94660500D01*
X68111450Y-94660500D01*
X68111457Y-94660500D01*
X68332463Y-94631404D01*
X68547781Y-94573710D01*
X68753726Y-94488405D01*
X68946774Y-94376948D01*
X69123624Y-94241247D01*
X69281247Y-94083624D01*
X69416948Y-93906774D01*
X69528405Y-93713726D01*
X69613710Y-93507781D01*
X69671404Y-93292463D01*
X69700500Y-93071457D01*
X69700500Y-92848543D01*
X69671404Y-92627537D01*
X69613710Y-92412219D01*
X69528405Y-92206274D01*
X69416948Y-92013226D01*
X69281247Y-91836376D01*
X69281242Y-91836370D01*
X69123629Y-91678757D01*
X69123622Y-91678751D01*
X68946782Y-91543058D01*
X68946780Y-91543057D01*
X68946774Y-91543052D01*
X68753726Y-91431595D01*
X68753724Y-91431594D01*
X68753722Y-91431593D01*
X68547790Y-91346293D01*
X68547783Y-91346291D01*
X68547781Y-91346290D01*
X68332463Y-91288596D01*
X68332457Y-91288595D01*
X68332452Y-91288594D01*
X68111466Y-91259501D01*
X68111463Y-91259500D01*
X68111457Y-91259500D01*
X67888543Y-91259500D01*
X67888537Y-91259500D01*
X67888533Y-91259501D01*
X67667547Y-91288594D01*
X67667540Y-91288595D01*
X67667537Y-91288596D01*
X67663432Y-91289696D01*
X67452219Y-91346290D01*
X67452209Y-91346293D01*
X67246277Y-91431593D01*
X67246273Y-91431595D01*
X67053226Y-91543052D01*
X67053217Y-91543058D01*
X66876377Y-91678751D01*
X66876370Y-91678757D01*
X66718757Y-91836370D01*
X66718751Y-91836377D01*
X66583058Y-92013217D01*
X66583052Y-92013226D01*
X66471595Y-92206273D01*
X66471593Y-92206277D01*
X66386293Y-92412209D01*
X66386290Y-92412219D01*
X66328597Y-92627534D01*
X66328594Y-92627547D01*
X66299501Y-92848533D01*
X66299500Y-92848549D01*
X57100500Y-92848549D01*
X57100500Y-92848543D01*
X57071404Y-92627537D01*
X57013710Y-92412219D01*
X56981948Y-92335539D01*
X56974479Y-92266069D01*
X57005754Y-92203590D01*
X57008800Y-92200433D01*
X66437821Y-82771413D01*
X66499142Y-82737930D01*
X66568834Y-82742914D01*
X66624767Y-82784786D01*
X66649184Y-82850250D01*
X66649500Y-82859096D01*
X66649500Y-83857870D01*
X66649501Y-83857876D01*
X66655908Y-83917483D01*
X66706202Y-84052328D01*
X66706206Y-84052335D01*
X66792452Y-84167544D01*
X66792455Y-84167547D01*
X66907664Y-84253793D01*
X66907671Y-84253797D01*
X66925643Y-84260500D01*
X67042517Y-84304091D01*
X67102127Y-84310500D01*
X67112685Y-84310499D01*
X67179723Y-84330179D01*
X67200372Y-84346818D01*
X67870591Y-85017037D01*
X67807007Y-85034075D01*
X67692993Y-85099901D01*
X67599901Y-85192993D01*
X67534075Y-85307007D01*
X67517037Y-85370591D01*
X66884728Y-84738282D01*
X66884727Y-84738282D01*
X66845380Y-84792439D01*
X66748904Y-84981782D01*
X66683242Y-85183869D01*
X66683242Y-85183872D01*
X66650000Y-85393753D01*
X66650000Y-85606246D01*
X66683242Y-85816127D01*
X66683242Y-85816130D01*
X66748904Y-86018217D01*
X66845375Y-86207550D01*
X66884728Y-86261716D01*
X67517037Y-85629408D01*
X67534075Y-85692993D01*
X67599901Y-85807007D01*
X67692993Y-85900099D01*
X67807007Y-85965925D01*
X67870590Y-85982962D01*
X67238282Y-86615269D01*
X67238282Y-86615270D01*
X67292449Y-86654624D01*
X67481782Y-86751095D01*
X67683870Y-86816757D01*
X67893754Y-86850000D01*
X68106246Y-86850000D01*
X68316127Y-86816757D01*
X68316130Y-86816757D01*
X68518217Y-86751095D01*
X68707554Y-86654622D01*
X68761716Y-86615270D01*
X68761717Y-86615270D01*
X68129408Y-85982962D01*
X68192993Y-85965925D01*
X68307007Y-85900099D01*
X68400099Y-85807007D01*
X68465925Y-85692993D01*
X68482962Y-85629409D01*
X69115270Y-86261717D01*
X69115270Y-86261716D01*
X69154622Y-86207554D01*
X69251095Y-86018217D01*
X69316757Y-85816130D01*
X69316757Y-85816127D01*
X69338439Y-85679240D01*
X69350000Y-85606246D01*
X69350000Y-85393753D01*
X69316757Y-85183872D01*
X69316757Y-85183869D01*
X69251095Y-84981782D01*
X69154624Y-84792449D01*
X69115270Y-84738282D01*
X69115269Y-84738282D01*
X68482962Y-85370590D01*
X68465925Y-85307007D01*
X68400099Y-85192993D01*
X68307007Y-85099901D01*
X68192993Y-85034075D01*
X68129409Y-85017037D01*
X68799627Y-84346818D01*
X68860950Y-84313333D01*
X68887307Y-84310499D01*
X68897872Y-84310499D01*
X68957483Y-84304091D01*
X69092331Y-84253796D01*
X69207546Y-84167546D01*
X69293796Y-84052331D01*
X69344091Y-83917483D01*
X69350500Y-83857873D01*
X69350499Y-82857682D01*
X73200000Y-82857682D01*
X73200000Y-83062317D01*
X73232009Y-83264417D01*
X73295244Y-83459031D01*
X73388141Y-83641350D01*
X73388147Y-83641359D01*
X73420523Y-83685921D01*
X73420524Y-83685922D01*
X74100000Y-83006446D01*
X74100000Y-83012661D01*
X74127259Y-83114394D01*
X74179920Y-83205606D01*
X74254394Y-83280080D01*
X74345606Y-83332741D01*
X74447339Y-83360000D01*
X74453553Y-83360000D01*
X73774076Y-84039474D01*
X73818650Y-84071859D01*
X74000968Y-84164755D01*
X74195582Y-84227990D01*
X74397683Y-84260000D01*
X74602317Y-84260000D01*
X74804417Y-84227990D01*
X74999031Y-84164755D01*
X75181349Y-84071859D01*
X75225921Y-84039474D01*
X74546447Y-83360000D01*
X74552661Y-83360000D01*
X74654394Y-83332741D01*
X74745606Y-83280080D01*
X74820080Y-83205606D01*
X74872741Y-83114394D01*
X74900000Y-83012661D01*
X74900000Y-83006447D01*
X75579474Y-83685921D01*
X75611859Y-83641349D01*
X75704755Y-83459031D01*
X75767990Y-83264417D01*
X75800000Y-83062317D01*
X75800000Y-82857682D01*
X75799995Y-82857648D01*
X83359500Y-82857648D01*
X83359500Y-83062351D01*
X83391522Y-83264534D01*
X83454781Y-83459223D01*
X83518691Y-83584653D01*
X83547585Y-83641359D01*
X83547715Y-83641613D01*
X83668028Y-83807213D01*
X83812786Y-83951971D01*
X83950928Y-84052335D01*
X83978390Y-84072287D01*
X84094607Y-84131503D01*
X84160776Y-84165218D01*
X84160778Y-84165218D01*
X84160781Y-84165220D01*
X84265137Y-84199127D01*
X84355465Y-84228477D01*
X84456557Y-84244488D01*
X84557648Y-84260500D01*
X84557649Y-84260500D01*
X84762351Y-84260500D01*
X84762352Y-84260500D01*
X84964534Y-84228477D01*
X85159219Y-84165220D01*
X85341610Y-84072287D01*
X85434590Y-84004732D01*
X85507213Y-83951971D01*
X85507215Y-83951968D01*
X85507219Y-83951966D01*
X85651966Y-83807219D01*
X85651968Y-83807215D01*
X85651971Y-83807213D01*
X85704732Y-83734590D01*
X85772287Y-83641610D01*
X85865220Y-83459219D01*
X85928477Y-83264534D01*
X85960500Y-83062352D01*
X85960500Y-82857648D01*
X85941538Y-82737930D01*
X85928477Y-82655465D01*
X85897372Y-82559735D01*
X85865220Y-82460781D01*
X85865218Y-82460778D01*
X85865218Y-82460776D01*
X85772419Y-82278650D01*
X85772287Y-82278390D01*
X85740092Y-82234077D01*
X85651971Y-82112786D01*
X85507213Y-81968028D01*
X85341613Y-81847715D01*
X85341612Y-81847714D01*
X85341610Y-81847713D01*
X85284653Y-81818691D01*
X85159223Y-81754781D01*
X84964534Y-81691522D01*
X84789995Y-81663878D01*
X84762352Y-81659500D01*
X84557648Y-81659500D01*
X84533329Y-81663351D01*
X84355465Y-81691522D01*
X84160776Y-81754781D01*
X83978386Y-81847715D01*
X83812786Y-81968028D01*
X83668028Y-82112786D01*
X83547715Y-82278386D01*
X83454781Y-82460776D01*
X83391522Y-82655465D01*
X83359500Y-82857648D01*
X75799995Y-82857648D01*
X75767990Y-82655582D01*
X75704755Y-82460968D01*
X75611859Y-82278650D01*
X75579474Y-82234077D01*
X75579474Y-82234076D01*
X74900000Y-82913551D01*
X74900000Y-82907339D01*
X74872741Y-82805606D01*
X74820080Y-82714394D01*
X74745606Y-82639920D01*
X74654394Y-82587259D01*
X74552661Y-82560000D01*
X74546446Y-82560000D01*
X75225922Y-81880524D01*
X75225921Y-81880523D01*
X75181359Y-81848147D01*
X75181350Y-81848141D01*
X74999031Y-81755244D01*
X74804417Y-81692009D01*
X74602317Y-81660000D01*
X74397683Y-81660000D01*
X74195582Y-81692009D01*
X74000968Y-81755244D01*
X73818644Y-81848143D01*
X73774077Y-81880523D01*
X73774077Y-81880524D01*
X74453554Y-82560000D01*
X74447339Y-82560000D01*
X74345606Y-82587259D01*
X74254394Y-82639920D01*
X74179920Y-82714394D01*
X74127259Y-82805606D01*
X74100000Y-82907339D01*
X74100000Y-82913553D01*
X73420524Y-82234077D01*
X73420523Y-82234077D01*
X73388143Y-82278644D01*
X73295244Y-82460968D01*
X73232009Y-82655582D01*
X73200000Y-82857682D01*
X69350499Y-82857682D01*
X69350499Y-82062128D01*
X69344091Y-82002517D01*
X69298591Y-81880524D01*
X69293798Y-81867673D01*
X69293793Y-81867664D01*
X69207547Y-81752455D01*
X69207544Y-81752452D01*
X69092335Y-81666206D01*
X69092328Y-81666202D01*
X68957482Y-81615908D01*
X68957483Y-81615908D01*
X68897883Y-81609501D01*
X68897881Y-81609500D01*
X68897873Y-81609500D01*
X68897865Y-81609500D01*
X67899096Y-81609500D01*
X67832057Y-81589815D01*
X67786302Y-81537011D01*
X67776358Y-81467853D01*
X67805383Y-81404297D01*
X67811415Y-81397819D01*
X69789599Y-79419635D01*
X91999500Y-79419635D01*
X91999500Y-81420370D01*
X91999501Y-81420376D01*
X92005908Y-81479983D01*
X92056202Y-81614828D01*
X92056205Y-81614833D01*
X92056848Y-81615692D01*
X92057222Y-81616695D01*
X92060454Y-81622614D01*
X92059602Y-81623078D01*
X92081263Y-81681157D01*
X92066410Y-81749429D01*
X92056848Y-81764308D01*
X92056205Y-81765166D01*
X92056202Y-81765171D01*
X92005908Y-81900017D01*
X91999501Y-81959616D01*
X91999501Y-81959623D01*
X91999500Y-81959635D01*
X91999500Y-83960370D01*
X91999501Y-83960376D01*
X92005908Y-84019983D01*
X92056202Y-84154828D01*
X92056205Y-84154833D01*
X92057161Y-84156110D01*
X92057717Y-84157603D01*
X92060454Y-84162614D01*
X92059733Y-84163007D01*
X92081575Y-84221575D01*
X92066721Y-84289848D01*
X92057164Y-84304719D01*
X92056649Y-84305406D01*
X92056645Y-84305413D01*
X92006403Y-84440120D01*
X92006401Y-84440127D01*
X92000000Y-84499655D01*
X92000000Y-85250000D01*
X93009252Y-85250000D01*
X92987482Y-85287708D01*
X92950000Y-85427591D01*
X92950000Y-85572409D01*
X92987482Y-85712292D01*
X93009252Y-85750000D01*
X92000000Y-85750000D01*
X92000000Y-86500344D01*
X92006401Y-86559872D01*
X92006403Y-86559879D01*
X92056645Y-86694586D01*
X92056649Y-86694593D01*
X92142809Y-86809687D01*
X92142812Y-86809690D01*
X92257906Y-86895850D01*
X92257913Y-86895854D01*
X92392620Y-86946096D01*
X92392627Y-86946098D01*
X92452155Y-86952499D01*
X92452172Y-86952500D01*
X93250000Y-86952500D01*
X93250000Y-85990747D01*
X93287708Y-86012518D01*
X93427591Y-86050000D01*
X93572409Y-86050000D01*
X93712292Y-86012518D01*
X93750000Y-85990747D01*
X93750000Y-86952500D01*
X94547828Y-86952500D01*
X94547844Y-86952499D01*
X94607372Y-86946098D01*
X94607379Y-86946096D01*
X94742086Y-86895854D01*
X94742093Y-86895850D01*
X94857187Y-86809690D01*
X94857190Y-86809687D01*
X94943350Y-86694593D01*
X94943354Y-86694586D01*
X94993596Y-86559879D01*
X94993598Y-86559872D01*
X94999999Y-86500344D01*
X95000000Y-86500327D01*
X95000000Y-85750000D01*
X93990748Y-85750000D01*
X94012518Y-85712292D01*
X94050000Y-85572409D01*
X94050000Y-85427591D01*
X94012518Y-85287708D01*
X93990748Y-85250000D01*
X95000000Y-85250000D01*
X95000000Y-84499672D01*
X94999999Y-84499655D01*
X94993598Y-84440127D01*
X94993596Y-84440120D01*
X94943354Y-84305413D01*
X94943350Y-84305406D01*
X94942841Y-84304726D01*
X94942543Y-84303929D01*
X94939103Y-84297628D01*
X94940009Y-84297133D01*
X94918424Y-84239262D01*
X94933276Y-84170989D01*
X94942843Y-84156102D01*
X94943796Y-84154831D01*
X94994091Y-84019983D01*
X95000500Y-83960373D01*
X95000499Y-81959628D01*
X94994091Y-81900017D01*
X94986821Y-81880524D01*
X94943798Y-81765173D01*
X94943796Y-81765171D01*
X94943796Y-81765169D01*
X94943154Y-81764312D01*
X94942781Y-81763311D01*
X94939548Y-81757391D01*
X94940399Y-81756926D01*
X94918735Y-81698853D01*
X94933583Y-81630579D01*
X94943151Y-81615692D01*
X94943796Y-81614831D01*
X94994091Y-81479983D01*
X95000500Y-81420373D01*
X95000499Y-79419628D01*
X94994091Y-79360017D01*
X94943796Y-79225169D01*
X94943795Y-79225168D01*
X94943793Y-79225164D01*
X94857547Y-79109955D01*
X94857544Y-79109952D01*
X94742335Y-79023706D01*
X94742328Y-79023702D01*
X94607482Y-78973408D01*
X94607483Y-78973408D01*
X94547883Y-78967001D01*
X94547881Y-78967000D01*
X94547873Y-78967000D01*
X94547864Y-78967000D01*
X92452129Y-78967000D01*
X92452123Y-78967001D01*
X92392516Y-78973408D01*
X92257671Y-79023702D01*
X92257664Y-79023706D01*
X92142455Y-79109952D01*
X92142452Y-79109955D01*
X92056206Y-79225164D01*
X92056202Y-79225171D01*
X92005908Y-79360017D01*
X91999501Y-79419616D01*
X91999501Y-79419623D01*
X91999500Y-79419635D01*
X69789599Y-79419635D01*
X69880609Y-79328625D01*
X70522254Y-78686981D01*
X79112417Y-70096819D01*
X79173740Y-70063334D01*
X79200098Y-70060500D01*
X91746397Y-70060500D01*
X91813436Y-70080185D01*
X91859191Y-70132989D01*
X91869135Y-70202147D01*
X91860958Y-70231953D01*
X91786293Y-70412209D01*
X91786290Y-70412219D01*
X91728597Y-70627534D01*
X91728594Y-70627547D01*
X91699501Y-70848533D01*
X91699500Y-70848549D01*
X91699500Y-71071450D01*
X91699501Y-71071466D01*
X91728594Y-71292452D01*
X91728595Y-71292457D01*
X91728596Y-71292463D01*
X91728597Y-71292465D01*
X91786290Y-71507780D01*
X91786293Y-71507790D01*
X91871593Y-71713722D01*
X91871595Y-71713726D01*
X91983052Y-71906774D01*
X91983057Y-71906780D01*
X91983058Y-71906782D01*
X92118751Y-72083622D01*
X92118757Y-72083629D01*
X92276370Y-72241242D01*
X92276376Y-72241247D01*
X92453226Y-72376948D01*
X92646274Y-72488405D01*
X92852219Y-72573710D01*
X93067537Y-72631404D01*
X93288543Y-72660500D01*
X93288550Y-72660500D01*
X93511450Y-72660500D01*
X93511457Y-72660500D01*
X93732463Y-72631404D01*
X93947781Y-72573710D01*
X94153726Y-72488405D01*
X94346774Y-72376948D01*
X94523624Y-72241247D01*
X94681247Y-72083624D01*
X94816948Y-71906774D01*
X94928405Y-71713726D01*
X95013710Y-71507781D01*
X95071404Y-71292463D01*
X95100500Y-71071457D01*
X95100500Y-70848543D01*
X95071404Y-70627537D01*
X95013710Y-70412219D01*
X94939042Y-70231953D01*
X94931573Y-70162483D01*
X94962848Y-70100004D01*
X95022937Y-70064352D01*
X95053603Y-70060500D01*
X104346397Y-70060500D01*
X104413436Y-70080185D01*
X104459191Y-70132989D01*
X104469135Y-70202147D01*
X104460958Y-70231953D01*
X104386293Y-70412209D01*
X104386290Y-70412219D01*
X104328597Y-70627534D01*
X104328594Y-70627547D01*
X104299501Y-70848533D01*
X104299500Y-70848549D01*
X104299500Y-71071450D01*
X104299501Y-71071466D01*
X104328594Y-71292452D01*
X104328595Y-71292457D01*
X104328596Y-71292463D01*
X104328597Y-71292465D01*
X104386290Y-71507780D01*
X104386293Y-71507790D01*
X104471593Y-71713722D01*
X104471595Y-71713726D01*
X104583052Y-71906774D01*
X104583057Y-71906780D01*
X104583058Y-71906782D01*
X104718751Y-72083622D01*
X104718757Y-72083629D01*
X104876370Y-72241242D01*
X104876376Y-72241247D01*
X105053226Y-72376948D01*
X105246274Y-72488405D01*
X105452219Y-72573710D01*
X105667537Y-72631404D01*
X105888543Y-72660500D01*
X105888550Y-72660500D01*
X106111450Y-72660500D01*
X106111457Y-72660500D01*
X106332463Y-72631404D01*
X106547781Y-72573710D01*
X106753726Y-72488405D01*
X106946774Y-72376948D01*
X107123624Y-72241247D01*
X107281247Y-72083624D01*
X107416948Y-71906774D01*
X107528405Y-71713726D01*
X107613710Y-71507781D01*
X107671404Y-71292463D01*
X107700500Y-71071457D01*
X107700500Y-70848543D01*
X107671404Y-70627537D01*
X107613710Y-70412219D01*
X107539042Y-70231953D01*
X107531573Y-70162483D01*
X107562848Y-70100004D01*
X107622937Y-70064352D01*
X107653603Y-70060500D01*
X129746397Y-70060500D01*
X129813436Y-70080185D01*
X129859191Y-70132989D01*
X129869135Y-70202147D01*
X129860958Y-70231953D01*
X129786293Y-70412209D01*
X129786290Y-70412219D01*
X129728597Y-70627534D01*
X129728594Y-70627547D01*
X129699501Y-70848533D01*
X129699500Y-70848549D01*
X129699500Y-71071450D01*
X129699501Y-71071466D01*
X129728594Y-71292452D01*
X129728595Y-71292457D01*
X129728596Y-71292463D01*
X129728597Y-71292465D01*
X129786290Y-71507780D01*
X129786293Y-71507790D01*
X129871593Y-71713722D01*
X129871595Y-71713726D01*
X129983052Y-71906774D01*
X129983057Y-71906780D01*
X129983058Y-71906782D01*
X130118751Y-72083622D01*
X130118757Y-72083629D01*
X130276370Y-72241242D01*
X130276376Y-72241247D01*
X130453226Y-72376948D01*
X130646274Y-72488405D01*
X130852219Y-72573710D01*
X131067537Y-72631404D01*
X131288543Y-72660500D01*
X131288550Y-72660500D01*
X131511450Y-72660500D01*
X131511457Y-72660500D01*
X131732463Y-72631404D01*
X131947781Y-72573710D01*
X132153726Y-72488405D01*
X132346774Y-72376948D01*
X132523624Y-72241247D01*
X132681247Y-72083624D01*
X132816948Y-71906774D01*
X132928405Y-71713726D01*
X133013710Y-71507781D01*
X133071404Y-71292463D01*
X133100500Y-71071457D01*
X133100500Y-70848543D01*
X133071404Y-70627537D01*
X133013710Y-70412219D01*
X132939042Y-70231953D01*
X132931573Y-70162483D01*
X132962848Y-70100004D01*
X133022937Y-70064352D01*
X133053603Y-70060500D01*
X135413331Y-70060500D01*
X135413347Y-70060501D01*
X135420943Y-70060501D01*
X135579054Y-70060501D01*
X135579057Y-70060501D01*
X135731785Y-70019577D01*
X135781904Y-69990639D01*
X135868716Y-69940520D01*
X135980520Y-69828716D01*
X135980520Y-69828714D01*
X135990728Y-69818507D01*
X135990729Y-69818504D01*
X142438322Y-63370912D01*
X142499642Y-63337430D01*
X142569334Y-63342414D01*
X142625267Y-63384286D01*
X142649684Y-63449750D01*
X142650000Y-63458596D01*
X142650000Y-63606246D01*
X142683242Y-63816127D01*
X142683242Y-63816130D01*
X142748904Y-64018217D01*
X142845375Y-64207550D01*
X142884728Y-64261716D01*
X143517036Y-63629407D01*
X143534075Y-63692993D01*
X143599901Y-63807007D01*
X143692993Y-63900099D01*
X143807007Y-63965925D01*
X143870589Y-63982962D01*
X143238282Y-64615269D01*
X143238282Y-64615270D01*
X143292452Y-64654626D01*
X143359016Y-64688543D01*
X143409811Y-64736517D01*
X143426606Y-64804338D01*
X143404068Y-64870473D01*
X143390401Y-64886708D01*
X129746430Y-78530681D01*
X129685107Y-78564166D01*
X129658749Y-78567000D01*
X107279170Y-78567000D01*
X107279154Y-78566999D01*
X107271558Y-78566999D01*
X107113443Y-78566999D01*
X107037079Y-78587461D01*
X106960714Y-78607923D01*
X106960709Y-78607926D01*
X106823790Y-78686975D01*
X106823782Y-78686981D01*
X94159592Y-91351171D01*
X94098269Y-91384656D01*
X94028577Y-91379672D01*
X94024459Y-91378051D01*
X93947781Y-91346290D01*
X93732463Y-91288596D01*
X93732457Y-91288595D01*
X93732452Y-91288594D01*
X93511466Y-91259501D01*
X93511463Y-91259500D01*
X93511457Y-91259500D01*
X93288543Y-91259500D01*
X93288537Y-91259500D01*
X93288533Y-91259501D01*
X93067547Y-91288594D01*
X93067540Y-91288595D01*
X93067537Y-91288596D01*
X93063432Y-91289696D01*
X92852219Y-91346290D01*
X92852209Y-91346293D01*
X92646277Y-91431593D01*
X92646273Y-91431595D01*
X92453226Y-91543052D01*
X92453217Y-91543058D01*
X92276377Y-91678751D01*
X92276370Y-91678757D01*
X92118757Y-91836370D01*
X92118751Y-91836377D01*
X91983058Y-92013217D01*
X91983052Y-92013226D01*
X91871595Y-92206273D01*
X91871593Y-92206277D01*
X91786293Y-92412209D01*
X91786290Y-92412219D01*
X91728597Y-92627534D01*
X91728594Y-92627547D01*
X91699501Y-92848533D01*
X91699500Y-92848549D01*
X91699500Y-93071450D01*
X91699501Y-93071466D01*
X91728594Y-93292452D01*
X91728595Y-93292457D01*
X91728596Y-93292463D01*
X91728597Y-93292465D01*
X91786290Y-93507780D01*
X91786293Y-93507790D01*
X91871593Y-93713722D01*
X91871595Y-93713726D01*
X91983052Y-93906774D01*
X91983057Y-93906780D01*
X91983058Y-93906782D01*
X92118751Y-94083622D01*
X92118757Y-94083629D01*
X92276370Y-94241242D01*
X92276376Y-94241247D01*
X92453226Y-94376948D01*
X92646274Y-94488405D01*
X92852219Y-94573710D01*
X93067537Y-94631404D01*
X93288543Y-94660500D01*
X93288550Y-94660500D01*
X93511450Y-94660500D01*
X93511457Y-94660500D01*
X93732463Y-94631404D01*
X93947781Y-94573710D01*
X94153726Y-94488405D01*
X94346774Y-94376948D01*
X94523624Y-94241247D01*
X94681247Y-94083624D01*
X94816948Y-93906774D01*
X94928405Y-93713726D01*
X95013710Y-93507781D01*
X95071404Y-93292463D01*
X95100500Y-93071457D01*
X95100500Y-92848549D01*
X104299500Y-92848549D01*
X104299500Y-93071450D01*
X104299501Y-93071466D01*
X104328594Y-93292452D01*
X104328595Y-93292457D01*
X104328596Y-93292463D01*
X104328597Y-93292465D01*
X104386290Y-93507780D01*
X104386293Y-93507790D01*
X104471593Y-93713722D01*
X104471595Y-93713726D01*
X104583052Y-93906774D01*
X104583057Y-93906780D01*
X104583058Y-93906782D01*
X104718751Y-94083622D01*
X104718757Y-94083629D01*
X104876370Y-94241242D01*
X104876376Y-94241247D01*
X105053226Y-94376948D01*
X105246274Y-94488405D01*
X105452219Y-94573710D01*
X105667537Y-94631404D01*
X105888543Y-94660500D01*
X105888550Y-94660500D01*
X106111450Y-94660500D01*
X106111457Y-94660500D01*
X106332463Y-94631404D01*
X106547781Y-94573710D01*
X106753726Y-94488405D01*
X106946774Y-94376948D01*
X107123624Y-94241247D01*
X107281247Y-94083624D01*
X107416948Y-93906774D01*
X107528405Y-93713726D01*
X107613710Y-93507781D01*
X107671404Y-93292463D01*
X107700500Y-93071457D01*
X107700500Y-92848543D01*
X107671404Y-92627537D01*
X107613710Y-92412219D01*
X107528405Y-92206274D01*
X107416948Y-92013226D01*
X107281247Y-91836376D01*
X107281242Y-91836370D01*
X107123629Y-91678757D01*
X107123622Y-91678751D01*
X106946782Y-91543058D01*
X106946780Y-91543057D01*
X106946774Y-91543052D01*
X106753726Y-91431595D01*
X106753724Y-91431594D01*
X106753722Y-91431593D01*
X106547790Y-91346293D01*
X106547783Y-91346291D01*
X106547781Y-91346290D01*
X106332463Y-91288596D01*
X106332457Y-91288595D01*
X106332452Y-91288594D01*
X106111466Y-91259501D01*
X106111463Y-91259500D01*
X106111457Y-91259500D01*
X105888543Y-91259500D01*
X105888537Y-91259500D01*
X105888533Y-91259501D01*
X105667547Y-91288594D01*
X105667540Y-91288595D01*
X105667537Y-91288596D01*
X105663432Y-91289696D01*
X105452219Y-91346290D01*
X105452209Y-91346293D01*
X105246277Y-91431593D01*
X105246273Y-91431595D01*
X105053226Y-91543052D01*
X105053217Y-91543058D01*
X104876377Y-91678751D01*
X104876370Y-91678757D01*
X104718757Y-91836370D01*
X104718751Y-91836377D01*
X104583058Y-92013217D01*
X104583052Y-92013226D01*
X104471595Y-92206273D01*
X104471593Y-92206277D01*
X104386293Y-92412209D01*
X104386290Y-92412219D01*
X104328597Y-92627534D01*
X104328594Y-92627547D01*
X104299501Y-92848533D01*
X104299500Y-92848549D01*
X95100500Y-92848549D01*
X95100500Y-92848543D01*
X95071404Y-92627537D01*
X95013710Y-92412219D01*
X94981948Y-92335539D01*
X94974479Y-92266069D01*
X95005754Y-92203590D01*
X95008800Y-92200433D01*
X104437821Y-82771413D01*
X104499142Y-82737930D01*
X104568834Y-82742914D01*
X104624767Y-82784786D01*
X104649184Y-82850250D01*
X104649500Y-82859096D01*
X104649500Y-83857870D01*
X104649501Y-83857876D01*
X104655908Y-83917483D01*
X104706202Y-84052328D01*
X104706206Y-84052335D01*
X104792452Y-84167544D01*
X104792455Y-84167547D01*
X104907664Y-84253793D01*
X104907671Y-84253797D01*
X104925643Y-84260500D01*
X105042517Y-84304091D01*
X105102127Y-84310500D01*
X105112685Y-84310499D01*
X105179723Y-84330179D01*
X105200372Y-84346818D01*
X105870591Y-85017037D01*
X105807007Y-85034075D01*
X105692993Y-85099901D01*
X105599901Y-85192993D01*
X105534075Y-85307007D01*
X105517037Y-85370591D01*
X104884728Y-84738282D01*
X104884727Y-84738282D01*
X104845380Y-84792439D01*
X104748904Y-84981782D01*
X104683242Y-85183869D01*
X104683242Y-85183872D01*
X104650000Y-85393753D01*
X104650000Y-85606246D01*
X104683242Y-85816127D01*
X104683242Y-85816130D01*
X104748904Y-86018217D01*
X104845375Y-86207550D01*
X104884728Y-86261716D01*
X105517037Y-85629408D01*
X105534075Y-85692993D01*
X105599901Y-85807007D01*
X105692993Y-85900099D01*
X105807007Y-85965925D01*
X105870590Y-85982962D01*
X105238282Y-86615269D01*
X105238282Y-86615270D01*
X105292449Y-86654624D01*
X105481782Y-86751095D01*
X105683870Y-86816757D01*
X105893754Y-86850000D01*
X106106246Y-86850000D01*
X106316127Y-86816757D01*
X106316130Y-86816757D01*
X106518217Y-86751095D01*
X106707554Y-86654622D01*
X106761716Y-86615270D01*
X106761717Y-86615270D01*
X106129408Y-85982962D01*
X106192993Y-85965925D01*
X106307007Y-85900099D01*
X106400099Y-85807007D01*
X106465925Y-85692993D01*
X106482962Y-85629409D01*
X107115270Y-86261717D01*
X107115270Y-86261716D01*
X107154622Y-86207554D01*
X107251095Y-86018217D01*
X107316757Y-85816130D01*
X107316757Y-85816127D01*
X107338439Y-85679240D01*
X107350000Y-85606246D01*
X107350000Y-85393753D01*
X107316757Y-85183872D01*
X107316757Y-85183869D01*
X107251095Y-84981782D01*
X107154624Y-84792449D01*
X107115270Y-84738282D01*
X106482962Y-85370590D01*
X106465925Y-85307007D01*
X106400099Y-85192993D01*
X106307007Y-85099901D01*
X106192993Y-85034075D01*
X106129409Y-85017037D01*
X106799627Y-84346818D01*
X106860950Y-84313333D01*
X106887307Y-84310499D01*
X106897872Y-84310499D01*
X106957483Y-84304091D01*
X107092331Y-84253796D01*
X107207546Y-84167546D01*
X107293796Y-84052331D01*
X107344091Y-83917483D01*
X107350500Y-83857873D01*
X107350499Y-82857682D01*
X111200000Y-82857682D01*
X111200000Y-83062317D01*
X111232009Y-83264417D01*
X111295244Y-83459031D01*
X111388141Y-83641350D01*
X111388147Y-83641359D01*
X111420523Y-83685921D01*
X111420524Y-83685922D01*
X112100000Y-83006446D01*
X112100000Y-83012661D01*
X112127259Y-83114394D01*
X112179920Y-83205606D01*
X112254394Y-83280080D01*
X112345606Y-83332741D01*
X112447339Y-83360000D01*
X112453553Y-83360000D01*
X111774076Y-84039474D01*
X111818650Y-84071859D01*
X112000968Y-84164755D01*
X112195582Y-84227990D01*
X112397683Y-84260000D01*
X112602317Y-84260000D01*
X112804417Y-84227990D01*
X112999031Y-84164755D01*
X113181349Y-84071859D01*
X113225922Y-84039474D01*
X112546447Y-83360000D01*
X112552661Y-83360000D01*
X112654394Y-83332741D01*
X112745606Y-83280080D01*
X112820080Y-83205606D01*
X112872741Y-83114394D01*
X112900000Y-83012661D01*
X112900000Y-83006447D01*
X113579474Y-83685921D01*
X113611859Y-83641349D01*
X113704755Y-83459031D01*
X113767990Y-83264417D01*
X113800000Y-83062317D01*
X113800000Y-82857682D01*
X113799995Y-82857648D01*
X121359500Y-82857648D01*
X121359500Y-83062351D01*
X121391522Y-83264534D01*
X121454781Y-83459223D01*
X121518691Y-83584653D01*
X121547585Y-83641359D01*
X121547715Y-83641613D01*
X121668028Y-83807213D01*
X121812786Y-83951971D01*
X121950928Y-84052335D01*
X121978390Y-84072287D01*
X122094607Y-84131503D01*
X122160776Y-84165218D01*
X122160778Y-84165218D01*
X122160781Y-84165220D01*
X122265137Y-84199127D01*
X122355465Y-84228477D01*
X122456557Y-84244488D01*
X122557648Y-84260500D01*
X122557649Y-84260500D01*
X122762351Y-84260500D01*
X122762352Y-84260500D01*
X122964534Y-84228477D01*
X123159219Y-84165220D01*
X123341610Y-84072287D01*
X123434590Y-84004732D01*
X123507213Y-83951971D01*
X123507215Y-83951968D01*
X123507219Y-83951966D01*
X123651966Y-83807219D01*
X123651968Y-83807215D01*
X123651971Y-83807213D01*
X123704732Y-83734590D01*
X123772287Y-83641610D01*
X123865220Y-83459219D01*
X123928477Y-83264534D01*
X123960500Y-83062352D01*
X123960500Y-82857648D01*
X123941538Y-82737930D01*
X123928477Y-82655465D01*
X123897372Y-82559735D01*
X123865220Y-82460781D01*
X123865218Y-82460778D01*
X123865218Y-82460776D01*
X123772419Y-82278650D01*
X123772287Y-82278390D01*
X123740092Y-82234077D01*
X123651971Y-82112786D01*
X123507213Y-81968028D01*
X123341613Y-81847715D01*
X123341612Y-81847714D01*
X123341610Y-81847713D01*
X123284653Y-81818691D01*
X123159223Y-81754781D01*
X122964534Y-81691522D01*
X122789995Y-81663878D01*
X122762352Y-81659500D01*
X122557648Y-81659500D01*
X122533329Y-81663351D01*
X122355465Y-81691522D01*
X122160776Y-81754781D01*
X121978386Y-81847715D01*
X121812786Y-81968028D01*
X121668028Y-82112786D01*
X121547715Y-82278386D01*
X121454781Y-82460776D01*
X121391522Y-82655465D01*
X121359500Y-82857648D01*
X113799995Y-82857648D01*
X113767990Y-82655582D01*
X113704755Y-82460968D01*
X113611859Y-82278650D01*
X113579474Y-82234077D01*
X113579474Y-82234076D01*
X112900000Y-82913551D01*
X112900000Y-82907339D01*
X112872741Y-82805606D01*
X112820080Y-82714394D01*
X112745606Y-82639920D01*
X112654394Y-82587259D01*
X112552661Y-82560000D01*
X112546446Y-82560000D01*
X113225922Y-81880524D01*
X113225921Y-81880523D01*
X113181359Y-81848147D01*
X113181350Y-81848141D01*
X112999031Y-81755244D01*
X112804417Y-81692009D01*
X112602317Y-81660000D01*
X112397683Y-81660000D01*
X112195582Y-81692009D01*
X112000968Y-81755244D01*
X111818644Y-81848143D01*
X111774077Y-81880523D01*
X111774077Y-81880524D01*
X112453554Y-82560000D01*
X112447339Y-82560000D01*
X112345606Y-82587259D01*
X112254394Y-82639920D01*
X112179920Y-82714394D01*
X112127259Y-82805606D01*
X112100000Y-82907339D01*
X112100000Y-82913553D01*
X111420524Y-82234077D01*
X111420523Y-82234077D01*
X111388143Y-82278644D01*
X111295244Y-82460968D01*
X111232009Y-82655582D01*
X111200000Y-82857682D01*
X107350499Y-82857682D01*
X107350499Y-82062128D01*
X107344091Y-82002517D01*
X107298591Y-81880524D01*
X107293798Y-81867673D01*
X107293793Y-81867664D01*
X107207547Y-81752455D01*
X107207544Y-81752452D01*
X107092335Y-81666206D01*
X107092328Y-81666202D01*
X106957482Y-81615908D01*
X106957483Y-81615908D01*
X106897883Y-81609501D01*
X106897881Y-81609500D01*
X106897873Y-81609500D01*
X106897865Y-81609500D01*
X105899097Y-81609500D01*
X105832058Y-81589815D01*
X105786303Y-81537011D01*
X105776359Y-81467853D01*
X105805384Y-81404297D01*
X105811416Y-81397819D01*
X107404917Y-79804319D01*
X107466240Y-79770834D01*
X107492598Y-79768000D01*
X129872214Y-79768000D01*
X129875537Y-79768001D01*
X129909461Y-79777973D01*
X129942539Y-79787686D01*
X129942551Y-79787700D01*
X129942571Y-79787706D01*
X129967181Y-79816124D01*
X129988294Y-79840490D01*
X129988298Y-79840509D01*
X129988310Y-79840523D01*
X129988327Y-79840642D01*
X129999500Y-79892001D01*
X129999500Y-81420370D01*
X129999501Y-81420376D01*
X130005908Y-81479983D01*
X130056202Y-81614828D01*
X130056205Y-81614833D01*
X130056848Y-81615692D01*
X130057222Y-81616695D01*
X130060454Y-81622614D01*
X130059602Y-81623078D01*
X130081263Y-81681157D01*
X130066410Y-81749429D01*
X130056848Y-81764308D01*
X130056205Y-81765166D01*
X130056202Y-81765171D01*
X130005908Y-81900017D01*
X129999501Y-81959616D01*
X129999501Y-81959623D01*
X129999500Y-81959635D01*
X129999500Y-83960370D01*
X129999501Y-83960376D01*
X130005908Y-84019983D01*
X130056202Y-84154828D01*
X130056205Y-84154833D01*
X130057161Y-84156110D01*
X130057717Y-84157603D01*
X130060454Y-84162614D01*
X130059733Y-84163007D01*
X130081575Y-84221575D01*
X130066721Y-84289848D01*
X130057164Y-84304719D01*
X130056649Y-84305406D01*
X130056645Y-84305413D01*
X130006403Y-84440120D01*
X130006401Y-84440127D01*
X130000000Y-84499655D01*
X130000000Y-85250000D01*
X131009252Y-85250000D01*
X130987482Y-85287708D01*
X130950000Y-85427591D01*
X130950000Y-85572409D01*
X130987482Y-85712292D01*
X131009252Y-85750000D01*
X130000000Y-85750000D01*
X130000000Y-86500344D01*
X130006401Y-86559872D01*
X130006403Y-86559879D01*
X130056645Y-86694586D01*
X130056649Y-86694593D01*
X130142809Y-86809687D01*
X130142812Y-86809690D01*
X130257906Y-86895850D01*
X130257913Y-86895854D01*
X130392620Y-86946096D01*
X130392627Y-86946098D01*
X130452155Y-86952499D01*
X130452172Y-86952500D01*
X131250000Y-86952500D01*
X131250000Y-85990747D01*
X131287708Y-86012518D01*
X131427591Y-86050000D01*
X131572409Y-86050000D01*
X131712292Y-86012518D01*
X131750000Y-85990747D01*
X131750000Y-86952500D01*
X132547828Y-86952500D01*
X132547844Y-86952499D01*
X132607372Y-86946098D01*
X132607379Y-86946096D01*
X132742086Y-86895854D01*
X132742093Y-86895850D01*
X132857187Y-86809690D01*
X132857190Y-86809687D01*
X132943350Y-86694593D01*
X132943354Y-86694586D01*
X132993596Y-86559879D01*
X132993598Y-86559872D01*
X132999999Y-86500344D01*
X133000000Y-86500327D01*
X133000000Y-85750000D01*
X131990748Y-85750000D01*
X132012518Y-85712292D01*
X132050000Y-85572409D01*
X132050000Y-85427591D01*
X132012518Y-85287708D01*
X131990748Y-85250000D01*
X133000000Y-85250000D01*
X133000000Y-84499672D01*
X132999999Y-84499655D01*
X132993598Y-84440127D01*
X132993596Y-84440120D01*
X132943354Y-84305413D01*
X132943350Y-84305406D01*
X132942841Y-84304726D01*
X132942543Y-84303929D01*
X132939103Y-84297628D01*
X132940009Y-84297133D01*
X132918424Y-84239262D01*
X132933276Y-84170989D01*
X132942843Y-84156102D01*
X132943796Y-84154831D01*
X132994091Y-84019983D01*
X133000500Y-83960373D01*
X133000499Y-81959628D01*
X132994091Y-81900017D01*
X132986821Y-81880524D01*
X132943798Y-81765173D01*
X132943796Y-81765171D01*
X132943796Y-81765169D01*
X132943154Y-81764312D01*
X132942781Y-81763311D01*
X132939548Y-81757391D01*
X132940399Y-81756926D01*
X132918735Y-81698853D01*
X132933583Y-81630579D01*
X132943151Y-81615692D01*
X132943796Y-81614831D01*
X132994091Y-81479983D01*
X133000500Y-81420373D01*
X133000499Y-79419628D01*
X132994091Y-79360017D01*
X132943796Y-79225169D01*
X132943795Y-79225168D01*
X132943793Y-79225164D01*
X132857547Y-79109955D01*
X132857544Y-79109952D01*
X132742335Y-79023706D01*
X132742328Y-79023702D01*
X132607482Y-78973408D01*
X132607483Y-78973408D01*
X132547883Y-78967001D01*
X132547881Y-78967000D01*
X132547873Y-78967000D01*
X132547865Y-78967000D01*
X131307942Y-78967000D01*
X131240903Y-78947315D01*
X131195148Y-78894511D01*
X131185204Y-78825353D01*
X131214229Y-78761797D01*
X131220261Y-78755319D01*
X132523177Y-77452403D01*
X139127031Y-70848549D01*
X142299500Y-70848549D01*
X142299500Y-71071450D01*
X142299501Y-71071466D01*
X142328594Y-71292452D01*
X142328595Y-71292457D01*
X142328596Y-71292463D01*
X142328597Y-71292465D01*
X142386290Y-71507780D01*
X142386293Y-71507790D01*
X142471593Y-71713722D01*
X142471595Y-71713726D01*
X142583052Y-71906774D01*
X142583057Y-71906780D01*
X142583058Y-71906782D01*
X142718751Y-72083622D01*
X142718757Y-72083629D01*
X142876370Y-72241242D01*
X142876376Y-72241247D01*
X143053226Y-72376948D01*
X143246274Y-72488405D01*
X143452219Y-72573710D01*
X143667537Y-72631404D01*
X143888543Y-72660500D01*
X143888550Y-72660500D01*
X144111450Y-72660500D01*
X144111457Y-72660500D01*
X144332463Y-72631404D01*
X144547781Y-72573710D01*
X144753726Y-72488405D01*
X144946774Y-72376948D01*
X145123624Y-72241247D01*
X145281247Y-72083624D01*
X145416948Y-71906774D01*
X145528405Y-71713726D01*
X145613710Y-71507781D01*
X145671404Y-71292463D01*
X145700500Y-71071457D01*
X145700500Y-70848543D01*
X145671404Y-70627537D01*
X145613710Y-70412219D01*
X145528405Y-70206274D01*
X145416948Y-70013226D01*
X145352102Y-69928716D01*
X145281248Y-69836377D01*
X145281242Y-69836370D01*
X145123629Y-69678757D01*
X145123622Y-69678751D01*
X144946782Y-69543058D01*
X144946780Y-69543057D01*
X144946774Y-69543052D01*
X144753726Y-69431595D01*
X144753722Y-69431593D01*
X144547790Y-69346293D01*
X144547783Y-69346291D01*
X144547781Y-69346290D01*
X144332463Y-69288596D01*
X144332457Y-69288595D01*
X144332452Y-69288594D01*
X144111466Y-69259501D01*
X144111463Y-69259500D01*
X144111457Y-69259500D01*
X143888543Y-69259500D01*
X143888537Y-69259500D01*
X143888533Y-69259501D01*
X143667547Y-69288594D01*
X143667540Y-69288595D01*
X143667537Y-69288596D01*
X143582935Y-69311265D01*
X143452219Y-69346290D01*
X143452209Y-69346293D01*
X143246277Y-69431593D01*
X143246273Y-69431595D01*
X143053226Y-69543052D01*
X143053217Y-69543058D01*
X142876377Y-69678751D01*
X142876370Y-69678757D01*
X142718757Y-69836370D01*
X142718751Y-69836377D01*
X142583058Y-70013217D01*
X142583052Y-70013226D01*
X142471595Y-70206273D01*
X142471593Y-70206277D01*
X142386293Y-70412209D01*
X142386290Y-70412219D01*
X142328597Y-70627534D01*
X142328594Y-70627547D01*
X142299501Y-70848533D01*
X142299500Y-70848549D01*
X139127031Y-70848549D01*
X148988887Y-60986694D01*
X149050207Y-60953211D01*
X149119899Y-60958195D01*
X149175832Y-61000067D01*
X149197593Y-61057760D01*
X149199237Y-61057500D01*
X149232009Y-61264417D01*
X149295244Y-61459031D01*
X149388141Y-61641350D01*
X149388147Y-61641359D01*
X149420523Y-61685921D01*
X149420524Y-61685922D01*
X150100000Y-61006446D01*
X150100000Y-61012661D01*
X150127259Y-61114394D01*
X150179920Y-61205606D01*
X150254394Y-61280080D01*
X150345606Y-61332741D01*
X150447339Y-61360000D01*
X150453553Y-61360000D01*
X149774076Y-62039474D01*
X149818650Y-62071859D01*
X150000968Y-62164755D01*
X150195582Y-62227990D01*
X150397683Y-62260000D01*
X150602317Y-62260000D01*
X150804417Y-62227990D01*
X150999031Y-62164755D01*
X151181349Y-62071859D01*
X151225921Y-62039474D01*
X150546447Y-61360000D01*
X150552661Y-61360000D01*
X150654394Y-61332741D01*
X150745606Y-61280080D01*
X150820080Y-61205606D01*
X150872741Y-61114394D01*
X150900000Y-61012661D01*
X150900000Y-61006447D01*
X151579474Y-61685921D01*
X151611859Y-61641349D01*
X151704755Y-61459031D01*
X151767990Y-61264417D01*
X151800000Y-61062317D01*
X151800000Y-60857682D01*
X151767990Y-60655582D01*
X151704755Y-60460968D01*
X151611859Y-60278650D01*
X151579474Y-60234077D01*
X151579474Y-60234076D01*
X150900000Y-60913551D01*
X150900000Y-60907339D01*
X150872741Y-60805606D01*
X150820080Y-60714394D01*
X150745606Y-60639920D01*
X150654394Y-60587259D01*
X150552661Y-60560000D01*
X150546446Y-60560000D01*
X151225922Y-59880524D01*
X151225921Y-59880523D01*
X151181359Y-59848147D01*
X151181350Y-59848141D01*
X150999031Y-59755244D01*
X150804417Y-59692009D01*
X150597500Y-59659237D01*
X150597764Y-59657565D01*
X150539337Y-59635281D01*
X150497879Y-59579041D01*
X150493408Y-59509314D01*
X150526693Y-59448887D01*
X154600520Y-55375062D01*
X154679577Y-55238130D01*
X154720501Y-55085403D01*
X154720501Y-54927288D01*
X154720501Y-54919693D01*
X154720500Y-54919675D01*
X154720500Y-46785718D01*
X154740185Y-46718679D01*
X154788207Y-46675233D01*
X154827815Y-46655052D01*
X154827815Y-46655051D01*
X154827816Y-46655051D01*
X154919193Y-46588661D01*
X154999786Y-46530109D01*
X154999788Y-46530106D01*
X154999792Y-46530104D01*
X155150104Y-46379792D01*
X155150106Y-46379788D01*
X155150109Y-46379786D01*
X155275048Y-46207820D01*
X155275047Y-46207820D01*
X155275051Y-46207816D01*
X155279514Y-46199054D01*
X155327488Y-46148259D01*
X155395308Y-46131463D01*
X155461444Y-46153999D01*
X155500486Y-46199056D01*
X155504951Y-46207820D01*
X155629890Y-46379786D01*
X155780213Y-46530109D01*
X155952184Y-46655051D01*
X155952184Y-46655052D01*
X155991793Y-46675233D01*
X156042590Y-46723206D01*
X156059500Y-46785718D01*
X156059500Y-67399902D01*
X156039815Y-67466941D01*
X156023181Y-67487583D01*
X132159592Y-91351171D01*
X132098269Y-91384656D01*
X132028577Y-91379672D01*
X132024459Y-91378051D01*
X131947781Y-91346290D01*
X131732463Y-91288596D01*
X131732457Y-91288595D01*
X131732452Y-91288594D01*
X131511466Y-91259501D01*
X131511463Y-91259500D01*
X131511457Y-91259500D01*
X131288543Y-91259500D01*
X131288537Y-91259500D01*
X131288533Y-91259501D01*
X131067547Y-91288594D01*
X131067540Y-91288595D01*
X131067537Y-91288596D01*
X131063432Y-91289696D01*
X130852219Y-91346290D01*
X130852209Y-91346293D01*
X130646277Y-91431593D01*
X130646273Y-91431595D01*
X130453226Y-91543052D01*
X130453217Y-91543058D01*
X130276377Y-91678751D01*
X130276370Y-91678757D01*
X130118757Y-91836370D01*
X130118751Y-91836377D01*
X129983058Y-92013217D01*
X129983052Y-92013226D01*
X129871595Y-92206273D01*
X129871593Y-92206277D01*
X129786293Y-92412209D01*
X129786290Y-92412219D01*
X129728597Y-92627534D01*
X129728594Y-92627547D01*
X129699501Y-92848533D01*
X129699500Y-92848549D01*
X129699500Y-93071450D01*
X129699501Y-93071466D01*
X129728594Y-93292452D01*
X129728595Y-93292457D01*
X129728596Y-93292463D01*
X129728597Y-93292465D01*
X129786290Y-93507780D01*
X129786293Y-93507790D01*
X129871593Y-93713722D01*
X129871595Y-93713726D01*
X129983052Y-93906774D01*
X129983057Y-93906780D01*
X129983058Y-93906782D01*
X130118751Y-94083622D01*
X130118757Y-94083629D01*
X130276370Y-94241242D01*
X130276376Y-94241247D01*
X130453226Y-94376948D01*
X130646274Y-94488405D01*
X130852219Y-94573710D01*
X131067537Y-94631404D01*
X131288543Y-94660500D01*
X131288550Y-94660500D01*
X131511450Y-94660500D01*
X131511457Y-94660500D01*
X131732463Y-94631404D01*
X131947781Y-94573710D01*
X132153726Y-94488405D01*
X132346774Y-94376948D01*
X132523624Y-94241247D01*
X132681247Y-94083624D01*
X132816948Y-93906774D01*
X132928405Y-93713726D01*
X133013710Y-93507781D01*
X133071404Y-93292463D01*
X133100500Y-93071457D01*
X133100500Y-92848549D01*
X142299500Y-92848549D01*
X142299500Y-93071450D01*
X142299501Y-93071466D01*
X142328594Y-93292452D01*
X142328595Y-93292457D01*
X142328596Y-93292463D01*
X142328597Y-93292465D01*
X142386290Y-93507780D01*
X142386293Y-93507790D01*
X142471593Y-93713722D01*
X142471595Y-93713726D01*
X142583052Y-93906774D01*
X142583057Y-93906780D01*
X142583058Y-93906782D01*
X142718751Y-94083622D01*
X142718757Y-94083629D01*
X142876370Y-94241242D01*
X142876376Y-94241247D01*
X143053226Y-94376948D01*
X143246274Y-94488405D01*
X143452219Y-94573710D01*
X143667537Y-94631404D01*
X143888543Y-94660500D01*
X143888550Y-94660500D01*
X144111450Y-94660500D01*
X144111457Y-94660500D01*
X144332463Y-94631404D01*
X144547781Y-94573710D01*
X144753726Y-94488405D01*
X144946774Y-94376948D01*
X145123624Y-94241247D01*
X145281247Y-94083624D01*
X145416948Y-93906774D01*
X145528405Y-93713726D01*
X145613710Y-93507781D01*
X145671404Y-93292463D01*
X145700500Y-93071457D01*
X145700500Y-92848543D01*
X145671404Y-92627537D01*
X145613710Y-92412219D01*
X145528405Y-92206274D01*
X145416948Y-92013226D01*
X145281247Y-91836376D01*
X145281242Y-91836370D01*
X145123629Y-91678757D01*
X145123622Y-91678751D01*
X144946782Y-91543058D01*
X144946780Y-91543057D01*
X144946774Y-91543052D01*
X144753726Y-91431595D01*
X144753724Y-91431594D01*
X144753722Y-91431593D01*
X144547790Y-91346293D01*
X144547783Y-91346291D01*
X144547781Y-91346290D01*
X144332463Y-91288596D01*
X144332457Y-91288595D01*
X144332452Y-91288594D01*
X144111466Y-91259501D01*
X144111463Y-91259500D01*
X144111457Y-91259500D01*
X143888543Y-91259500D01*
X143888537Y-91259500D01*
X143888533Y-91259501D01*
X143667547Y-91288594D01*
X143667540Y-91288595D01*
X143667537Y-91288596D01*
X143663432Y-91289696D01*
X143452219Y-91346290D01*
X143452209Y-91346293D01*
X143246277Y-91431593D01*
X143246273Y-91431595D01*
X143053226Y-91543052D01*
X143053217Y-91543058D01*
X142876377Y-91678751D01*
X142876370Y-91678757D01*
X142718757Y-91836370D01*
X142718751Y-91836377D01*
X142583058Y-92013217D01*
X142583052Y-92013226D01*
X142471595Y-92206273D01*
X142471593Y-92206277D01*
X142386293Y-92412209D01*
X142386290Y-92412219D01*
X142328597Y-92627534D01*
X142328594Y-92627547D01*
X142299501Y-92848533D01*
X142299500Y-92848549D01*
X133100500Y-92848549D01*
X133100500Y-92848543D01*
X133071404Y-92627537D01*
X133013710Y-92412219D01*
X132981948Y-92335539D01*
X132974479Y-92266069D01*
X133005754Y-92203590D01*
X133008800Y-92200433D01*
X142437821Y-82771413D01*
X142499142Y-82737930D01*
X142568834Y-82742914D01*
X142624767Y-82784786D01*
X142649184Y-82850250D01*
X142649500Y-82859096D01*
X142649500Y-83857870D01*
X142649501Y-83857876D01*
X142655908Y-83917483D01*
X142706202Y-84052328D01*
X142706206Y-84052335D01*
X142792452Y-84167544D01*
X142792455Y-84167547D01*
X142907664Y-84253793D01*
X142907671Y-84253797D01*
X142925643Y-84260500D01*
X143042517Y-84304091D01*
X143102127Y-84310500D01*
X143112685Y-84310499D01*
X143179723Y-84330179D01*
X143200372Y-84346818D01*
X143870591Y-85017037D01*
X143807007Y-85034075D01*
X143692993Y-85099901D01*
X143599901Y-85192993D01*
X143534075Y-85307007D01*
X143517037Y-85370591D01*
X142884728Y-84738282D01*
X142884727Y-84738282D01*
X142845380Y-84792439D01*
X142748904Y-84981782D01*
X142683242Y-85183869D01*
X142683242Y-85183872D01*
X142650000Y-85393753D01*
X142650000Y-85606246D01*
X142683242Y-85816127D01*
X142683242Y-85816130D01*
X142748904Y-86018217D01*
X142845375Y-86207550D01*
X142884728Y-86261716D01*
X143517037Y-85629408D01*
X143534075Y-85692993D01*
X143599901Y-85807007D01*
X143692993Y-85900099D01*
X143807007Y-85965925D01*
X143870590Y-85982962D01*
X143238282Y-86615269D01*
X143238282Y-86615270D01*
X143292449Y-86654624D01*
X143481782Y-86751095D01*
X143683870Y-86816757D01*
X143893754Y-86850000D01*
X144106246Y-86850000D01*
X144316127Y-86816757D01*
X144316130Y-86816757D01*
X144518217Y-86751095D01*
X144707554Y-86654622D01*
X144761716Y-86615270D01*
X144761717Y-86615270D01*
X144129408Y-85982962D01*
X144192993Y-85965925D01*
X144307007Y-85900099D01*
X144400099Y-85807007D01*
X144465925Y-85692993D01*
X144482962Y-85629408D01*
X145115270Y-86261717D01*
X145115270Y-86261716D01*
X145154622Y-86207554D01*
X145251095Y-86018217D01*
X145316757Y-85816130D01*
X145316757Y-85816127D01*
X145350000Y-85606246D01*
X145350000Y-85393753D01*
X145316757Y-85183872D01*
X145316757Y-85183869D01*
X145251095Y-84981782D01*
X145154624Y-84792449D01*
X145115270Y-84738282D01*
X144482962Y-85370590D01*
X144465925Y-85307007D01*
X144400099Y-85192993D01*
X144307007Y-85099901D01*
X144192993Y-85034075D01*
X144129409Y-85017037D01*
X144799627Y-84346818D01*
X144860950Y-84313333D01*
X144887307Y-84310499D01*
X144897872Y-84310499D01*
X144957483Y-84304091D01*
X145092331Y-84253796D01*
X145207546Y-84167546D01*
X145293796Y-84052331D01*
X145344091Y-83917483D01*
X145350500Y-83857873D01*
X145350499Y-82857682D01*
X149200000Y-82857682D01*
X149200000Y-83062317D01*
X149232009Y-83264417D01*
X149295244Y-83459031D01*
X149388141Y-83641350D01*
X149388147Y-83641359D01*
X149420523Y-83685921D01*
X149420524Y-83685922D01*
X150100000Y-83006446D01*
X150100000Y-83012661D01*
X150127259Y-83114394D01*
X150179920Y-83205606D01*
X150254394Y-83280080D01*
X150345606Y-83332741D01*
X150447339Y-83360000D01*
X150453553Y-83360000D01*
X149774076Y-84039474D01*
X149818650Y-84071859D01*
X150000968Y-84164755D01*
X150195582Y-84227990D01*
X150397683Y-84260000D01*
X150602317Y-84260000D01*
X150804417Y-84227990D01*
X150999031Y-84164755D01*
X151181349Y-84071859D01*
X151225922Y-84039474D01*
X150546447Y-83360000D01*
X150552661Y-83360000D01*
X150654394Y-83332741D01*
X150745606Y-83280080D01*
X150820080Y-83205606D01*
X150872741Y-83114394D01*
X150900000Y-83012661D01*
X150900000Y-83006447D01*
X151579474Y-83685921D01*
X151611859Y-83641349D01*
X151704755Y-83459031D01*
X151767990Y-83264417D01*
X151800000Y-83062317D01*
X151800000Y-82857682D01*
X151799995Y-82857648D01*
X159359500Y-82857648D01*
X159359500Y-83062351D01*
X159391522Y-83264534D01*
X159454781Y-83459223D01*
X159518691Y-83584653D01*
X159547585Y-83641359D01*
X159547715Y-83641613D01*
X159668028Y-83807213D01*
X159812786Y-83951971D01*
X159950928Y-84052335D01*
X159978390Y-84072287D01*
X160094607Y-84131503D01*
X160160776Y-84165218D01*
X160160778Y-84165218D01*
X160160781Y-84165220D01*
X160265137Y-84199127D01*
X160355465Y-84228477D01*
X160456557Y-84244488D01*
X160557648Y-84260500D01*
X160557649Y-84260500D01*
X160762351Y-84260500D01*
X160762352Y-84260500D01*
X160964534Y-84228477D01*
X161159219Y-84165220D01*
X161341610Y-84072287D01*
X161434590Y-84004732D01*
X161507213Y-83951971D01*
X161507215Y-83951968D01*
X161507219Y-83951966D01*
X161651966Y-83807219D01*
X161651968Y-83807215D01*
X161651971Y-83807213D01*
X161704732Y-83734590D01*
X161772287Y-83641610D01*
X161865220Y-83459219D01*
X161928477Y-83264534D01*
X161960500Y-83062352D01*
X161960500Y-82857648D01*
X161941538Y-82737930D01*
X161928477Y-82655465D01*
X161897372Y-82559735D01*
X161865220Y-82460781D01*
X161865218Y-82460778D01*
X161865218Y-82460776D01*
X161772419Y-82278650D01*
X161772287Y-82278390D01*
X161740092Y-82234077D01*
X161651971Y-82112786D01*
X161507213Y-81968028D01*
X161341613Y-81847715D01*
X161341612Y-81847714D01*
X161341610Y-81847713D01*
X161284653Y-81818691D01*
X161159223Y-81754781D01*
X160964534Y-81691522D01*
X160789995Y-81663878D01*
X160762352Y-81659500D01*
X160557648Y-81659500D01*
X160533329Y-81663351D01*
X160355465Y-81691522D01*
X160160776Y-81754781D01*
X159978386Y-81847715D01*
X159812786Y-81968028D01*
X159668028Y-82112786D01*
X159547715Y-82278386D01*
X159454781Y-82460776D01*
X159391522Y-82655465D01*
X159359500Y-82857648D01*
X151799995Y-82857648D01*
X151767990Y-82655582D01*
X151704755Y-82460968D01*
X151611859Y-82278650D01*
X151579474Y-82234077D01*
X151579474Y-82234076D01*
X150900000Y-82913551D01*
X150900000Y-82907339D01*
X150872741Y-82805606D01*
X150820080Y-82714394D01*
X150745606Y-82639920D01*
X150654394Y-82587259D01*
X150552661Y-82560000D01*
X150546446Y-82560000D01*
X151225922Y-81880524D01*
X151225921Y-81880523D01*
X151181359Y-81848147D01*
X151181350Y-81848141D01*
X150999031Y-81755244D01*
X150804417Y-81692009D01*
X150602317Y-81660000D01*
X150397683Y-81660000D01*
X150195582Y-81692009D01*
X150000968Y-81755244D01*
X149818644Y-81848143D01*
X149774077Y-81880523D01*
X149774077Y-81880524D01*
X150453554Y-82560000D01*
X150447339Y-82560000D01*
X150345606Y-82587259D01*
X150254394Y-82639920D01*
X150179920Y-82714394D01*
X150127259Y-82805606D01*
X150100000Y-82907339D01*
X150100000Y-82913553D01*
X149420524Y-82234077D01*
X149420523Y-82234077D01*
X149388143Y-82278644D01*
X149295244Y-82460968D01*
X149232009Y-82655582D01*
X149200000Y-82857682D01*
X145350499Y-82857682D01*
X145350499Y-82062128D01*
X145344091Y-82002517D01*
X145298591Y-81880524D01*
X145293798Y-81867673D01*
X145293793Y-81867664D01*
X145207547Y-81752455D01*
X145207544Y-81752452D01*
X145092335Y-81666206D01*
X145092328Y-81666202D01*
X144957482Y-81615908D01*
X144957483Y-81615908D01*
X144897883Y-81609501D01*
X144897881Y-81609500D01*
X144897873Y-81609500D01*
X144897865Y-81609500D01*
X143899096Y-81609500D01*
X143832057Y-81589815D01*
X143786302Y-81537011D01*
X143776358Y-81467853D01*
X143805383Y-81404297D01*
X143811415Y-81397819D01*
X146976214Y-78233020D01*
X157140520Y-68068716D01*
X157219577Y-67931784D01*
X157260501Y-67779057D01*
X157260501Y-67620942D01*
X157260501Y-67613347D01*
X157260500Y-67613329D01*
X157260500Y-46785718D01*
X157280185Y-46718679D01*
X157328207Y-46675233D01*
X157367815Y-46655052D01*
X157367815Y-46655051D01*
X157367816Y-46655051D01*
X157459193Y-46588661D01*
X157539786Y-46530109D01*
X157539788Y-46530106D01*
X157539792Y-46530104D01*
X157690104Y-46379792D01*
X157690106Y-46379788D01*
X157690109Y-46379786D01*
X157815048Y-46207820D01*
X157815047Y-46207820D01*
X157815051Y-46207816D01*
X157819514Y-46199054D01*
X157867488Y-46148259D01*
X157935308Y-46131463D01*
X158001444Y-46153999D01*
X158040486Y-46199056D01*
X158044951Y-46207820D01*
X158169890Y-46379786D01*
X158320213Y-46530109D01*
X158492184Y-46655051D01*
X158492184Y-46655052D01*
X158531793Y-46675233D01*
X158582590Y-46723206D01*
X158599500Y-46785718D01*
X158599500Y-77665830D01*
X158599499Y-77665848D01*
X158599499Y-77831554D01*
X158599498Y-77831554D01*
X158640423Y-77984285D01*
X158669358Y-78034400D01*
X158669359Y-78034404D01*
X158669360Y-78034404D01*
X158719479Y-78121214D01*
X158719481Y-78121217D01*
X158838349Y-78240085D01*
X158838355Y-78240090D01*
X168763181Y-88164916D01*
X168796666Y-88226239D01*
X168799500Y-88252597D01*
X168799500Y-91285272D01*
X168779815Y-91352311D01*
X168727011Y-91398066D01*
X168722954Y-91399832D01*
X168646274Y-91431594D01*
X168646272Y-91431595D01*
X168453226Y-91543052D01*
X168453217Y-91543058D01*
X168276377Y-91678751D01*
X168276370Y-91678757D01*
X168118757Y-91836370D01*
X168118751Y-91836377D01*
X167983058Y-92013217D01*
X167983052Y-92013226D01*
X167871595Y-92206273D01*
X167871593Y-92206277D01*
X167786293Y-92412209D01*
X167786290Y-92412219D01*
X167728597Y-92627534D01*
X167728594Y-92627547D01*
X167699501Y-92848533D01*
X167699500Y-92848549D01*
X167699500Y-93071450D01*
X167699501Y-93071466D01*
X167728594Y-93292452D01*
X167728595Y-93292457D01*
X167728596Y-93292463D01*
X167728597Y-93292465D01*
X167786290Y-93507780D01*
X167786293Y-93507790D01*
X167871593Y-93713722D01*
X167871595Y-93713726D01*
X167983052Y-93906774D01*
X167983057Y-93906780D01*
X167983058Y-93906782D01*
X168118751Y-94083622D01*
X168118757Y-94083629D01*
X168276370Y-94241242D01*
X168276376Y-94241247D01*
X168453226Y-94376948D01*
X168646274Y-94488405D01*
X168852219Y-94573710D01*
X169067537Y-94631404D01*
X169288543Y-94660500D01*
X169288550Y-94660500D01*
X169511450Y-94660500D01*
X169511457Y-94660500D01*
X169732463Y-94631404D01*
X169947781Y-94573710D01*
X170153726Y-94488405D01*
X170346774Y-94376948D01*
X170523624Y-94241247D01*
X170681247Y-94083624D01*
X170816948Y-93906774D01*
X170928405Y-93713726D01*
X171013710Y-93507781D01*
X171071404Y-93292463D01*
X171100500Y-93071457D01*
X171100500Y-92848543D01*
X171071404Y-92627537D01*
X171013710Y-92412219D01*
X170928405Y-92206274D01*
X170816948Y-92013226D01*
X170681247Y-91836376D01*
X170681242Y-91836370D01*
X170523629Y-91678757D01*
X170523622Y-91678751D01*
X170346782Y-91543058D01*
X170346780Y-91543057D01*
X170346774Y-91543052D01*
X170250250Y-91487323D01*
X170153727Y-91431595D01*
X170153725Y-91431594D01*
X170077046Y-91399832D01*
X170022643Y-91355991D01*
X170000579Y-91289696D01*
X170000500Y-91285272D01*
X170000500Y-87873445D01*
X170000500Y-87873443D01*
X169959577Y-87720716D01*
X169959573Y-87720709D01*
X169880524Y-87583790D01*
X169880521Y-87583786D01*
X169880520Y-87583784D01*
X169768716Y-87471980D01*
X169768715Y-87471979D01*
X169764385Y-87467649D01*
X169764374Y-87467639D01*
X169286319Y-86989584D01*
X169252834Y-86928261D01*
X169250000Y-86901903D01*
X169250000Y-85990747D01*
X169287708Y-86012518D01*
X169427591Y-86050000D01*
X169572409Y-86050000D01*
X169712292Y-86012518D01*
X169750000Y-85990747D01*
X169750000Y-86952500D01*
X170547828Y-86952500D01*
X170547844Y-86952499D01*
X170607372Y-86946098D01*
X170607379Y-86946096D01*
X170742086Y-86895854D01*
X170742093Y-86895850D01*
X170857187Y-86809690D01*
X170857190Y-86809687D01*
X170943350Y-86694593D01*
X170943354Y-86694586D01*
X170993596Y-86559879D01*
X170993598Y-86559872D01*
X170999999Y-86500344D01*
X171000000Y-86500327D01*
X171000000Y-85750000D01*
X169990748Y-85750000D01*
X170012518Y-85712292D01*
X170050000Y-85572409D01*
X170050000Y-85427591D01*
X170012518Y-85287708D01*
X169990748Y-85250000D01*
X171000000Y-85250000D01*
X171000000Y-84499672D01*
X170999999Y-84499655D01*
X170993598Y-84440127D01*
X170993596Y-84440120D01*
X170943354Y-84305413D01*
X170943350Y-84305406D01*
X170942841Y-84304726D01*
X170942543Y-84303929D01*
X170939103Y-84297628D01*
X170940009Y-84297133D01*
X170918424Y-84239262D01*
X170933276Y-84170989D01*
X170942843Y-84156102D01*
X170943796Y-84154831D01*
X170994091Y-84019983D01*
X171000500Y-83960373D01*
X171000499Y-81959628D01*
X170994091Y-81900017D01*
X170986821Y-81880524D01*
X170943798Y-81765173D01*
X170943796Y-81765171D01*
X170943796Y-81765169D01*
X170943154Y-81764312D01*
X170942781Y-81763311D01*
X170939548Y-81757391D01*
X170940399Y-81756926D01*
X170918735Y-81698853D01*
X170933583Y-81630579D01*
X170943151Y-81615692D01*
X170943796Y-81614831D01*
X170994091Y-81479983D01*
X171000500Y-81420373D01*
X171000499Y-79419628D01*
X170994091Y-79360017D01*
X170943796Y-79225169D01*
X170943795Y-79225168D01*
X170943793Y-79225164D01*
X170857547Y-79109955D01*
X170857544Y-79109952D01*
X170742335Y-79023706D01*
X170742328Y-79023702D01*
X170607482Y-78973408D01*
X170607483Y-78973408D01*
X170547883Y-78967001D01*
X170547881Y-78967000D01*
X170547873Y-78967000D01*
X170547864Y-78967000D01*
X168452129Y-78967000D01*
X168452123Y-78967001D01*
X168392516Y-78973408D01*
X168257671Y-79023702D01*
X168257664Y-79023706D01*
X168142455Y-79109952D01*
X168142452Y-79109955D01*
X168056206Y-79225164D01*
X168056202Y-79225171D01*
X168005908Y-79360017D01*
X167999501Y-79419616D01*
X167999501Y-79419623D01*
X167999500Y-79419635D01*
X167999500Y-81420370D01*
X167999501Y-81420376D01*
X168005908Y-81479983D01*
X168056202Y-81614828D01*
X168056205Y-81614833D01*
X168056848Y-81615692D01*
X168057222Y-81616695D01*
X168060454Y-81622614D01*
X168059602Y-81623078D01*
X168081263Y-81681157D01*
X168066410Y-81749429D01*
X168056848Y-81764308D01*
X168056205Y-81765166D01*
X168056202Y-81765171D01*
X168005908Y-81900017D01*
X167999501Y-81959616D01*
X167999501Y-81959623D01*
X167999500Y-81959635D01*
X167999500Y-83960370D01*
X167999501Y-83960376D01*
X168005908Y-84019983D01*
X168056202Y-84154828D01*
X168056205Y-84154833D01*
X168057161Y-84156110D01*
X168057717Y-84157603D01*
X168060454Y-84162614D01*
X168059733Y-84163007D01*
X168081575Y-84221575D01*
X168066721Y-84289848D01*
X168057164Y-84304719D01*
X168056649Y-84305406D01*
X168056645Y-84305413D01*
X168006403Y-84440120D01*
X168006401Y-84440127D01*
X168000000Y-84499655D01*
X168000000Y-85250000D01*
X169009252Y-85250000D01*
X168987482Y-85287708D01*
X168950000Y-85427591D01*
X168950000Y-85572409D01*
X168987482Y-85712292D01*
X169009252Y-85750000D01*
X168098097Y-85750000D01*
X168031058Y-85730315D01*
X168010416Y-85713681D01*
X159836819Y-77540084D01*
X159803334Y-77478761D01*
X159800500Y-77452403D01*
X159800500Y-70848549D01*
X167699500Y-70848549D01*
X167699500Y-71071450D01*
X167699501Y-71071466D01*
X167728594Y-71292452D01*
X167728595Y-71292457D01*
X167728596Y-71292463D01*
X167728597Y-71292465D01*
X167786290Y-71507780D01*
X167786293Y-71507790D01*
X167871593Y-71713722D01*
X167871595Y-71713726D01*
X167983052Y-71906774D01*
X167983057Y-71906780D01*
X167983058Y-71906782D01*
X168118751Y-72083622D01*
X168118757Y-72083629D01*
X168276370Y-72241242D01*
X168276376Y-72241247D01*
X168453226Y-72376948D01*
X168646274Y-72488405D01*
X168852219Y-72573710D01*
X169067537Y-72631404D01*
X169288543Y-72660500D01*
X169288550Y-72660500D01*
X169511450Y-72660500D01*
X169511457Y-72660500D01*
X169732463Y-72631404D01*
X169947781Y-72573710D01*
X170153726Y-72488405D01*
X170346774Y-72376948D01*
X170523624Y-72241247D01*
X170681247Y-72083624D01*
X170816948Y-71906774D01*
X170928405Y-71713726D01*
X171013710Y-71507781D01*
X171071404Y-71292463D01*
X171100500Y-71071457D01*
X171100500Y-70848543D01*
X171071404Y-70627537D01*
X171013710Y-70412219D01*
X170928405Y-70206274D01*
X170816948Y-70013226D01*
X170752102Y-69928716D01*
X170681248Y-69836377D01*
X170681242Y-69836370D01*
X170523629Y-69678757D01*
X170523622Y-69678751D01*
X170346782Y-69543058D01*
X170346780Y-69543057D01*
X170346774Y-69543052D01*
X170153726Y-69431595D01*
X170153722Y-69431593D01*
X169947790Y-69346293D01*
X169947783Y-69346291D01*
X169947781Y-69346290D01*
X169732463Y-69288596D01*
X169732457Y-69288595D01*
X169732452Y-69288594D01*
X169511466Y-69259501D01*
X169511463Y-69259500D01*
X169511457Y-69259500D01*
X169288543Y-69259500D01*
X169288537Y-69259500D01*
X169288533Y-69259501D01*
X169067547Y-69288594D01*
X169067540Y-69288595D01*
X169067537Y-69288596D01*
X168982935Y-69311265D01*
X168852219Y-69346290D01*
X168852209Y-69346293D01*
X168646277Y-69431593D01*
X168646273Y-69431595D01*
X168453226Y-69543052D01*
X168453217Y-69543058D01*
X168276377Y-69678751D01*
X168276370Y-69678757D01*
X168118757Y-69836370D01*
X168118751Y-69836377D01*
X167983058Y-70013217D01*
X167983052Y-70013226D01*
X167871595Y-70206273D01*
X167871593Y-70206277D01*
X167786293Y-70412209D01*
X167786290Y-70412219D01*
X167728597Y-70627534D01*
X167728594Y-70627547D01*
X167699501Y-70848533D01*
X167699500Y-70848549D01*
X159800500Y-70848549D01*
X159800500Y-62183997D01*
X159820185Y-62116958D01*
X159872989Y-62071203D01*
X159942147Y-62061259D01*
X159980792Y-62073511D01*
X160057916Y-62112807D01*
X160160776Y-62165218D01*
X160160778Y-62165218D01*
X160160781Y-62165220D01*
X160218571Y-62183997D01*
X160355465Y-62228477D01*
X160456557Y-62244488D01*
X160557648Y-62260500D01*
X160557649Y-62260500D01*
X160762351Y-62260500D01*
X160762352Y-62260500D01*
X160964534Y-62228477D01*
X161159219Y-62165220D01*
X161341610Y-62072287D01*
X161434590Y-62004732D01*
X161507213Y-61951971D01*
X161507215Y-61951968D01*
X161507219Y-61951966D01*
X161651966Y-61807219D01*
X161651968Y-61807215D01*
X161651971Y-61807213D01*
X161704732Y-61734590D01*
X161772287Y-61641610D01*
X161865220Y-61459219D01*
X161928477Y-61264534D01*
X161960500Y-61062352D01*
X161960500Y-60857648D01*
X161945177Y-60760903D01*
X161928477Y-60655465D01*
X161881244Y-60510097D01*
X161865220Y-60460781D01*
X161865218Y-60460778D01*
X161865218Y-60460776D01*
X161816397Y-60364961D01*
X161772287Y-60278390D01*
X161740092Y-60234077D01*
X161651971Y-60112786D01*
X161507213Y-59968028D01*
X161341613Y-59847715D01*
X161341612Y-59847714D01*
X161341610Y-59847713D01*
X161284653Y-59818691D01*
X161159223Y-59754781D01*
X160964534Y-59691522D01*
X160789995Y-59663878D01*
X160762352Y-59659500D01*
X160557648Y-59659500D01*
X160533329Y-59663351D01*
X160355465Y-59691522D01*
X160203759Y-59740815D01*
X160160781Y-59754780D01*
X160160778Y-59754781D01*
X160160776Y-59754782D01*
X159980795Y-59846487D01*
X159912125Y-59859383D01*
X159847385Y-59833107D01*
X159807128Y-59776000D01*
X159800500Y-59736002D01*
X159800500Y-57419635D01*
X167999500Y-57419635D01*
X167999500Y-59420370D01*
X167999501Y-59420376D01*
X168005908Y-59479983D01*
X168056202Y-59614828D01*
X168056205Y-59614833D01*
X168056848Y-59615692D01*
X168057222Y-59616695D01*
X168060454Y-59622614D01*
X168059602Y-59623078D01*
X168081263Y-59681157D01*
X168066410Y-59749429D01*
X168056848Y-59764308D01*
X168056205Y-59765166D01*
X168056202Y-59765171D01*
X168005908Y-59900017D01*
X167999501Y-59959616D01*
X167999501Y-59959623D01*
X167999500Y-59959635D01*
X167999500Y-61960370D01*
X167999501Y-61960376D01*
X168005908Y-62019983D01*
X168056202Y-62154828D01*
X168056205Y-62154833D01*
X168057161Y-62156110D01*
X168057717Y-62157603D01*
X168060454Y-62162614D01*
X168059733Y-62163007D01*
X168081575Y-62221575D01*
X168066721Y-62289848D01*
X168057164Y-62304719D01*
X168056649Y-62305406D01*
X168056645Y-62305413D01*
X168006403Y-62440120D01*
X168006401Y-62440127D01*
X168000000Y-62499655D01*
X168000000Y-63250000D01*
X169009252Y-63250000D01*
X168987482Y-63287708D01*
X168950000Y-63427591D01*
X168950000Y-63572409D01*
X168987482Y-63712292D01*
X169009252Y-63750000D01*
X168000000Y-63750000D01*
X168000000Y-64500344D01*
X168006401Y-64559872D01*
X168006403Y-64559879D01*
X168056645Y-64694586D01*
X168056649Y-64694593D01*
X168142809Y-64809687D01*
X168142812Y-64809690D01*
X168257906Y-64895850D01*
X168257913Y-64895854D01*
X168392620Y-64946096D01*
X168392627Y-64946098D01*
X168452155Y-64952499D01*
X168452172Y-64952500D01*
X169250000Y-64952500D01*
X169250000Y-63990747D01*
X169287708Y-64012518D01*
X169427591Y-64050000D01*
X169572409Y-64050000D01*
X169712292Y-64012518D01*
X169750000Y-63990747D01*
X169750000Y-64952500D01*
X170547828Y-64952500D01*
X170547844Y-64952499D01*
X170607372Y-64946098D01*
X170607379Y-64946096D01*
X170742086Y-64895854D01*
X170742093Y-64895850D01*
X170857187Y-64809690D01*
X170857190Y-64809687D01*
X170943350Y-64694593D01*
X170943354Y-64694586D01*
X170993596Y-64559879D01*
X170993598Y-64559872D01*
X170999999Y-64500344D01*
X171000000Y-64500327D01*
X171000000Y-63750000D01*
X169990748Y-63750000D01*
X170012518Y-63712292D01*
X170050000Y-63572409D01*
X170050000Y-63427591D01*
X170012518Y-63287708D01*
X169990748Y-63250000D01*
X171000000Y-63250000D01*
X171000000Y-62499672D01*
X170999999Y-62499655D01*
X170993598Y-62440127D01*
X170993596Y-62440120D01*
X170943354Y-62305413D01*
X170943350Y-62305406D01*
X170942841Y-62304726D01*
X170942543Y-62303929D01*
X170939103Y-62297628D01*
X170940009Y-62297133D01*
X170918424Y-62239262D01*
X170933276Y-62170989D01*
X170942843Y-62156102D01*
X170943796Y-62154831D01*
X170994091Y-62019983D01*
X171000500Y-61960373D01*
X171000499Y-59959628D01*
X170994091Y-59900017D01*
X170986821Y-59880524D01*
X170943798Y-59765173D01*
X170943796Y-59765171D01*
X170943796Y-59765169D01*
X170943154Y-59764312D01*
X170942781Y-59763311D01*
X170939548Y-59757391D01*
X170940399Y-59756926D01*
X170918735Y-59698853D01*
X170933583Y-59630579D01*
X170943151Y-59615692D01*
X170943796Y-59614831D01*
X170994091Y-59479983D01*
X171000500Y-59420373D01*
X171000499Y-57419628D01*
X170994091Y-57360017D01*
X170943796Y-57225169D01*
X170943795Y-57225168D01*
X170943793Y-57225164D01*
X170857547Y-57109955D01*
X170857544Y-57109952D01*
X170742335Y-57023706D01*
X170742328Y-57023702D01*
X170607482Y-56973408D01*
X170607483Y-56973408D01*
X170547883Y-56967001D01*
X170547881Y-56967000D01*
X170547873Y-56967000D01*
X170547864Y-56967000D01*
X168452129Y-56967000D01*
X168452123Y-56967001D01*
X168392516Y-56973408D01*
X168257671Y-57023702D01*
X168257664Y-57023706D01*
X168142455Y-57109952D01*
X168142452Y-57109955D01*
X168056206Y-57225164D01*
X168056202Y-57225171D01*
X168005908Y-57360017D01*
X167999501Y-57419616D01*
X167999501Y-57419623D01*
X167999500Y-57419635D01*
X159800500Y-57419635D01*
X159800500Y-46785718D01*
X159820185Y-46718679D01*
X159868207Y-46675233D01*
X159907815Y-46655052D01*
X159907815Y-46655051D01*
X159907816Y-46655051D01*
X159999193Y-46588661D01*
X160079786Y-46530109D01*
X160079788Y-46530106D01*
X160079792Y-46530104D01*
X160230104Y-46379792D01*
X160230106Y-46379788D01*
X160230109Y-46379786D01*
X160355048Y-46207820D01*
X160355047Y-46207820D01*
X160355051Y-46207816D01*
X160451557Y-46018412D01*
X160517246Y-45816243D01*
X160550500Y-45606287D01*
X160550500Y-45393713D01*
X160517246Y-45183757D01*
X160451557Y-44981588D01*
X160355051Y-44792184D01*
X160355049Y-44792181D01*
X160355048Y-44792179D01*
X160230109Y-44620213D01*
X160079786Y-44469890D01*
X159907820Y-44344951D01*
X159718414Y-44248444D01*
X159718413Y-44248443D01*
X159718412Y-44248443D01*
X159516243Y-44182754D01*
X159516241Y-44182753D01*
X159516240Y-44182753D01*
X159354957Y-44157208D01*
X159306287Y-44149500D01*
X159093713Y-44149500D01*
X159045042Y-44157208D01*
X158883760Y-44182753D01*
X158681585Y-44248444D01*
X158492179Y-44344951D01*
X158320213Y-44469890D01*
X158169890Y-44620213D01*
X158044949Y-44792182D01*
X158040484Y-44800946D01*
X157992509Y-44851742D01*
X157924688Y-44868536D01*
X157858553Y-44845998D01*
X157819516Y-44800946D01*
X157815050Y-44792182D01*
X157690109Y-44620213D01*
X157539786Y-44469890D01*
X157367820Y-44344951D01*
X157178414Y-44248444D01*
X157178413Y-44248443D01*
X157178412Y-44248443D01*
X156976243Y-44182754D01*
X156976241Y-44182753D01*
X156976240Y-44182753D01*
X156814957Y-44157208D01*
X156766287Y-44149500D01*
X156553713Y-44149500D01*
X156505042Y-44157208D01*
X156343760Y-44182753D01*
X156141585Y-44248444D01*
X155952179Y-44344951D01*
X155780213Y-44469890D01*
X155629890Y-44620213D01*
X155504949Y-44792182D01*
X155500484Y-44800946D01*
X155452509Y-44851742D01*
X155384688Y-44868536D01*
X155318553Y-44845998D01*
X155279516Y-44800946D01*
X155275050Y-44792182D01*
X155150109Y-44620213D01*
X154999786Y-44469890D01*
X154827820Y-44344951D01*
X154638414Y-44248444D01*
X154638413Y-44248443D01*
X154638412Y-44248443D01*
X154436243Y-44182754D01*
X154436241Y-44182753D01*
X154436240Y-44182753D01*
X154274957Y-44157208D01*
X154226287Y-44149500D01*
X154013713Y-44149500D01*
X153965042Y-44157208D01*
X153803760Y-44182753D01*
X153601585Y-44248444D01*
X153412179Y-44344951D01*
X153240213Y-44469890D01*
X153089890Y-44620213D01*
X152964949Y-44792182D01*
X152960484Y-44800946D01*
X152912509Y-44851742D01*
X152844688Y-44868536D01*
X152778553Y-44845998D01*
X152739516Y-44800946D01*
X152735050Y-44792182D01*
X152610109Y-44620213D01*
X152459786Y-44469890D01*
X152287820Y-44344951D01*
X152098414Y-44248444D01*
X152098413Y-44248443D01*
X152098412Y-44248443D01*
X151896243Y-44182754D01*
X151896241Y-44182753D01*
X151896240Y-44182753D01*
X151734957Y-44157208D01*
X151686287Y-44149500D01*
X151473713Y-44149500D01*
X151425042Y-44157208D01*
X151263760Y-44182753D01*
X151061585Y-44248444D01*
X150872179Y-44344951D01*
X150700213Y-44469890D01*
X150549890Y-44620213D01*
X150424949Y-44792182D01*
X150420484Y-44800946D01*
X150372509Y-44851742D01*
X150304688Y-44868536D01*
X150238553Y-44845998D01*
X150199516Y-44800946D01*
X150195050Y-44792182D01*
X150070109Y-44620213D01*
X149919786Y-44469890D01*
X149747820Y-44344951D01*
X149558414Y-44248444D01*
X149558413Y-44248443D01*
X149558412Y-44248443D01*
X149356243Y-44182754D01*
X149356241Y-44182753D01*
X149356240Y-44182753D01*
X149194957Y-44157208D01*
X149146287Y-44149500D01*
X148933713Y-44149500D01*
X148885042Y-44157208D01*
X148723760Y-44182753D01*
X148521585Y-44248444D01*
X148332179Y-44344951D01*
X148160213Y-44469890D01*
X148009890Y-44620213D01*
X147884949Y-44792182D01*
X147880484Y-44800946D01*
X147832509Y-44851742D01*
X147764688Y-44868536D01*
X147698553Y-44845998D01*
X147659516Y-44800946D01*
X147655050Y-44792182D01*
X147530109Y-44620213D01*
X147379786Y-44469890D01*
X147207820Y-44344951D01*
X147018414Y-44248444D01*
X147018413Y-44248443D01*
X147018412Y-44248443D01*
X146816243Y-44182754D01*
X146816241Y-44182753D01*
X146816240Y-44182753D01*
X146654957Y-44157208D01*
X146606287Y-44149500D01*
X146393713Y-44149500D01*
X146345042Y-44157208D01*
X146183760Y-44182753D01*
X145981585Y-44248444D01*
X145792179Y-44344951D01*
X145620213Y-44469890D01*
X145469890Y-44620213D01*
X145344949Y-44792182D01*
X145340484Y-44800946D01*
X145292509Y-44851742D01*
X145224688Y-44868536D01*
X145158553Y-44845998D01*
X145119516Y-44800946D01*
X145115050Y-44792182D01*
X144990109Y-44620213D01*
X144839786Y-44469890D01*
X144667820Y-44344951D01*
X144478414Y-44248444D01*
X144478413Y-44248443D01*
X144478412Y-44248443D01*
X144276243Y-44182754D01*
X144276241Y-44182753D01*
X144276240Y-44182753D01*
X144114957Y-44157208D01*
X144066287Y-44149500D01*
X143853713Y-44149500D01*
X143805042Y-44157208D01*
X143643760Y-44182753D01*
X143441585Y-44248444D01*
X143252179Y-44344951D01*
X143080213Y-44469890D01*
X142929890Y-44620213D01*
X142804949Y-44792182D01*
X142800484Y-44800946D01*
X142752509Y-44851742D01*
X142684688Y-44868536D01*
X142618553Y-44845998D01*
X142579516Y-44800946D01*
X142575050Y-44792182D01*
X142450109Y-44620213D01*
X142299786Y-44469890D01*
X142127820Y-44344951D01*
X141938414Y-44248444D01*
X141938413Y-44248443D01*
X141938412Y-44248443D01*
X141736243Y-44182754D01*
X141736241Y-44182753D01*
X141736240Y-44182753D01*
X141574957Y-44157208D01*
X141526287Y-44149500D01*
X141313713Y-44149500D01*
X141265042Y-44157208D01*
X141103760Y-44182753D01*
X140901585Y-44248444D01*
X140712179Y-44344951D01*
X140540213Y-44469890D01*
X140389890Y-44620213D01*
X140264949Y-44792182D01*
X140260202Y-44801499D01*
X140212227Y-44852293D01*
X140144405Y-44869087D01*
X140078271Y-44846548D01*
X140039234Y-44801495D01*
X140034626Y-44792452D01*
X139995270Y-44738282D01*
X139995269Y-44738282D01*
X139362962Y-45370589D01*
X139345925Y-45307007D01*
X139280099Y-45192993D01*
X139187007Y-45099901D01*
X139072993Y-45034075D01*
X139009407Y-45017036D01*
X139641716Y-44384728D01*
X139587550Y-44345375D01*
X139398217Y-44248904D01*
X139196129Y-44183242D01*
X138986246Y-44150000D01*
X138773754Y-44150000D01*
X138563872Y-44183242D01*
X138563869Y-44183242D01*
X138361782Y-44248904D01*
X138254330Y-44303654D01*
X138185660Y-44316550D01*
X138120920Y-44290273D01*
X138082205Y-44237434D01*
X138079919Y-44231454D01*
X138049577Y-44118215D01*
X138016255Y-44060500D01*
X137970520Y-43981284D01*
X137858716Y-43869480D01*
X137858715Y-43869479D01*
X137854385Y-43865149D01*
X137854374Y-43865139D01*
X136410388Y-42421153D01*
X138199500Y-42421153D01*
X138199500Y-42578846D01*
X138230261Y-42733489D01*
X138230264Y-42733501D01*
X138290602Y-42879172D01*
X138290609Y-42879185D01*
X138378210Y-43010288D01*
X138378213Y-43010292D01*
X138489707Y-43121786D01*
X138489711Y-43121789D01*
X138620814Y-43209390D01*
X138620827Y-43209397D01*
X138748671Y-43262351D01*
X138766503Y-43269737D01*
X138921153Y-43300499D01*
X138921156Y-43300500D01*
X138921158Y-43300500D01*
X139078844Y-43300500D01*
X139078845Y-43300499D01*
X139233497Y-43269737D01*
X139379179Y-43209394D01*
X139501467Y-43127684D01*
X139510875Y-43121398D01*
X139577553Y-43100520D01*
X139579766Y-43100500D01*
X159373331Y-43100500D01*
X159373347Y-43100501D01*
X159380943Y-43100501D01*
X159539054Y-43100501D01*
X159539057Y-43100501D01*
X159691785Y-43059577D01*
X159768762Y-43015134D01*
X159828716Y-42980520D01*
X159940520Y-42868716D01*
X159940520Y-42868714D01*
X159950724Y-42858511D01*
X159950728Y-42858506D01*
X167938321Y-34870912D01*
X167999642Y-34837429D01*
X168069334Y-34842413D01*
X168125267Y-34884285D01*
X168149684Y-34949749D01*
X168150000Y-34958595D01*
X168150000Y-35106246D01*
X168183242Y-35316127D01*
X168183242Y-35316130D01*
X168248904Y-35518217D01*
X168345375Y-35707550D01*
X168384728Y-35761716D01*
X169017037Y-35129408D01*
X169034075Y-35192993D01*
X169099901Y-35307007D01*
X169192993Y-35400099D01*
X169307007Y-35465925D01*
X169370590Y-35482962D01*
X168738282Y-36115269D01*
X168738282Y-36115270D01*
X168792449Y-36154624D01*
X168981782Y-36251095D01*
X169183870Y-36316757D01*
X169393754Y-36350000D01*
X169606246Y-36350000D01*
X169816127Y-36316757D01*
X169816130Y-36316757D01*
X170018217Y-36251095D01*
X170207554Y-36154622D01*
X170261716Y-36115270D01*
X170261717Y-36115270D01*
X169629408Y-35482962D01*
X169692993Y-35465925D01*
X169807007Y-35400099D01*
X169900099Y-35307007D01*
X169965925Y-35192993D01*
X169982962Y-35129409D01*
X170615270Y-35761717D01*
X170615270Y-35761716D01*
X170654622Y-35707554D01*
X170751095Y-35518217D01*
X170816757Y-35316130D01*
X170816757Y-35316127D01*
X170850000Y-35106246D01*
X170850000Y-34893753D01*
X170816757Y-34683872D01*
X170816757Y-34683869D01*
X170751095Y-34481782D01*
X170654624Y-34292449D01*
X170615270Y-34238282D01*
X170615269Y-34238282D01*
X169982962Y-34870590D01*
X169965925Y-34807007D01*
X169900099Y-34692993D01*
X169807007Y-34599901D01*
X169692993Y-34534075D01*
X169629408Y-34517037D01*
X170261716Y-33884728D01*
X170207547Y-33845373D01*
X170207547Y-33845372D01*
X170198500Y-33840763D01*
X170147706Y-33792788D01*
X170130912Y-33724966D01*
X170153451Y-33658832D01*
X170198508Y-33619793D01*
X170207816Y-33615051D01*
X170299814Y-33548211D01*
X170379786Y-33490109D01*
X170379788Y-33490106D01*
X170379792Y-33490104D01*
X170530104Y-33339792D01*
X170530106Y-33339788D01*
X170530109Y-33339786D01*
X170655048Y-33167820D01*
X170655047Y-33167820D01*
X170655051Y-33167816D01*
X170751557Y-32978412D01*
X170817246Y-32776243D01*
X170850500Y-32566287D01*
X170850500Y-32353713D01*
X170817246Y-32143757D01*
X170751557Y-31941588D01*
X170655051Y-31752184D01*
X170655049Y-31752181D01*
X170655048Y-31752179D01*
X170530109Y-31580213D01*
X170416569Y-31466673D01*
X170383084Y-31405350D01*
X170388068Y-31335658D01*
X170429940Y-31279725D01*
X170460915Y-31262810D01*
X170592331Y-31213796D01*
X170707546Y-31127546D01*
X170793796Y-31012331D01*
X170844091Y-30877483D01*
X170850500Y-30817873D01*
X170850499Y-29022128D01*
X170844091Y-28962517D01*
X170793796Y-28827669D01*
X170793795Y-28827668D01*
X170793793Y-28827664D01*
X170707547Y-28712455D01*
X170707544Y-28712452D01*
X170592335Y-28626206D01*
X170592328Y-28626202D01*
X170457482Y-28575908D01*
X170457483Y-28575908D01*
X170397883Y-28569501D01*
X170397881Y-28569500D01*
X170397873Y-28569500D01*
X170397864Y-28569500D01*
X168602129Y-28569500D01*
X168602123Y-28569501D01*
X168542516Y-28575908D01*
X168407671Y-28626202D01*
X168407664Y-28626206D01*
X168292455Y-28712452D01*
X168292452Y-28712455D01*
X168206206Y-28827664D01*
X168206202Y-28827671D01*
X168155908Y-28962517D01*
X168149501Y-29022116D01*
X168149501Y-29022123D01*
X168149500Y-29022135D01*
X168149500Y-30817870D01*
X168149501Y-30817876D01*
X168155908Y-30877483D01*
X168206202Y-31012328D01*
X168206206Y-31012335D01*
X168292452Y-31127544D01*
X168292455Y-31127547D01*
X168407664Y-31213793D01*
X168407671Y-31213797D01*
X168539082Y-31262810D01*
X168595016Y-31304681D01*
X168619433Y-31370145D01*
X168604582Y-31438418D01*
X168583431Y-31466673D01*
X168469889Y-31580215D01*
X168344951Y-31752179D01*
X168248444Y-31941585D01*
X168182753Y-32143760D01*
X168149500Y-32353713D01*
X168149500Y-32566286D01*
X168182754Y-32776244D01*
X168182754Y-32776247D01*
X168196491Y-32818523D01*
X168198486Y-32888364D01*
X168166241Y-32944522D01*
X159247584Y-41863181D01*
X159186261Y-41896666D01*
X159159903Y-41899500D01*
X139579766Y-41899500D01*
X139512727Y-41879815D01*
X139510875Y-41878602D01*
X139379185Y-41790609D01*
X139379172Y-41790602D01*
X139233501Y-41730264D01*
X139233489Y-41730261D01*
X139078845Y-41699500D01*
X139078842Y-41699500D01*
X138921158Y-41699500D01*
X138921155Y-41699500D01*
X138766510Y-41730261D01*
X138766498Y-41730264D01*
X138620827Y-41790602D01*
X138620814Y-41790609D01*
X138489711Y-41878210D01*
X138489707Y-41878213D01*
X138378213Y-41989707D01*
X138378210Y-41989711D01*
X138290609Y-42120814D01*
X138290602Y-42120827D01*
X138230264Y-42266498D01*
X138230261Y-42266510D01*
X138199500Y-42421153D01*
X136410388Y-42421153D01*
X126627590Y-32638355D01*
X126627588Y-32638352D01*
X126508717Y-32519481D01*
X126508716Y-32519480D01*
X126421904Y-32469360D01*
X126421904Y-32469359D01*
X126421900Y-32469358D01*
X126371785Y-32440423D01*
X126219057Y-32399499D01*
X126060943Y-32399499D01*
X126053347Y-32399499D01*
X126053331Y-32399500D01*
X125729602Y-32399500D01*
X125662563Y-32379815D01*
X125619117Y-32331795D01*
X125612284Y-32318385D01*
X125491971Y-32152786D01*
X125347213Y-32008028D01*
X125181613Y-31887715D01*
X125181612Y-31887714D01*
X125181610Y-31887713D01*
X125124653Y-31858691D01*
X124999223Y-31794781D01*
X124804534Y-31731522D01*
X124629995Y-31703878D01*
X124602352Y-31699500D01*
X124397648Y-31699500D01*
X124373329Y-31703351D01*
X124195465Y-31731522D01*
X124000776Y-31794781D01*
X123818386Y-31887715D01*
X123652786Y-32008028D01*
X123508028Y-32152786D01*
X123387715Y-32318386D01*
X123294781Y-32500776D01*
X123231522Y-32695465D01*
X123199500Y-32897648D01*
X123199500Y-33075499D01*
X123179815Y-33142538D01*
X123127011Y-33188293D01*
X123075500Y-33199499D01*
X110320315Y-33199499D01*
X110253276Y-33179814D01*
X110207521Y-33127010D01*
X110197577Y-33057852D01*
X110209831Y-33019203D01*
X110251094Y-32938219D01*
X110316757Y-32736130D01*
X110316757Y-32736127D01*
X110350000Y-32526246D01*
X110350000Y-32313753D01*
X110316757Y-32103872D01*
X110316757Y-32103869D01*
X110251095Y-31901782D01*
X110154624Y-31712449D01*
X110115270Y-31658282D01*
X110115269Y-31658282D01*
X109482962Y-32290589D01*
X109465925Y-32227007D01*
X109400099Y-32112993D01*
X109307007Y-32019901D01*
X109192993Y-31954075D01*
X109129409Y-31937037D01*
X109799627Y-31266818D01*
X109860950Y-31233333D01*
X109887307Y-31230499D01*
X109897872Y-31230499D01*
X109957483Y-31224091D01*
X110092331Y-31173796D01*
X110207546Y-31087546D01*
X110293796Y-30972331D01*
X110344091Y-30837483D01*
X110350500Y-30777873D01*
X110350499Y-28982128D01*
X110344091Y-28922517D01*
X110293796Y-28787669D01*
X110293795Y-28787668D01*
X110293793Y-28787664D01*
X110207547Y-28672455D01*
X110207544Y-28672452D01*
X110092335Y-28586206D01*
X110092328Y-28586202D01*
X109957482Y-28535908D01*
X109957483Y-28535908D01*
X109897883Y-28529501D01*
X109897881Y-28529500D01*
X109897873Y-28529500D01*
X109897864Y-28529500D01*
X108102129Y-28529500D01*
X108102123Y-28529501D01*
X108042516Y-28535908D01*
X107907671Y-28586202D01*
X107907664Y-28586206D01*
X107792455Y-28672452D01*
X107792452Y-28672455D01*
X107706206Y-28787664D01*
X107706202Y-28787671D01*
X107655908Y-28922517D01*
X107651608Y-28962516D01*
X107649501Y-28982123D01*
X107649500Y-28982135D01*
X107649500Y-30777870D01*
X107649501Y-30777876D01*
X107655908Y-30837483D01*
X107706202Y-30972328D01*
X107706206Y-30972335D01*
X107792452Y-31087544D01*
X107792455Y-31087547D01*
X107907664Y-31173793D01*
X107907671Y-31173797D01*
X107952618Y-31190561D01*
X108042517Y-31224091D01*
X108102127Y-31230500D01*
X108112685Y-31230499D01*
X108179723Y-31250179D01*
X108200372Y-31266818D01*
X108870591Y-31937037D01*
X108807007Y-31954075D01*
X108692993Y-32019901D01*
X108599901Y-32112993D01*
X108534075Y-32227007D01*
X108517037Y-32290591D01*
X107884728Y-31658282D01*
X107884727Y-31658282D01*
X107845380Y-31712439D01*
X107748904Y-31901782D01*
X107683242Y-32103869D01*
X107683242Y-32103872D01*
X107650000Y-32313753D01*
X107650000Y-32526246D01*
X107683242Y-32736127D01*
X107683242Y-32736130D01*
X107748904Y-32938217D01*
X107845379Y-33127557D01*
X107897370Y-33199118D01*
X107920850Y-33264925D01*
X107905024Y-33332978D01*
X107884734Y-33359684D01*
X107813135Y-33431283D01*
X107813133Y-33431285D01*
X105531238Y-35713181D01*
X105469915Y-35746666D01*
X105443557Y-35749500D01*
X92815781Y-35749500D01*
X92748742Y-35729815D01*
X92702987Y-35677011D01*
X92693043Y-35607853D01*
X92705296Y-35569205D01*
X92740557Y-35500000D01*
X92751557Y-35478412D01*
X92817246Y-35276243D01*
X92850500Y-35066287D01*
X92850500Y-34853713D01*
X92817246Y-34643757D01*
X92751557Y-34441588D01*
X92655051Y-34252184D01*
X92655049Y-34252181D01*
X92655048Y-34252179D01*
X92530109Y-34080213D01*
X92379786Y-33929890D01*
X92207820Y-33804951D01*
X92207115Y-33804591D01*
X92199054Y-33800485D01*
X92148259Y-33752512D01*
X92131463Y-33684692D01*
X92153999Y-33618556D01*
X92199054Y-33579515D01*
X92207816Y-33575051D01*
X92253175Y-33542096D01*
X92379786Y-33450109D01*
X92379788Y-33450106D01*
X92379792Y-33450104D01*
X92530104Y-33299792D01*
X92530106Y-33299788D01*
X92530109Y-33299786D01*
X92655048Y-33127820D01*
X92655047Y-33127820D01*
X92655051Y-33127816D01*
X92751557Y-32938412D01*
X92817246Y-32736243D01*
X92850500Y-32526287D01*
X92850500Y-32313713D01*
X92817246Y-32103757D01*
X92751557Y-31901588D01*
X92655051Y-31712184D01*
X92655049Y-31712181D01*
X92655048Y-31712179D01*
X92530109Y-31540213D01*
X92416569Y-31426673D01*
X92383084Y-31365350D01*
X92388068Y-31295658D01*
X92429940Y-31239725D01*
X92460915Y-31222810D01*
X92592331Y-31173796D01*
X92707546Y-31087546D01*
X92793796Y-30972331D01*
X92844091Y-30837483D01*
X92850500Y-30777873D01*
X92850499Y-28982128D01*
X92844091Y-28922517D01*
X92793796Y-28787669D01*
X92793795Y-28787668D01*
X92793793Y-28787664D01*
X92707547Y-28672455D01*
X92707544Y-28672452D01*
X92592335Y-28586206D01*
X92592328Y-28586202D01*
X92457482Y-28535908D01*
X92457483Y-28535908D01*
X92397883Y-28529501D01*
X92397881Y-28529500D01*
X92397873Y-28529500D01*
X92397864Y-28529500D01*
X90602129Y-28529500D01*
X90602123Y-28529501D01*
X90542516Y-28535908D01*
X90407671Y-28586202D01*
X90407664Y-28586206D01*
X90292455Y-28672452D01*
X90292452Y-28672455D01*
X90206206Y-28787664D01*
X90206202Y-28787671D01*
X90155908Y-28922517D01*
X90151608Y-28962516D01*
X90149501Y-28982123D01*
X90149500Y-28982135D01*
X90149500Y-30777870D01*
X90149501Y-30777876D01*
X90155908Y-30837483D01*
X90206202Y-30972328D01*
X90206206Y-30972335D01*
X90292452Y-31087544D01*
X90292455Y-31087547D01*
X90407664Y-31173793D01*
X90407671Y-31173797D01*
X90539082Y-31222810D01*
X90595016Y-31264681D01*
X90619433Y-31330145D01*
X90604582Y-31398418D01*
X90583431Y-31426673D01*
X90469889Y-31540215D01*
X90344951Y-31712179D01*
X90248444Y-31901585D01*
X90182753Y-32103760D01*
X90149500Y-32313713D01*
X90149500Y-32526286D01*
X90182735Y-32736127D01*
X90182754Y-32736243D01*
X90248380Y-32938219D01*
X90248444Y-32938414D01*
X90344951Y-33127820D01*
X90469890Y-33299786D01*
X90620213Y-33450109D01*
X90792182Y-33575050D01*
X90800946Y-33579516D01*
X90851742Y-33627491D01*
X90868536Y-33695312D01*
X90845998Y-33761447D01*
X90800946Y-33800484D01*
X90792182Y-33804949D01*
X90620213Y-33929890D01*
X90469890Y-34080213D01*
X90344951Y-34252179D01*
X90248444Y-34441585D01*
X90182753Y-34643760D01*
X90149500Y-34853713D01*
X90149500Y-35066286D01*
X90182753Y-35276239D01*
X90182753Y-35276241D01*
X90182754Y-35276243D01*
X90237431Y-35444522D01*
X90248444Y-35478414D01*
X90344948Y-35667814D01*
X90348409Y-35672578D01*
X90371887Y-35738385D01*
X90356060Y-35806439D01*
X90310091Y-35852847D01*
X90281287Y-35869477D01*
X90281282Y-35869481D01*
X89485339Y-36665425D01*
X89424016Y-36698910D01*
X89421850Y-36699361D01*
X89266508Y-36730261D01*
X89266498Y-36730264D01*
X89120827Y-36790602D01*
X89120819Y-36790607D01*
X88989125Y-36878602D01*
X88922447Y-36899480D01*
X88920234Y-36899500D01*
X82130097Y-36899500D01*
X82063058Y-36879815D01*
X82042416Y-36863181D01*
X79334574Y-34155339D01*
X79301089Y-34094016D01*
X79300638Y-34091849D01*
X79269738Y-33936510D01*
X79269737Y-33936503D01*
X79231990Y-33845372D01*
X79209397Y-33790827D01*
X79209390Y-33790814D01*
X79121789Y-33659711D01*
X79121786Y-33659707D01*
X79010292Y-33548213D01*
X79010288Y-33548210D01*
X78879185Y-33460609D01*
X78879172Y-33460602D01*
X78733501Y-33400264D01*
X78733489Y-33400261D01*
X78578845Y-33369500D01*
X78578842Y-33369500D01*
X78421158Y-33369500D01*
X78421155Y-33369500D01*
X78266510Y-33400261D01*
X78266498Y-33400264D01*
X78120827Y-33460602D01*
X78120814Y-33460609D01*
X77989711Y-33548210D01*
X77989707Y-33548213D01*
X77878217Y-33659704D01*
X77878211Y-33659711D01*
X77865653Y-33678505D01*
X77812040Y-33723310D01*
X77742715Y-33732016D01*
X77738361Y-33731230D01*
X77578845Y-33699500D01*
X77578842Y-33699500D01*
X77421158Y-33699500D01*
X77421153Y-33699500D01*
X77318048Y-33720009D01*
X77248456Y-33713782D01*
X77193279Y-33670919D01*
X77170035Y-33605029D01*
X77183373Y-33542096D01*
X77205217Y-33499225D01*
X77205218Y-33499223D01*
X77205220Y-33499219D01*
X77268477Y-33304534D01*
X77300500Y-33102352D01*
X77300500Y-32897648D01*
X77268477Y-32695466D01*
X77205220Y-32500781D01*
X77205218Y-32500778D01*
X77205218Y-32500776D01*
X77164060Y-32420000D01*
X77112287Y-32318390D01*
X77104556Y-32307749D01*
X76991971Y-32152786D01*
X76847213Y-32008028D01*
X76681613Y-31887715D01*
X76681612Y-31887714D01*
X76681610Y-31887713D01*
X76624653Y-31858691D01*
X76499223Y-31794781D01*
X76304534Y-31731522D01*
X76129995Y-31703878D01*
X76102352Y-31699500D01*
X75897648Y-31699500D01*
X75873329Y-31703351D01*
X75695465Y-31731522D01*
X75500776Y-31794781D01*
X75318386Y-31887715D01*
X75152786Y-32008028D01*
X75008028Y-32152786D01*
X74887715Y-32318386D01*
X74794781Y-32500776D01*
X74731522Y-32695465D01*
X74699500Y-32897648D01*
X74699500Y-33102351D01*
X74731522Y-33304534D01*
X74794781Y-33499223D01*
X74833418Y-33575051D01*
X74876551Y-33659704D01*
X74887715Y-33681613D01*
X75008028Y-33847213D01*
X75152786Y-33991971D01*
X75289308Y-34091158D01*
X75318390Y-34112287D01*
X75432592Y-34170476D01*
X75500776Y-34205218D01*
X75500778Y-34205218D01*
X75500781Y-34205220D01*
X75602535Y-34238282D01*
X75695465Y-34268477D01*
X75771495Y-34280519D01*
X75897648Y-34300500D01*
X75897649Y-34300500D01*
X76102351Y-34300500D01*
X76102352Y-34300500D01*
X76304534Y-34268477D01*
X76499219Y-34205220D01*
X76542096Y-34183372D01*
X76610765Y-34170476D01*
X76675506Y-34196751D01*
X76715763Y-34253857D01*
X76720009Y-34318049D01*
X76699361Y-34421850D01*
X76666976Y-34483761D01*
X76665425Y-34485339D01*
X74419481Y-36731282D01*
X74419479Y-36731284D01*
X74395406Y-36772981D01*
X74385231Y-36790606D01*
X74340423Y-36868215D01*
X74299499Y-37020943D01*
X74299499Y-37020945D01*
X74299499Y-37189046D01*
X74299500Y-37189059D01*
X74299500Y-43528965D01*
X74299499Y-43528983D01*
X74299499Y-43694689D01*
X74299498Y-43694689D01*
X74340424Y-43847424D01*
X74340425Y-43847425D01*
X74365747Y-43891283D01*
X74365748Y-43891285D01*
X74419475Y-43984344D01*
X74419481Y-43984352D01*
X74538349Y-44103220D01*
X74538354Y-44103224D01*
X75175649Y-44740520D01*
X75175651Y-44740521D01*
X75175655Y-44740524D01*
X75312574Y-44819573D01*
X75312577Y-44819575D01*
X75312581Y-44819577D01*
X75465308Y-44860501D01*
X75465310Y-44860501D01*
X75631019Y-44860501D01*
X75631035Y-44860500D01*
X87193331Y-44860500D01*
X87193347Y-44860501D01*
X87200943Y-44860501D01*
X87359054Y-44860501D01*
X87359057Y-44860501D01*
X87511785Y-44819577D01*
X87600746Y-44768215D01*
X87648716Y-44740520D01*
X87760520Y-44628716D01*
X87760520Y-44628714D01*
X87770724Y-44618511D01*
X87770728Y-44618506D01*
X89937819Y-42451415D01*
X89999142Y-42417930D01*
X90068834Y-42422914D01*
X90124767Y-42464786D01*
X90149184Y-42530250D01*
X90149500Y-42539096D01*
X90149500Y-42686287D01*
X90156976Y-42733489D01*
X90178393Y-42868713D01*
X90182754Y-42896243D01*
X90247937Y-43096856D01*
X90248444Y-43098414D01*
X90344951Y-43287820D01*
X90469890Y-43459786D01*
X90620213Y-43610109D01*
X90792182Y-43735050D01*
X90800946Y-43739516D01*
X90851742Y-43787491D01*
X90868536Y-43855312D01*
X90845998Y-43921447D01*
X90800946Y-43960484D01*
X90792182Y-43964949D01*
X90620213Y-44089890D01*
X90469890Y-44240213D01*
X90344951Y-44412179D01*
X90248444Y-44601585D01*
X90182753Y-44803760D01*
X90149500Y-45013713D01*
X90149500Y-45226286D01*
X90178740Y-45410903D01*
X90182754Y-45436243D01*
X90247937Y-45636856D01*
X90248444Y-45638414D01*
X90344951Y-45827820D01*
X90469890Y-45999786D01*
X90620213Y-46150109D01*
X90792179Y-46275048D01*
X90792181Y-46275049D01*
X90792184Y-46275051D01*
X90981588Y-46371557D01*
X91183757Y-46437246D01*
X91393713Y-46470500D01*
X91393714Y-46470500D01*
X91606286Y-46470500D01*
X91606287Y-46470500D01*
X91816243Y-46437246D01*
X91858523Y-46423507D01*
X91928362Y-46421511D01*
X91984521Y-46453756D01*
X92281284Y-46750520D01*
X92281286Y-46750521D01*
X92281290Y-46750524D01*
X92396626Y-46817112D01*
X92418216Y-46829577D01*
X92570943Y-46870501D01*
X92570945Y-46870501D01*
X92736654Y-46870501D01*
X92736670Y-46870500D01*
X129643331Y-46870500D01*
X129643347Y-46870501D01*
X129650943Y-46870501D01*
X129809054Y-46870501D01*
X129809057Y-46870501D01*
X129961785Y-46829577D01*
X129983375Y-46817111D01*
X130045373Y-46800500D01*
X130078844Y-46800500D01*
X130078845Y-46800499D01*
X130233497Y-46769737D01*
X130356763Y-46718679D01*
X130379172Y-46709397D01*
X130379172Y-46709396D01*
X130379179Y-46709394D01*
X130510289Y-46621789D01*
X130621789Y-46510289D01*
X130709394Y-46379179D01*
X130711029Y-46375233D01*
X130744760Y-46293797D01*
X130769737Y-46233497D01*
X130785426Y-46154624D01*
X130796231Y-46100308D01*
X130828616Y-46038397D01*
X130889332Y-46003823D01*
X130917848Y-46000500D01*
X132534217Y-46000500D01*
X132601256Y-46020185D01*
X132621898Y-46036819D01*
X134949453Y-48364374D01*
X134949463Y-48364385D01*
X134953793Y-48368715D01*
X134953794Y-48368716D01*
X135065598Y-48480520D01*
X135152409Y-48530639D01*
X135152411Y-48530641D01*
X135202527Y-48559576D01*
X135202529Y-48559577D01*
X135355256Y-48600500D01*
X135355257Y-48600500D01*
X141373331Y-48600500D01*
X141373347Y-48600501D01*
X141380943Y-48600501D01*
X141539054Y-48600501D01*
X141539057Y-48600501D01*
X141691785Y-48559577D01*
X141741904Y-48530639D01*
X141828716Y-48480520D01*
X141940520Y-48368716D01*
X141940520Y-48368714D01*
X141950728Y-48358507D01*
X141950730Y-48358504D01*
X143475478Y-46833755D01*
X143536799Y-46800272D01*
X143601473Y-46803506D01*
X143643757Y-46817246D01*
X143853713Y-46850500D01*
X143853714Y-46850500D01*
X144066286Y-46850500D01*
X144066287Y-46850500D01*
X144276243Y-46817246D01*
X144478412Y-46751557D01*
X144667816Y-46655051D01*
X144713602Y-46621786D01*
X144839786Y-46530109D01*
X144839788Y-46530106D01*
X144839792Y-46530104D01*
X144990104Y-46379792D01*
X144990106Y-46379788D01*
X144990109Y-46379786D01*
X145115048Y-46207820D01*
X145115047Y-46207820D01*
X145115051Y-46207816D01*
X145119514Y-46199054D01*
X145167488Y-46148259D01*
X145235308Y-46131463D01*
X145301444Y-46153999D01*
X145340486Y-46199056D01*
X145344951Y-46207820D01*
X145469890Y-46379786D01*
X145620213Y-46530109D01*
X145792179Y-46655048D01*
X145792181Y-46655049D01*
X145792184Y-46655051D01*
X145981588Y-46751557D01*
X146183757Y-46817246D01*
X146393713Y-46850500D01*
X146393714Y-46850500D01*
X146606286Y-46850500D01*
X146606287Y-46850500D01*
X146816243Y-46817246D01*
X147018412Y-46751557D01*
X147207816Y-46655051D01*
X147253602Y-46621786D01*
X147379786Y-46530109D01*
X147379788Y-46530106D01*
X147379792Y-46530104D01*
X147530104Y-46379792D01*
X147530106Y-46379788D01*
X147530109Y-46379786D01*
X147655048Y-46207820D01*
X147655047Y-46207820D01*
X147655051Y-46207816D01*
X147659514Y-46199054D01*
X147707488Y-46148259D01*
X147775308Y-46131463D01*
X147841444Y-46153999D01*
X147880486Y-46199056D01*
X147884951Y-46207820D01*
X148009890Y-46379786D01*
X148160213Y-46530109D01*
X148332179Y-46655048D01*
X148332181Y-46655049D01*
X148332184Y-46655051D01*
X148521588Y-46751557D01*
X148723757Y-46817246D01*
X148933713Y-46850500D01*
X148933714Y-46850500D01*
X149146286Y-46850500D01*
X149146287Y-46850500D01*
X149356243Y-46817246D01*
X149558412Y-46751557D01*
X149747816Y-46655051D01*
X149793602Y-46621786D01*
X149919786Y-46530109D01*
X149919788Y-46530106D01*
X149919792Y-46530104D01*
X150070104Y-46379792D01*
X150070106Y-46379788D01*
X150070109Y-46379786D01*
X150195048Y-46207820D01*
X150195047Y-46207820D01*
X150195051Y-46207816D01*
X150199514Y-46199054D01*
X150247488Y-46148259D01*
X150315308Y-46131463D01*
X150381444Y-46153999D01*
X150420486Y-46199056D01*
X150424951Y-46207820D01*
X150549890Y-46379786D01*
X150700213Y-46530109D01*
X150872184Y-46655051D01*
X150872184Y-46655052D01*
X150911793Y-46675233D01*
X150962590Y-46723206D01*
X150979500Y-46785718D01*
X150979500Y-55379902D01*
X150959815Y-55446941D01*
X150943181Y-55467583D01*
X145562180Y-60848584D01*
X145500857Y-60882069D01*
X145431165Y-60877085D01*
X145375232Y-60835213D01*
X145350815Y-60769749D01*
X145350499Y-60760903D01*
X145350499Y-60062129D01*
X145350498Y-60062123D01*
X145350497Y-60062116D01*
X145344091Y-60002517D01*
X145335810Y-59980315D01*
X145293797Y-59867671D01*
X145293793Y-59867664D01*
X145207547Y-59752455D01*
X145207544Y-59752452D01*
X145092335Y-59666206D01*
X145092328Y-59666202D01*
X144957482Y-59615908D01*
X144957483Y-59615908D01*
X144897883Y-59609501D01*
X144897881Y-59609500D01*
X144897873Y-59609500D01*
X144897865Y-59609500D01*
X143550098Y-59609500D01*
X143483059Y-59589815D01*
X143462417Y-59573181D01*
X140527590Y-56638355D01*
X140527588Y-56638352D01*
X140408717Y-56519481D01*
X140408716Y-56519480D01*
X140321904Y-56469360D01*
X140321904Y-56469359D01*
X140321900Y-56469358D01*
X140271785Y-56440423D01*
X140119057Y-56399499D01*
X139960943Y-56399499D01*
X139953347Y-56399499D01*
X139953331Y-56399500D01*
X75380098Y-56399500D01*
X75313059Y-56379815D01*
X75292417Y-56363181D01*
X64413757Y-45484522D01*
X64380272Y-45423199D01*
X64383507Y-45358523D01*
X64397246Y-45316243D01*
X64430500Y-45106287D01*
X64430500Y-44893713D01*
X64397246Y-44683757D01*
X64331557Y-44481588D01*
X64235051Y-44292184D01*
X64235049Y-44292181D01*
X64235048Y-44292179D01*
X64110109Y-44120213D01*
X63959786Y-43969890D01*
X63787820Y-43844951D01*
X63598414Y-43748444D01*
X63598413Y-43748443D01*
X63598412Y-43748443D01*
X63396243Y-43682754D01*
X63396241Y-43682753D01*
X63396240Y-43682753D01*
X63231531Y-43656666D01*
X63186287Y-43649500D01*
X62973713Y-43649500D01*
X62928469Y-43656666D01*
X62763760Y-43682753D01*
X62561585Y-43748444D01*
X62372179Y-43844951D01*
X62200213Y-43969890D01*
X62049890Y-44120213D01*
X61924949Y-44292182D01*
X61920484Y-44300946D01*
X61872509Y-44351742D01*
X61804688Y-44368536D01*
X61738553Y-44345998D01*
X61699516Y-44300946D01*
X61695050Y-44292182D01*
X61570109Y-44120213D01*
X61419786Y-43969890D01*
X61247820Y-43844951D01*
X61058414Y-43748444D01*
X61058413Y-43748443D01*
X61058412Y-43748443D01*
X60856243Y-43682754D01*
X60856241Y-43682753D01*
X60856240Y-43682753D01*
X60691531Y-43656666D01*
X60646287Y-43649500D01*
X60433713Y-43649500D01*
X60388469Y-43656666D01*
X60223760Y-43682753D01*
X60021585Y-43748444D01*
X59832179Y-43844951D01*
X59660213Y-43969890D01*
X59509890Y-44120213D01*
X59384949Y-44292182D01*
X59380484Y-44300946D01*
X59332509Y-44351742D01*
X59264688Y-44368536D01*
X59198553Y-44345998D01*
X59159516Y-44300946D01*
X59155050Y-44292182D01*
X59030109Y-44120213D01*
X58879786Y-43969890D01*
X58707820Y-43844951D01*
X58518414Y-43748444D01*
X58518413Y-43748443D01*
X58518412Y-43748443D01*
X58316243Y-43682754D01*
X58316241Y-43682753D01*
X58316240Y-43682753D01*
X58151531Y-43656666D01*
X58106287Y-43649500D01*
X57893713Y-43649500D01*
X57848469Y-43656666D01*
X57683760Y-43682753D01*
X57481585Y-43748444D01*
X57292179Y-43844951D01*
X57120213Y-43969890D01*
X56969890Y-44120213D01*
X56844949Y-44292182D01*
X56840484Y-44300946D01*
X56792509Y-44351742D01*
X56724688Y-44368536D01*
X56658553Y-44345998D01*
X56619516Y-44300946D01*
X56615050Y-44292182D01*
X56490109Y-44120213D01*
X56339786Y-43969890D01*
X56167820Y-43844951D01*
X55978414Y-43748444D01*
X55978413Y-43748443D01*
X55978412Y-43748443D01*
X55776243Y-43682754D01*
X55776241Y-43682753D01*
X55776240Y-43682753D01*
X55611531Y-43656666D01*
X55566287Y-43649500D01*
X55353713Y-43649500D01*
X55308469Y-43656666D01*
X55143760Y-43682753D01*
X54941585Y-43748444D01*
X54752179Y-43844951D01*
X54580213Y-43969890D01*
X54429890Y-44120213D01*
X54304949Y-44292182D01*
X54300484Y-44300946D01*
X54252509Y-44351742D01*
X54184688Y-44368536D01*
X54118553Y-44345998D01*
X54079516Y-44300946D01*
X54075050Y-44292182D01*
X53950109Y-44120213D01*
X53799786Y-43969890D01*
X53627820Y-43844951D01*
X53438414Y-43748444D01*
X53438413Y-43748443D01*
X53438412Y-43748443D01*
X53236243Y-43682754D01*
X53236241Y-43682753D01*
X53236240Y-43682753D01*
X53071531Y-43656666D01*
X53026287Y-43649500D01*
X52813713Y-43649500D01*
X52768469Y-43656666D01*
X52603760Y-43682753D01*
X52401585Y-43748444D01*
X52212179Y-43844951D01*
X52040213Y-43969890D01*
X51889890Y-44120213D01*
X51764949Y-44292182D01*
X51760202Y-44301499D01*
X51712227Y-44352293D01*
X51644405Y-44369087D01*
X51578271Y-44346548D01*
X51539234Y-44301495D01*
X51534626Y-44292452D01*
X51495270Y-44238282D01*
X51495269Y-44238282D01*
X50862962Y-44870590D01*
X50845925Y-44807007D01*
X50780099Y-44692993D01*
X50687007Y-44599901D01*
X50572993Y-44534075D01*
X50509409Y-44517037D01*
X51141716Y-43884728D01*
X51087550Y-43845375D01*
X50898217Y-43748904D01*
X50696129Y-43683242D01*
X50486246Y-43650000D01*
X50273754Y-43650000D01*
X50063872Y-43683242D01*
X50063869Y-43683242D01*
X49861782Y-43748904D01*
X49672439Y-43845380D01*
X49618282Y-43884727D01*
X49618282Y-43884728D01*
X50250591Y-44517037D01*
X50187007Y-44534075D01*
X50072993Y-44599901D01*
X49979901Y-44692993D01*
X49914075Y-44807007D01*
X49897037Y-44870591D01*
X49264728Y-44238282D01*
X49264727Y-44238282D01*
X49225380Y-44292440D01*
X49225376Y-44292446D01*
X49220760Y-44301505D01*
X49172781Y-44352297D01*
X49104959Y-44369087D01*
X49038826Y-44346543D01*
X48999794Y-44301493D01*
X48995051Y-44292184D01*
X48995049Y-44292181D01*
X48995048Y-44292179D01*
X48870109Y-44120213D01*
X48719786Y-43969890D01*
X48547820Y-43844951D01*
X48358414Y-43748444D01*
X48358413Y-43748443D01*
X48358412Y-43748443D01*
X48156243Y-43682754D01*
X48156241Y-43682753D01*
X48156240Y-43682753D01*
X47991531Y-43656666D01*
X47946287Y-43649500D01*
X47733713Y-43649500D01*
X47688469Y-43656666D01*
X47523760Y-43682753D01*
X47321585Y-43748444D01*
X47132179Y-43844951D01*
X46960213Y-43969890D01*
X46809890Y-44120213D01*
X46684949Y-44292182D01*
X46680484Y-44300946D01*
X46632509Y-44351742D01*
X46564688Y-44368536D01*
X46498553Y-44345998D01*
X46459516Y-44300946D01*
X46455050Y-44292182D01*
X46330109Y-44120213D01*
X46179786Y-43969890D01*
X46007820Y-43844951D01*
X45818414Y-43748444D01*
X45818413Y-43748443D01*
X45818412Y-43748443D01*
X45616243Y-43682754D01*
X45616241Y-43682753D01*
X45616240Y-43682753D01*
X45451531Y-43656666D01*
X45406287Y-43649500D01*
X45193713Y-43649500D01*
X45148469Y-43656666D01*
X44983760Y-43682753D01*
X44781585Y-43748444D01*
X44592179Y-43844951D01*
X44420213Y-43969890D01*
X44269890Y-44120213D01*
X44144949Y-44292182D01*
X44140202Y-44301499D01*
X44092227Y-44352293D01*
X44024405Y-44369087D01*
X43958271Y-44346548D01*
X43919234Y-44301495D01*
X43914626Y-44292452D01*
X43875270Y-44238282D01*
X43875269Y-44238282D01*
X43242962Y-44870590D01*
X43225925Y-44807007D01*
X43160099Y-44692993D01*
X43067007Y-44599901D01*
X42952993Y-44534075D01*
X42889409Y-44517037D01*
X43521716Y-43884728D01*
X43467550Y-43845375D01*
X43278217Y-43748904D01*
X43076129Y-43683242D01*
X42866246Y-43650000D01*
X42653754Y-43650000D01*
X42443872Y-43683242D01*
X42443869Y-43683242D01*
X42241782Y-43748904D01*
X42052439Y-43845380D01*
X41998282Y-43884727D01*
X41998282Y-43884728D01*
X42630591Y-44517037D01*
X42567007Y-44534075D01*
X42452993Y-44599901D01*
X42359901Y-44692993D01*
X42294075Y-44807007D01*
X42277037Y-44870591D01*
X41606818Y-44200372D01*
X41573333Y-44139049D01*
X41573330Y-44139036D01*
X41570499Y-44126015D01*
X41570499Y-44102128D01*
X41564091Y-44042517D01*
X41535160Y-43964949D01*
X41513798Y-43907673D01*
X41513793Y-43907664D01*
X41427547Y-43792455D01*
X41427544Y-43792452D01*
X41312335Y-43706206D01*
X41312328Y-43706202D01*
X41177482Y-43655908D01*
X41177483Y-43655908D01*
X41117883Y-43649501D01*
X41117881Y-43649500D01*
X41117873Y-43649500D01*
X41117864Y-43649500D01*
X39322129Y-43649500D01*
X39322123Y-43649501D01*
X39262516Y-43655908D01*
X39127671Y-43706202D01*
X39127664Y-43706206D01*
X39012455Y-43792452D01*
X39012452Y-43792455D01*
X38926206Y-43907664D01*
X38926202Y-43907671D01*
X38875908Y-44042517D01*
X38869501Y-44102116D01*
X38869500Y-44102135D01*
X23000500Y-44102135D01*
X23000500Y-19624500D01*
X23020185Y-19557461D01*
X23072989Y-19511706D01*
X23124500Y-19500500D01*
X177375500Y-19500500D01*
X177442539Y-19520185D01*
G37*
%TD.AperFunction*%
%TD*%
M02*
