%TF.GenerationSoftware,KiCad,Pcbnew,10.0.0*%
%TF.CreationDate,2026-03-22T13:59:09-07:00*%
%TF.ProjectId,battery_tester,62617474-6572-4795-9f74-65737465722e,rev?*%
%TF.SameCoordinates,Original*%
%TF.FileFunction,Legend,Top*%
%TF.FilePolarity,Positive*%
%FSLAX46Y46*%
G04 Gerber Fmt 4.6, Leading zero omitted, Abs format (unit mm)*
G04 Created by KiCad (PCBNEW 10.0.0) date 2026-03-22 13:59:09*
%MOMM*%
%LPD*%
G01*
G04 APERTURE LIST*
%ADD10C,0.300000*%
%ADD11C,0.150000*%
G04 APERTURE END LIST*
D10*
X30411653Y-26215996D02*
X30840225Y-26358853D01*
X30840225Y-26358853D02*
X30983082Y-26501710D01*
X30983082Y-26501710D02*
X31125939Y-26787425D01*
X31125939Y-26787425D02*
X31125939Y-27215996D01*
X31125939Y-27215996D02*
X30983082Y-27501710D01*
X30983082Y-27501710D02*
X30840225Y-27644568D01*
X30840225Y-27644568D02*
X30554510Y-27787425D01*
X30554510Y-27787425D02*
X29411653Y-27787425D01*
X29411653Y-27787425D02*
X29411653Y-24787425D01*
X29411653Y-24787425D02*
X30411653Y-24787425D01*
X30411653Y-24787425D02*
X30697368Y-24930282D01*
X30697368Y-24930282D02*
X30840225Y-25073139D01*
X30840225Y-25073139D02*
X30983082Y-25358853D01*
X30983082Y-25358853D02*
X30983082Y-25644568D01*
X30983082Y-25644568D02*
X30840225Y-25930282D01*
X30840225Y-25930282D02*
X30697368Y-26073139D01*
X30697368Y-26073139D02*
X30411653Y-26215996D01*
X30411653Y-26215996D02*
X29411653Y-26215996D01*
X33697368Y-27787425D02*
X33697368Y-26215996D01*
X33697368Y-26215996D02*
X33554510Y-25930282D01*
X33554510Y-25930282D02*
X33268796Y-25787425D01*
X33268796Y-25787425D02*
X32697368Y-25787425D01*
X32697368Y-25787425D02*
X32411653Y-25930282D01*
X33697368Y-27644568D02*
X33411653Y-27787425D01*
X33411653Y-27787425D02*
X32697368Y-27787425D01*
X32697368Y-27787425D02*
X32411653Y-27644568D01*
X32411653Y-27644568D02*
X32268796Y-27358853D01*
X32268796Y-27358853D02*
X32268796Y-27073139D01*
X32268796Y-27073139D02*
X32411653Y-26787425D01*
X32411653Y-26787425D02*
X32697368Y-26644568D01*
X32697368Y-26644568D02*
X33411653Y-26644568D01*
X33411653Y-26644568D02*
X33697368Y-26501710D01*
X34697368Y-25787425D02*
X35840225Y-25787425D01*
X35125939Y-24787425D02*
X35125939Y-27358853D01*
X35125939Y-27358853D02*
X35268796Y-27644568D01*
X35268796Y-27644568D02*
X35554511Y-27787425D01*
X35554511Y-27787425D02*
X35840225Y-27787425D01*
X36411654Y-25787425D02*
X37554511Y-25787425D01*
X36840225Y-24787425D02*
X36840225Y-27358853D01*
X36840225Y-27358853D02*
X36983082Y-27644568D01*
X36983082Y-27644568D02*
X37268797Y-27787425D01*
X37268797Y-27787425D02*
X37554511Y-27787425D01*
X39697368Y-27644568D02*
X39411654Y-27787425D01*
X39411654Y-27787425D02*
X38840226Y-27787425D01*
X38840226Y-27787425D02*
X38554511Y-27644568D01*
X38554511Y-27644568D02*
X38411654Y-27358853D01*
X38411654Y-27358853D02*
X38411654Y-26215996D01*
X38411654Y-26215996D02*
X38554511Y-25930282D01*
X38554511Y-25930282D02*
X38840226Y-25787425D01*
X38840226Y-25787425D02*
X39411654Y-25787425D01*
X39411654Y-25787425D02*
X39697368Y-25930282D01*
X39697368Y-25930282D02*
X39840226Y-26215996D01*
X39840226Y-26215996D02*
X39840226Y-26501710D01*
X39840226Y-26501710D02*
X38411654Y-26787425D01*
X41125940Y-27787425D02*
X41125940Y-25787425D01*
X41125940Y-26358853D02*
X41268797Y-26073139D01*
X41268797Y-26073139D02*
X41411655Y-25930282D01*
X41411655Y-25930282D02*
X41697369Y-25787425D01*
X41697369Y-25787425D02*
X41983083Y-25787425D01*
X42697369Y-25787425D02*
X43411655Y-27787425D01*
X44125940Y-25787425D02*
X43411655Y-27787425D01*
X43411655Y-27787425D02*
X43125940Y-28501710D01*
X43125940Y-28501710D02*
X42983083Y-28644568D01*
X42983083Y-28644568D02*
X42697369Y-28787425D01*
X47125940Y-24787425D02*
X48840226Y-24787425D01*
X47983083Y-27787425D02*
X47983083Y-24787425D01*
X50983082Y-27644568D02*
X50697368Y-27787425D01*
X50697368Y-27787425D02*
X50125940Y-27787425D01*
X50125940Y-27787425D02*
X49840225Y-27644568D01*
X49840225Y-27644568D02*
X49697368Y-27358853D01*
X49697368Y-27358853D02*
X49697368Y-26215996D01*
X49697368Y-26215996D02*
X49840225Y-25930282D01*
X49840225Y-25930282D02*
X50125940Y-25787425D01*
X50125940Y-25787425D02*
X50697368Y-25787425D01*
X50697368Y-25787425D02*
X50983082Y-25930282D01*
X50983082Y-25930282D02*
X51125940Y-26215996D01*
X51125940Y-26215996D02*
X51125940Y-26501710D01*
X51125940Y-26501710D02*
X49697368Y-26787425D01*
X52268797Y-27644568D02*
X52554511Y-27787425D01*
X52554511Y-27787425D02*
X53125940Y-27787425D01*
X53125940Y-27787425D02*
X53411654Y-27644568D01*
X53411654Y-27644568D02*
X53554511Y-27358853D01*
X53554511Y-27358853D02*
X53554511Y-27215996D01*
X53554511Y-27215996D02*
X53411654Y-26930282D01*
X53411654Y-26930282D02*
X53125940Y-26787425D01*
X53125940Y-26787425D02*
X52697369Y-26787425D01*
X52697369Y-26787425D02*
X52411654Y-26644568D01*
X52411654Y-26644568D02*
X52268797Y-26358853D01*
X52268797Y-26358853D02*
X52268797Y-26215996D01*
X52268797Y-26215996D02*
X52411654Y-25930282D01*
X52411654Y-25930282D02*
X52697369Y-25787425D01*
X52697369Y-25787425D02*
X53125940Y-25787425D01*
X53125940Y-25787425D02*
X53411654Y-25930282D01*
X54411654Y-25787425D02*
X55554511Y-25787425D01*
X54840225Y-24787425D02*
X54840225Y-27358853D01*
X54840225Y-27358853D02*
X54983082Y-27644568D01*
X54983082Y-27644568D02*
X55268797Y-27787425D01*
X55268797Y-27787425D02*
X55554511Y-27787425D01*
X57697368Y-27644568D02*
X57411654Y-27787425D01*
X57411654Y-27787425D02*
X56840226Y-27787425D01*
X56840226Y-27787425D02*
X56554511Y-27644568D01*
X56554511Y-27644568D02*
X56411654Y-27358853D01*
X56411654Y-27358853D02*
X56411654Y-26215996D01*
X56411654Y-26215996D02*
X56554511Y-25930282D01*
X56554511Y-25930282D02*
X56840226Y-25787425D01*
X56840226Y-25787425D02*
X57411654Y-25787425D01*
X57411654Y-25787425D02*
X57697368Y-25930282D01*
X57697368Y-25930282D02*
X57840226Y-26215996D01*
X57840226Y-26215996D02*
X57840226Y-26501710D01*
X57840226Y-26501710D02*
X56411654Y-26787425D01*
X59125940Y-27787425D02*
X59125940Y-25787425D01*
X59125940Y-26358853D02*
X59268797Y-26073139D01*
X59268797Y-26073139D02*
X59411655Y-25930282D01*
X59411655Y-25930282D02*
X59697369Y-25787425D01*
X59697369Y-25787425D02*
X59983083Y-25787425D01*
X28983082Y-29617257D02*
X29983082Y-32617257D01*
X29983082Y-32617257D02*
X30983082Y-29617257D01*
X33554511Y-32617257D02*
X31840225Y-32617257D01*
X32697368Y-32617257D02*
X32697368Y-29617257D01*
X32697368Y-29617257D02*
X32411654Y-30045828D01*
X32411654Y-30045828D02*
X32125939Y-30331542D01*
X32125939Y-30331542D02*
X31840225Y-30474400D01*
X34840225Y-32331542D02*
X34983082Y-32474400D01*
X34983082Y-32474400D02*
X34840225Y-32617257D01*
X34840225Y-32617257D02*
X34697368Y-32474400D01*
X34697368Y-32474400D02*
X34840225Y-32331542D01*
X34840225Y-32331542D02*
X34840225Y-32617257D01*
X36840225Y-29617257D02*
X37125939Y-29617257D01*
X37125939Y-29617257D02*
X37411653Y-29760114D01*
X37411653Y-29760114D02*
X37554511Y-29902971D01*
X37554511Y-29902971D02*
X37697368Y-30188685D01*
X37697368Y-30188685D02*
X37840225Y-30760114D01*
X37840225Y-30760114D02*
X37840225Y-31474400D01*
X37840225Y-31474400D02*
X37697368Y-32045828D01*
X37697368Y-32045828D02*
X37554511Y-32331542D01*
X37554511Y-32331542D02*
X37411653Y-32474400D01*
X37411653Y-32474400D02*
X37125939Y-32617257D01*
X37125939Y-32617257D02*
X36840225Y-32617257D01*
X36840225Y-32617257D02*
X36554511Y-32474400D01*
X36554511Y-32474400D02*
X36411653Y-32331542D01*
X36411653Y-32331542D02*
X36268796Y-32045828D01*
X36268796Y-32045828D02*
X36125939Y-31474400D01*
X36125939Y-31474400D02*
X36125939Y-30760114D01*
X36125939Y-30760114D02*
X36268796Y-30188685D01*
X36268796Y-30188685D02*
X36411653Y-29902971D01*
X36411653Y-29902971D02*
X36554511Y-29760114D01*
X36554511Y-29760114D02*
X36840225Y-29617257D01*
X39125939Y-32331542D02*
X39268796Y-32474400D01*
X39268796Y-32474400D02*
X39125939Y-32617257D01*
X39125939Y-32617257D02*
X38983082Y-32474400D01*
X38983082Y-32474400D02*
X39125939Y-32331542D01*
X39125939Y-32331542D02*
X39125939Y-32617257D01*
X41125939Y-29617257D02*
X41411653Y-29617257D01*
X41411653Y-29617257D02*
X41697367Y-29760114D01*
X41697367Y-29760114D02*
X41840225Y-29902971D01*
X41840225Y-29902971D02*
X41983082Y-30188685D01*
X41983082Y-30188685D02*
X42125939Y-30760114D01*
X42125939Y-30760114D02*
X42125939Y-31474400D01*
X42125939Y-31474400D02*
X41983082Y-32045828D01*
X41983082Y-32045828D02*
X41840225Y-32331542D01*
X41840225Y-32331542D02*
X41697367Y-32474400D01*
X41697367Y-32474400D02*
X41411653Y-32617257D01*
X41411653Y-32617257D02*
X41125939Y-32617257D01*
X41125939Y-32617257D02*
X40840225Y-32474400D01*
X40840225Y-32474400D02*
X40697367Y-32331542D01*
X40697367Y-32331542D02*
X40554510Y-32045828D01*
X40554510Y-32045828D02*
X40411653Y-31474400D01*
X40411653Y-31474400D02*
X40411653Y-30760114D01*
X40411653Y-30760114D02*
X40554510Y-30188685D01*
X40554510Y-30188685D02*
X40697367Y-29902971D01*
X40697367Y-29902971D02*
X40840225Y-29760114D01*
X40840225Y-29760114D02*
X41125939Y-29617257D01*
X85499999Y-55338209D02*
X86452380Y-55338209D01*
X85309523Y-55909638D02*
X85976189Y-53909638D01*
X85976189Y-53909638D02*
X86642856Y-55909638D01*
X87214285Y-55338209D02*
X88166666Y-55338209D01*
X87023809Y-55909638D02*
X87690475Y-53909638D01*
X87690475Y-53909638D02*
X88357142Y-55909638D01*
X91690476Y-55719161D02*
X91595238Y-55814400D01*
X91595238Y-55814400D02*
X91309524Y-55909638D01*
X91309524Y-55909638D02*
X91119048Y-55909638D01*
X91119048Y-55909638D02*
X90833333Y-55814400D01*
X90833333Y-55814400D02*
X90642857Y-55623923D01*
X90642857Y-55623923D02*
X90547619Y-55433447D01*
X90547619Y-55433447D02*
X90452381Y-55052495D01*
X90452381Y-55052495D02*
X90452381Y-54766780D01*
X90452381Y-54766780D02*
X90547619Y-54385828D01*
X90547619Y-54385828D02*
X90642857Y-54195352D01*
X90642857Y-54195352D02*
X90833333Y-54004876D01*
X90833333Y-54004876D02*
X91119048Y-53909638D01*
X91119048Y-53909638D02*
X91309524Y-53909638D01*
X91309524Y-53909638D02*
X91595238Y-54004876D01*
X91595238Y-54004876D02*
X91690476Y-54100114D01*
X92547619Y-55909638D02*
X92547619Y-53909638D01*
X92547619Y-54862019D02*
X93690476Y-54862019D01*
X93690476Y-55909638D02*
X93690476Y-53909638D01*
X94547619Y-55338209D02*
X95500000Y-55338209D01*
X94357143Y-55909638D02*
X95023809Y-53909638D01*
X95023809Y-53909638D02*
X95690476Y-55909638D01*
X96357143Y-55909638D02*
X96357143Y-53909638D01*
X96357143Y-53909638D02*
X97500000Y-55909638D01*
X97500000Y-55909638D02*
X97500000Y-53909638D01*
X98452381Y-55909638D02*
X98452381Y-53909638D01*
X98452381Y-53909638D02*
X99595238Y-55909638D01*
X99595238Y-55909638D02*
X99595238Y-53909638D01*
X100547619Y-54862019D02*
X101214286Y-54862019D01*
X101500000Y-55909638D02*
X100547619Y-55909638D01*
X100547619Y-55909638D02*
X100547619Y-53909638D01*
X100547619Y-53909638D02*
X101500000Y-53909638D01*
X103309524Y-55909638D02*
X102357143Y-55909638D01*
X102357143Y-55909638D02*
X102357143Y-53909638D01*
X103880953Y-55814400D02*
X104166667Y-55909638D01*
X104166667Y-55909638D02*
X104642858Y-55909638D01*
X104642858Y-55909638D02*
X104833334Y-55814400D01*
X104833334Y-55814400D02*
X104928572Y-55719161D01*
X104928572Y-55719161D02*
X105023810Y-55528685D01*
X105023810Y-55528685D02*
X105023810Y-55338209D01*
X105023810Y-55338209D02*
X104928572Y-55147733D01*
X104928572Y-55147733D02*
X104833334Y-55052495D01*
X104833334Y-55052495D02*
X104642858Y-54957257D01*
X104642858Y-54957257D02*
X104261905Y-54862019D01*
X104261905Y-54862019D02*
X104071429Y-54766780D01*
X104071429Y-54766780D02*
X103976191Y-54671542D01*
X103976191Y-54671542D02*
X103880953Y-54481066D01*
X103880953Y-54481066D02*
X103880953Y-54290590D01*
X103880953Y-54290590D02*
X103976191Y-54100114D01*
X103976191Y-54100114D02*
X104071429Y-54004876D01*
X104071429Y-54004876D02*
X104261905Y-53909638D01*
X104261905Y-53909638D02*
X104738096Y-53909638D01*
X104738096Y-53909638D02*
X105023810Y-54004876D01*
X107976192Y-56671542D02*
X107880953Y-56576304D01*
X107880953Y-56576304D02*
X107690477Y-56290590D01*
X107690477Y-56290590D02*
X107595239Y-56100114D01*
X107595239Y-56100114D02*
X107500001Y-55814400D01*
X107500001Y-55814400D02*
X107404763Y-55338209D01*
X107404763Y-55338209D02*
X107404763Y-54957257D01*
X107404763Y-54957257D02*
X107500001Y-54481066D01*
X107500001Y-54481066D02*
X107595239Y-54195352D01*
X107595239Y-54195352D02*
X107690477Y-54004876D01*
X107690477Y-54004876D02*
X107880953Y-53719161D01*
X107880953Y-53719161D02*
X107976192Y-53623923D01*
X109785715Y-55909638D02*
X108642858Y-55909638D01*
X109214286Y-55909638D02*
X109214286Y-53909638D01*
X109214286Y-53909638D02*
X109023810Y-54195352D01*
X109023810Y-54195352D02*
X108833334Y-54385828D01*
X108833334Y-54385828D02*
X108642858Y-54481066D01*
X110642858Y-55147733D02*
X112166668Y-55147733D01*
X113976191Y-54576304D02*
X113976191Y-55909638D01*
X113500000Y-53814400D02*
X113023810Y-55242971D01*
X113023810Y-55242971D02*
X114261905Y-55242971D01*
X114833334Y-56671542D02*
X114928572Y-56576304D01*
X114928572Y-56576304D02*
X115119048Y-56290590D01*
X115119048Y-56290590D02*
X115214286Y-56100114D01*
X115214286Y-56100114D02*
X115309524Y-55814400D01*
X115309524Y-55814400D02*
X115404762Y-55338209D01*
X115404762Y-55338209D02*
X115404762Y-54957257D01*
X115404762Y-54957257D02*
X115309524Y-54481066D01*
X115309524Y-54481066D02*
X115214286Y-54195352D01*
X115214286Y-54195352D02*
X115119048Y-54004876D01*
X115119048Y-54004876D02*
X114928572Y-53719161D01*
X114928572Y-53719161D02*
X114833334Y-53623923D01*
X84642856Y-77338209D02*
X85595237Y-77338209D01*
X84452380Y-77909638D02*
X85119046Y-75909638D01*
X85119046Y-75909638D02*
X85785713Y-77909638D01*
X86357142Y-77338209D02*
X87309523Y-77338209D01*
X86166666Y-77909638D02*
X86833332Y-75909638D01*
X86833332Y-75909638D02*
X87499999Y-77909638D01*
X88071428Y-77338209D02*
X89023809Y-77338209D01*
X87880952Y-77909638D02*
X88547618Y-75909638D01*
X88547618Y-75909638D02*
X89214285Y-77909638D01*
X92547619Y-77719161D02*
X92452381Y-77814400D01*
X92452381Y-77814400D02*
X92166667Y-77909638D01*
X92166667Y-77909638D02*
X91976191Y-77909638D01*
X91976191Y-77909638D02*
X91690476Y-77814400D01*
X91690476Y-77814400D02*
X91500000Y-77623923D01*
X91500000Y-77623923D02*
X91404762Y-77433447D01*
X91404762Y-77433447D02*
X91309524Y-77052495D01*
X91309524Y-77052495D02*
X91309524Y-76766780D01*
X91309524Y-76766780D02*
X91404762Y-76385828D01*
X91404762Y-76385828D02*
X91500000Y-76195352D01*
X91500000Y-76195352D02*
X91690476Y-76004876D01*
X91690476Y-76004876D02*
X91976191Y-75909638D01*
X91976191Y-75909638D02*
X92166667Y-75909638D01*
X92166667Y-75909638D02*
X92452381Y-76004876D01*
X92452381Y-76004876D02*
X92547619Y-76100114D01*
X93404762Y-77909638D02*
X93404762Y-75909638D01*
X93404762Y-76862019D02*
X94547619Y-76862019D01*
X94547619Y-77909638D02*
X94547619Y-75909638D01*
X95404762Y-77338209D02*
X96357143Y-77338209D01*
X95214286Y-77909638D02*
X95880952Y-75909638D01*
X95880952Y-75909638D02*
X96547619Y-77909638D01*
X97214286Y-77909638D02*
X97214286Y-75909638D01*
X97214286Y-75909638D02*
X98357143Y-77909638D01*
X98357143Y-77909638D02*
X98357143Y-75909638D01*
X99309524Y-77909638D02*
X99309524Y-75909638D01*
X99309524Y-75909638D02*
X100452381Y-77909638D01*
X100452381Y-77909638D02*
X100452381Y-75909638D01*
X101404762Y-76862019D02*
X102071429Y-76862019D01*
X102357143Y-77909638D02*
X101404762Y-77909638D01*
X101404762Y-77909638D02*
X101404762Y-75909638D01*
X101404762Y-75909638D02*
X102357143Y-75909638D01*
X104166667Y-77909638D02*
X103214286Y-77909638D01*
X103214286Y-77909638D02*
X103214286Y-75909638D01*
X104738096Y-77814400D02*
X105023810Y-77909638D01*
X105023810Y-77909638D02*
X105500001Y-77909638D01*
X105500001Y-77909638D02*
X105690477Y-77814400D01*
X105690477Y-77814400D02*
X105785715Y-77719161D01*
X105785715Y-77719161D02*
X105880953Y-77528685D01*
X105880953Y-77528685D02*
X105880953Y-77338209D01*
X105880953Y-77338209D02*
X105785715Y-77147733D01*
X105785715Y-77147733D02*
X105690477Y-77052495D01*
X105690477Y-77052495D02*
X105500001Y-76957257D01*
X105500001Y-76957257D02*
X105119048Y-76862019D01*
X105119048Y-76862019D02*
X104928572Y-76766780D01*
X104928572Y-76766780D02*
X104833334Y-76671542D01*
X104833334Y-76671542D02*
X104738096Y-76481066D01*
X104738096Y-76481066D02*
X104738096Y-76290590D01*
X104738096Y-76290590D02*
X104833334Y-76100114D01*
X104833334Y-76100114D02*
X104928572Y-76004876D01*
X104928572Y-76004876D02*
X105119048Y-75909638D01*
X105119048Y-75909638D02*
X105595239Y-75909638D01*
X105595239Y-75909638D02*
X105880953Y-76004876D01*
X108833335Y-78671542D02*
X108738096Y-78576304D01*
X108738096Y-78576304D02*
X108547620Y-78290590D01*
X108547620Y-78290590D02*
X108452382Y-78100114D01*
X108452382Y-78100114D02*
X108357144Y-77814400D01*
X108357144Y-77814400D02*
X108261906Y-77338209D01*
X108261906Y-77338209D02*
X108261906Y-76957257D01*
X108261906Y-76957257D02*
X108357144Y-76481066D01*
X108357144Y-76481066D02*
X108452382Y-76195352D01*
X108452382Y-76195352D02*
X108547620Y-76004876D01*
X108547620Y-76004876D02*
X108738096Y-75719161D01*
X108738096Y-75719161D02*
X108833335Y-75623923D01*
X110547620Y-75909638D02*
X109595239Y-75909638D01*
X109595239Y-75909638D02*
X109500001Y-76862019D01*
X109500001Y-76862019D02*
X109595239Y-76766780D01*
X109595239Y-76766780D02*
X109785715Y-76671542D01*
X109785715Y-76671542D02*
X110261906Y-76671542D01*
X110261906Y-76671542D02*
X110452382Y-76766780D01*
X110452382Y-76766780D02*
X110547620Y-76862019D01*
X110547620Y-76862019D02*
X110642858Y-77052495D01*
X110642858Y-77052495D02*
X110642858Y-77528685D01*
X110642858Y-77528685D02*
X110547620Y-77719161D01*
X110547620Y-77719161D02*
X110452382Y-77814400D01*
X110452382Y-77814400D02*
X110261906Y-77909638D01*
X110261906Y-77909638D02*
X109785715Y-77909638D01*
X109785715Y-77909638D02*
X109595239Y-77814400D01*
X109595239Y-77814400D02*
X109500001Y-77719161D01*
X111500001Y-77147733D02*
X113023811Y-77147733D01*
X114261905Y-76766780D02*
X114071429Y-76671542D01*
X114071429Y-76671542D02*
X113976191Y-76576304D01*
X113976191Y-76576304D02*
X113880953Y-76385828D01*
X113880953Y-76385828D02*
X113880953Y-76290590D01*
X113880953Y-76290590D02*
X113976191Y-76100114D01*
X113976191Y-76100114D02*
X114071429Y-76004876D01*
X114071429Y-76004876D02*
X114261905Y-75909638D01*
X114261905Y-75909638D02*
X114642858Y-75909638D01*
X114642858Y-75909638D02*
X114833334Y-76004876D01*
X114833334Y-76004876D02*
X114928572Y-76100114D01*
X114928572Y-76100114D02*
X115023810Y-76290590D01*
X115023810Y-76290590D02*
X115023810Y-76385828D01*
X115023810Y-76385828D02*
X114928572Y-76576304D01*
X114928572Y-76576304D02*
X114833334Y-76671542D01*
X114833334Y-76671542D02*
X114642858Y-76766780D01*
X114642858Y-76766780D02*
X114261905Y-76766780D01*
X114261905Y-76766780D02*
X114071429Y-76862019D01*
X114071429Y-76862019D02*
X113976191Y-76957257D01*
X113976191Y-76957257D02*
X113880953Y-77147733D01*
X113880953Y-77147733D02*
X113880953Y-77528685D01*
X113880953Y-77528685D02*
X113976191Y-77719161D01*
X113976191Y-77719161D02*
X114071429Y-77814400D01*
X114071429Y-77814400D02*
X114261905Y-77909638D01*
X114261905Y-77909638D02*
X114642858Y-77909638D01*
X114642858Y-77909638D02*
X114833334Y-77814400D01*
X114833334Y-77814400D02*
X114928572Y-77719161D01*
X114928572Y-77719161D02*
X115023810Y-77528685D01*
X115023810Y-77528685D02*
X115023810Y-77147733D01*
X115023810Y-77147733D02*
X114928572Y-76957257D01*
X114928572Y-76957257D02*
X114833334Y-76862019D01*
X114833334Y-76862019D02*
X114642858Y-76766780D01*
X115690477Y-78671542D02*
X115785715Y-78576304D01*
X115785715Y-78576304D02*
X115976191Y-78290590D01*
X115976191Y-78290590D02*
X116071429Y-78100114D01*
X116071429Y-78100114D02*
X116166667Y-77814400D01*
X116166667Y-77814400D02*
X116261905Y-77338209D01*
X116261905Y-77338209D02*
X116261905Y-76957257D01*
X116261905Y-76957257D02*
X116166667Y-76481066D01*
X116166667Y-76481066D02*
X116071429Y-76195352D01*
X116071429Y-76195352D02*
X115976191Y-76004876D01*
X115976191Y-76004876D02*
X115785715Y-75719161D01*
X115785715Y-75719161D02*
X115690477Y-75623923D01*
D11*
X172550057Y-61055238D02*
X172502438Y-61150476D01*
X172502438Y-61150476D02*
X172407200Y-61245714D01*
X172407200Y-61245714D02*
X172264342Y-61388571D01*
X172264342Y-61388571D02*
X172216723Y-61483809D01*
X172216723Y-61483809D02*
X172216723Y-61579047D01*
X172454819Y-61531428D02*
X172407200Y-61626666D01*
X172407200Y-61626666D02*
X172311961Y-61721904D01*
X172311961Y-61721904D02*
X172121485Y-61769523D01*
X172121485Y-61769523D02*
X171788152Y-61769523D01*
X171788152Y-61769523D02*
X171597676Y-61721904D01*
X171597676Y-61721904D02*
X171502438Y-61626666D01*
X171502438Y-61626666D02*
X171454819Y-61531428D01*
X171454819Y-61531428D02*
X171454819Y-61340952D01*
X171454819Y-61340952D02*
X171502438Y-61245714D01*
X171502438Y-61245714D02*
X171597676Y-61150476D01*
X171597676Y-61150476D02*
X171788152Y-61102857D01*
X171788152Y-61102857D02*
X172121485Y-61102857D01*
X172121485Y-61102857D02*
X172311961Y-61150476D01*
X172311961Y-61150476D02*
X172407200Y-61245714D01*
X172407200Y-61245714D02*
X172454819Y-61340952D01*
X172454819Y-61340952D02*
X172454819Y-61531428D01*
X171788152Y-60245714D02*
X172454819Y-60245714D01*
X171407200Y-60483809D02*
X172121485Y-60721904D01*
X172121485Y-60721904D02*
X172121485Y-60102857D01*
X115454819Y-93166666D02*
X114978628Y-93499999D01*
X115454819Y-93738094D02*
X114454819Y-93738094D01*
X114454819Y-93738094D02*
X114454819Y-93357142D01*
X114454819Y-93357142D02*
X114502438Y-93261904D01*
X114502438Y-93261904D02*
X114550057Y-93214285D01*
X114550057Y-93214285D02*
X114645295Y-93166666D01*
X114645295Y-93166666D02*
X114788152Y-93166666D01*
X114788152Y-93166666D02*
X114883390Y-93214285D01*
X114883390Y-93214285D02*
X114931009Y-93261904D01*
X114931009Y-93261904D02*
X114978628Y-93357142D01*
X114978628Y-93357142D02*
X114978628Y-93738094D01*
X114454819Y-92833332D02*
X114454819Y-92166666D01*
X114454819Y-92166666D02*
X115454819Y-92595237D01*
X39454819Y-93166666D02*
X38978628Y-93499999D01*
X39454819Y-93738094D02*
X38454819Y-93738094D01*
X38454819Y-93738094D02*
X38454819Y-93357142D01*
X38454819Y-93357142D02*
X38502438Y-93261904D01*
X38502438Y-93261904D02*
X38550057Y-93214285D01*
X38550057Y-93214285D02*
X38645295Y-93166666D01*
X38645295Y-93166666D02*
X38788152Y-93166666D01*
X38788152Y-93166666D02*
X38883390Y-93214285D01*
X38883390Y-93214285D02*
X38931009Y-93261904D01*
X38931009Y-93261904D02*
X38978628Y-93357142D01*
X38978628Y-93357142D02*
X38978628Y-93738094D01*
X38454819Y-92261904D02*
X38454819Y-92738094D01*
X38454819Y-92738094D02*
X38931009Y-92785713D01*
X38931009Y-92785713D02*
X38883390Y-92738094D01*
X38883390Y-92738094D02*
X38835771Y-92642856D01*
X38835771Y-92642856D02*
X38835771Y-92404761D01*
X38835771Y-92404761D02*
X38883390Y-92309523D01*
X38883390Y-92309523D02*
X38931009Y-92261904D01*
X38931009Y-92261904D02*
X39026247Y-92214285D01*
X39026247Y-92214285D02*
X39264342Y-92214285D01*
X39264342Y-92214285D02*
X39359580Y-92261904D01*
X39359580Y-92261904D02*
X39407200Y-92309523D01*
X39407200Y-92309523D02*
X39454819Y-92404761D01*
X39454819Y-92404761D02*
X39454819Y-92642856D01*
X39454819Y-92642856D02*
X39407200Y-92738094D01*
X39407200Y-92738094D02*
X39359580Y-92785713D01*
X29666666Y-58414819D02*
X29666666Y-59129104D01*
X29666666Y-59129104D02*
X29619047Y-59271961D01*
X29619047Y-59271961D02*
X29523809Y-59367200D01*
X29523809Y-59367200D02*
X29380952Y-59414819D01*
X29380952Y-59414819D02*
X29285714Y-59414819D01*
X30666666Y-59414819D02*
X30095238Y-59414819D01*
X30380952Y-59414819D02*
X30380952Y-58414819D01*
X30380952Y-58414819D02*
X30285714Y-58557676D01*
X30285714Y-58557676D02*
X30190476Y-58652914D01*
X30190476Y-58652914D02*
X30095238Y-58700533D01*
X40937142Y-60454819D02*
X40603809Y-59978628D01*
X40365714Y-60454819D02*
X40365714Y-59454819D01*
X40365714Y-59454819D02*
X40746666Y-59454819D01*
X40746666Y-59454819D02*
X40841904Y-59502438D01*
X40841904Y-59502438D02*
X40889523Y-59550057D01*
X40889523Y-59550057D02*
X40937142Y-59645295D01*
X40937142Y-59645295D02*
X40937142Y-59788152D01*
X40937142Y-59788152D02*
X40889523Y-59883390D01*
X40889523Y-59883390D02*
X40841904Y-59931009D01*
X40841904Y-59931009D02*
X40746666Y-59978628D01*
X40746666Y-59978628D02*
X40365714Y-59978628D01*
X41889523Y-60454819D02*
X41318095Y-60454819D01*
X41603809Y-60454819D02*
X41603809Y-59454819D01*
X41603809Y-59454819D02*
X41508571Y-59597676D01*
X41508571Y-59597676D02*
X41413333Y-59692914D01*
X41413333Y-59692914D02*
X41318095Y-59740533D01*
X42841904Y-60454819D02*
X42270476Y-60454819D01*
X42556190Y-60454819D02*
X42556190Y-59454819D01*
X42556190Y-59454819D02*
X42460952Y-59597676D01*
X42460952Y-59597676D02*
X42365714Y-59692914D01*
X42365714Y-59692914D02*
X42270476Y-59740533D01*
X123954819Y-38722857D02*
X123478628Y-39056190D01*
X123954819Y-39294285D02*
X122954819Y-39294285D01*
X122954819Y-39294285D02*
X122954819Y-38913333D01*
X122954819Y-38913333D02*
X123002438Y-38818095D01*
X123002438Y-38818095D02*
X123050057Y-38770476D01*
X123050057Y-38770476D02*
X123145295Y-38722857D01*
X123145295Y-38722857D02*
X123288152Y-38722857D01*
X123288152Y-38722857D02*
X123383390Y-38770476D01*
X123383390Y-38770476D02*
X123431009Y-38818095D01*
X123431009Y-38818095D02*
X123478628Y-38913333D01*
X123478628Y-38913333D02*
X123478628Y-39294285D01*
X123954819Y-37770476D02*
X123954819Y-38341904D01*
X123954819Y-38056190D02*
X122954819Y-38056190D01*
X122954819Y-38056190D02*
X123097676Y-38151428D01*
X123097676Y-38151428D02*
X123192914Y-38246666D01*
X123192914Y-38246666D02*
X123240533Y-38341904D01*
X122954819Y-37151428D02*
X122954819Y-37056190D01*
X122954819Y-37056190D02*
X123002438Y-36960952D01*
X123002438Y-36960952D02*
X123050057Y-36913333D01*
X123050057Y-36913333D02*
X123145295Y-36865714D01*
X123145295Y-36865714D02*
X123335771Y-36818095D01*
X123335771Y-36818095D02*
X123573866Y-36818095D01*
X123573866Y-36818095D02*
X123764342Y-36865714D01*
X123764342Y-36865714D02*
X123859580Y-36913333D01*
X123859580Y-36913333D02*
X123907200Y-36960952D01*
X123907200Y-36960952D02*
X123954819Y-37056190D01*
X123954819Y-37056190D02*
X123954819Y-37151428D01*
X123954819Y-37151428D02*
X123907200Y-37246666D01*
X123907200Y-37246666D02*
X123859580Y-37294285D01*
X123859580Y-37294285D02*
X123764342Y-37341904D01*
X123764342Y-37341904D02*
X123573866Y-37389523D01*
X123573866Y-37389523D02*
X123335771Y-37389523D01*
X123335771Y-37389523D02*
X123145295Y-37341904D01*
X123145295Y-37341904D02*
X123050057Y-37294285D01*
X123050057Y-37294285D02*
X123002438Y-37246666D01*
X123002438Y-37246666D02*
X122954819Y-37151428D01*
X58550057Y-61055238D02*
X58502438Y-61150476D01*
X58502438Y-61150476D02*
X58407200Y-61245714D01*
X58407200Y-61245714D02*
X58264342Y-61388571D01*
X58264342Y-61388571D02*
X58216723Y-61483809D01*
X58216723Y-61483809D02*
X58216723Y-61579047D01*
X58454819Y-61531428D02*
X58407200Y-61626666D01*
X58407200Y-61626666D02*
X58311961Y-61721904D01*
X58311961Y-61721904D02*
X58121485Y-61769523D01*
X58121485Y-61769523D02*
X57788152Y-61769523D01*
X57788152Y-61769523D02*
X57597676Y-61721904D01*
X57597676Y-61721904D02*
X57502438Y-61626666D01*
X57502438Y-61626666D02*
X57454819Y-61531428D01*
X57454819Y-61531428D02*
X57454819Y-61340952D01*
X57454819Y-61340952D02*
X57502438Y-61245714D01*
X57502438Y-61245714D02*
X57597676Y-61150476D01*
X57597676Y-61150476D02*
X57788152Y-61102857D01*
X57788152Y-61102857D02*
X58121485Y-61102857D01*
X58121485Y-61102857D02*
X58311961Y-61150476D01*
X58311961Y-61150476D02*
X58407200Y-61245714D01*
X58407200Y-61245714D02*
X58454819Y-61340952D01*
X58454819Y-61340952D02*
X58454819Y-61531428D01*
X58454819Y-60150476D02*
X58454819Y-60721904D01*
X58454819Y-60436190D02*
X57454819Y-60436190D01*
X57454819Y-60436190D02*
X57597676Y-60531428D01*
X57597676Y-60531428D02*
X57692914Y-60626666D01*
X57692914Y-60626666D02*
X57740533Y-60721904D01*
X153454819Y-71166666D02*
X152978628Y-71499999D01*
X153454819Y-71738094D02*
X152454819Y-71738094D01*
X152454819Y-71738094D02*
X152454819Y-71357142D01*
X152454819Y-71357142D02*
X152502438Y-71261904D01*
X152502438Y-71261904D02*
X152550057Y-71214285D01*
X152550057Y-71214285D02*
X152645295Y-71166666D01*
X152645295Y-71166666D02*
X152788152Y-71166666D01*
X152788152Y-71166666D02*
X152883390Y-71214285D01*
X152883390Y-71214285D02*
X152931009Y-71261904D01*
X152931009Y-71261904D02*
X152978628Y-71357142D01*
X152978628Y-71357142D02*
X152978628Y-71738094D01*
X152788152Y-70309523D02*
X153454819Y-70309523D01*
X152407200Y-70547618D02*
X153121485Y-70785713D01*
X153121485Y-70785713D02*
X153121485Y-70166666D01*
X107714285Y-27334819D02*
X107714285Y-28049104D01*
X107714285Y-28049104D02*
X107666666Y-28191961D01*
X107666666Y-28191961D02*
X107571428Y-28287200D01*
X107571428Y-28287200D02*
X107428571Y-28334819D01*
X107428571Y-28334819D02*
X107333333Y-28334819D01*
X108714285Y-28334819D02*
X108142857Y-28334819D01*
X108428571Y-28334819D02*
X108428571Y-27334819D01*
X108428571Y-27334819D02*
X108333333Y-27477676D01*
X108333333Y-27477676D02*
X108238095Y-27572914D01*
X108238095Y-27572914D02*
X108142857Y-27620533D01*
X109333333Y-27334819D02*
X109428571Y-27334819D01*
X109428571Y-27334819D02*
X109523809Y-27382438D01*
X109523809Y-27382438D02*
X109571428Y-27430057D01*
X109571428Y-27430057D02*
X109619047Y-27525295D01*
X109619047Y-27525295D02*
X109666666Y-27715771D01*
X109666666Y-27715771D02*
X109666666Y-27953866D01*
X109666666Y-27953866D02*
X109619047Y-28144342D01*
X109619047Y-28144342D02*
X109571428Y-28239580D01*
X109571428Y-28239580D02*
X109523809Y-28287200D01*
X109523809Y-28287200D02*
X109428571Y-28334819D01*
X109428571Y-28334819D02*
X109333333Y-28334819D01*
X109333333Y-28334819D02*
X109238095Y-28287200D01*
X109238095Y-28287200D02*
X109190476Y-28239580D01*
X109190476Y-28239580D02*
X109142857Y-28144342D01*
X109142857Y-28144342D02*
X109095238Y-27953866D01*
X109095238Y-27953866D02*
X109095238Y-27715771D01*
X109095238Y-27715771D02*
X109142857Y-27525295D01*
X109142857Y-27525295D02*
X109190476Y-27430057D01*
X109190476Y-27430057D02*
X109238095Y-27382438D01*
X109238095Y-27382438D02*
X109333333Y-27334819D01*
X110047619Y-27430057D02*
X110095238Y-27382438D01*
X110095238Y-27382438D02*
X110190476Y-27334819D01*
X110190476Y-27334819D02*
X110428571Y-27334819D01*
X110428571Y-27334819D02*
X110523809Y-27382438D01*
X110523809Y-27382438D02*
X110571428Y-27430057D01*
X110571428Y-27430057D02*
X110619047Y-27525295D01*
X110619047Y-27525295D02*
X110619047Y-27620533D01*
X110619047Y-27620533D02*
X110571428Y-27763390D01*
X110571428Y-27763390D02*
X110000000Y-28334819D01*
X110000000Y-28334819D02*
X110619047Y-28334819D01*
X116937142Y-60454819D02*
X116603809Y-59978628D01*
X116365714Y-60454819D02*
X116365714Y-59454819D01*
X116365714Y-59454819D02*
X116746666Y-59454819D01*
X116746666Y-59454819D02*
X116841904Y-59502438D01*
X116841904Y-59502438D02*
X116889523Y-59550057D01*
X116889523Y-59550057D02*
X116937142Y-59645295D01*
X116937142Y-59645295D02*
X116937142Y-59788152D01*
X116937142Y-59788152D02*
X116889523Y-59883390D01*
X116889523Y-59883390D02*
X116841904Y-59931009D01*
X116841904Y-59931009D02*
X116746666Y-59978628D01*
X116746666Y-59978628D02*
X116365714Y-59978628D01*
X117889523Y-60454819D02*
X117318095Y-60454819D01*
X117603809Y-60454819D02*
X117603809Y-59454819D01*
X117603809Y-59454819D02*
X117508571Y-59597676D01*
X117508571Y-59597676D02*
X117413333Y-59692914D01*
X117413333Y-59692914D02*
X117318095Y-59740533D01*
X118222857Y-59454819D02*
X118841904Y-59454819D01*
X118841904Y-59454819D02*
X118508571Y-59835771D01*
X118508571Y-59835771D02*
X118651428Y-59835771D01*
X118651428Y-59835771D02*
X118746666Y-59883390D01*
X118746666Y-59883390D02*
X118794285Y-59931009D01*
X118794285Y-59931009D02*
X118841904Y-60026247D01*
X118841904Y-60026247D02*
X118841904Y-60264342D01*
X118841904Y-60264342D02*
X118794285Y-60359580D01*
X118794285Y-60359580D02*
X118746666Y-60407200D01*
X118746666Y-60407200D02*
X118651428Y-60454819D01*
X118651428Y-60454819D02*
X118365714Y-60454819D01*
X118365714Y-60454819D02*
X118270476Y-60407200D01*
X118270476Y-60407200D02*
X118222857Y-60359580D01*
X96550057Y-61055238D02*
X96502438Y-61150476D01*
X96502438Y-61150476D02*
X96407200Y-61245714D01*
X96407200Y-61245714D02*
X96264342Y-61388571D01*
X96264342Y-61388571D02*
X96216723Y-61483809D01*
X96216723Y-61483809D02*
X96216723Y-61579047D01*
X96454819Y-61531428D02*
X96407200Y-61626666D01*
X96407200Y-61626666D02*
X96311961Y-61721904D01*
X96311961Y-61721904D02*
X96121485Y-61769523D01*
X96121485Y-61769523D02*
X95788152Y-61769523D01*
X95788152Y-61769523D02*
X95597676Y-61721904D01*
X95597676Y-61721904D02*
X95502438Y-61626666D01*
X95502438Y-61626666D02*
X95454819Y-61531428D01*
X95454819Y-61531428D02*
X95454819Y-61340952D01*
X95454819Y-61340952D02*
X95502438Y-61245714D01*
X95502438Y-61245714D02*
X95597676Y-61150476D01*
X95597676Y-61150476D02*
X95788152Y-61102857D01*
X95788152Y-61102857D02*
X96121485Y-61102857D01*
X96121485Y-61102857D02*
X96311961Y-61150476D01*
X96311961Y-61150476D02*
X96407200Y-61245714D01*
X96407200Y-61245714D02*
X96454819Y-61340952D01*
X96454819Y-61340952D02*
X96454819Y-61531428D01*
X95550057Y-60721904D02*
X95502438Y-60674285D01*
X95502438Y-60674285D02*
X95454819Y-60579047D01*
X95454819Y-60579047D02*
X95454819Y-60340952D01*
X95454819Y-60340952D02*
X95502438Y-60245714D01*
X95502438Y-60245714D02*
X95550057Y-60198095D01*
X95550057Y-60198095D02*
X95645295Y-60150476D01*
X95645295Y-60150476D02*
X95740533Y-60150476D01*
X95740533Y-60150476D02*
X95883390Y-60198095D01*
X95883390Y-60198095D02*
X96454819Y-60769523D01*
X96454819Y-60769523D02*
X96454819Y-60150476D01*
X133794819Y-46785714D02*
X134509104Y-46785714D01*
X134509104Y-46785714D02*
X134651961Y-46833333D01*
X134651961Y-46833333D02*
X134747200Y-46928571D01*
X134747200Y-46928571D02*
X134794819Y-47071428D01*
X134794819Y-47071428D02*
X134794819Y-47166666D01*
X134794819Y-45785714D02*
X134794819Y-46357142D01*
X134794819Y-46071428D02*
X133794819Y-46071428D01*
X133794819Y-46071428D02*
X133937676Y-46166666D01*
X133937676Y-46166666D02*
X134032914Y-46261904D01*
X134032914Y-46261904D02*
X134080533Y-46357142D01*
X133794819Y-45166666D02*
X133794819Y-45071428D01*
X133794819Y-45071428D02*
X133842438Y-44976190D01*
X133842438Y-44976190D02*
X133890057Y-44928571D01*
X133890057Y-44928571D02*
X133985295Y-44880952D01*
X133985295Y-44880952D02*
X134175771Y-44833333D01*
X134175771Y-44833333D02*
X134413866Y-44833333D01*
X134413866Y-44833333D02*
X134604342Y-44880952D01*
X134604342Y-44880952D02*
X134699580Y-44928571D01*
X134699580Y-44928571D02*
X134747200Y-44976190D01*
X134747200Y-44976190D02*
X134794819Y-45071428D01*
X134794819Y-45071428D02*
X134794819Y-45166666D01*
X134794819Y-45166666D02*
X134747200Y-45261904D01*
X134747200Y-45261904D02*
X134699580Y-45309523D01*
X134699580Y-45309523D02*
X134604342Y-45357142D01*
X134604342Y-45357142D02*
X134413866Y-45404761D01*
X134413866Y-45404761D02*
X134175771Y-45404761D01*
X134175771Y-45404761D02*
X133985295Y-45357142D01*
X133985295Y-45357142D02*
X133890057Y-45309523D01*
X133890057Y-45309523D02*
X133842438Y-45261904D01*
X133842438Y-45261904D02*
X133794819Y-45166666D01*
X134128152Y-43976190D02*
X134794819Y-43976190D01*
X133747200Y-44214285D02*
X134461485Y-44452380D01*
X134461485Y-44452380D02*
X134461485Y-43833333D01*
X134550057Y-83055238D02*
X134502438Y-83150476D01*
X134502438Y-83150476D02*
X134407200Y-83245714D01*
X134407200Y-83245714D02*
X134264342Y-83388571D01*
X134264342Y-83388571D02*
X134216723Y-83483809D01*
X134216723Y-83483809D02*
X134216723Y-83579047D01*
X134454819Y-83531428D02*
X134407200Y-83626666D01*
X134407200Y-83626666D02*
X134311961Y-83721904D01*
X134311961Y-83721904D02*
X134121485Y-83769523D01*
X134121485Y-83769523D02*
X133788152Y-83769523D01*
X133788152Y-83769523D02*
X133597676Y-83721904D01*
X133597676Y-83721904D02*
X133502438Y-83626666D01*
X133502438Y-83626666D02*
X133454819Y-83531428D01*
X133454819Y-83531428D02*
X133454819Y-83340952D01*
X133454819Y-83340952D02*
X133502438Y-83245714D01*
X133502438Y-83245714D02*
X133597676Y-83150476D01*
X133597676Y-83150476D02*
X133788152Y-83102857D01*
X133788152Y-83102857D02*
X134121485Y-83102857D01*
X134121485Y-83102857D02*
X134311961Y-83150476D01*
X134311961Y-83150476D02*
X134407200Y-83245714D01*
X134407200Y-83245714D02*
X134454819Y-83340952D01*
X134454819Y-83340952D02*
X134454819Y-83531428D01*
X133454819Y-82769523D02*
X133454819Y-82102857D01*
X133454819Y-82102857D02*
X134454819Y-82531428D01*
X78937142Y-60454819D02*
X78603809Y-59978628D01*
X78365714Y-60454819D02*
X78365714Y-59454819D01*
X78365714Y-59454819D02*
X78746666Y-59454819D01*
X78746666Y-59454819D02*
X78841904Y-59502438D01*
X78841904Y-59502438D02*
X78889523Y-59550057D01*
X78889523Y-59550057D02*
X78937142Y-59645295D01*
X78937142Y-59645295D02*
X78937142Y-59788152D01*
X78937142Y-59788152D02*
X78889523Y-59883390D01*
X78889523Y-59883390D02*
X78841904Y-59931009D01*
X78841904Y-59931009D02*
X78746666Y-59978628D01*
X78746666Y-59978628D02*
X78365714Y-59978628D01*
X79889523Y-60454819D02*
X79318095Y-60454819D01*
X79603809Y-60454819D02*
X79603809Y-59454819D01*
X79603809Y-59454819D02*
X79508571Y-59597676D01*
X79508571Y-59597676D02*
X79413333Y-59692914D01*
X79413333Y-59692914D02*
X79318095Y-59740533D01*
X80270476Y-59550057D02*
X80318095Y-59502438D01*
X80318095Y-59502438D02*
X80413333Y-59454819D01*
X80413333Y-59454819D02*
X80651428Y-59454819D01*
X80651428Y-59454819D02*
X80746666Y-59502438D01*
X80746666Y-59502438D02*
X80794285Y-59550057D01*
X80794285Y-59550057D02*
X80841904Y-59645295D01*
X80841904Y-59645295D02*
X80841904Y-59740533D01*
X80841904Y-59740533D02*
X80794285Y-59883390D01*
X80794285Y-59883390D02*
X80222857Y-60454819D01*
X80222857Y-60454819D02*
X80841904Y-60454819D01*
X105666666Y-58414819D02*
X105666666Y-59129104D01*
X105666666Y-59129104D02*
X105619047Y-59271961D01*
X105619047Y-59271961D02*
X105523809Y-59367200D01*
X105523809Y-59367200D02*
X105380952Y-59414819D01*
X105380952Y-59414819D02*
X105285714Y-59414819D01*
X106047619Y-58414819D02*
X106666666Y-58414819D01*
X106666666Y-58414819D02*
X106333333Y-58795771D01*
X106333333Y-58795771D02*
X106476190Y-58795771D01*
X106476190Y-58795771D02*
X106571428Y-58843390D01*
X106571428Y-58843390D02*
X106619047Y-58891009D01*
X106619047Y-58891009D02*
X106666666Y-58986247D01*
X106666666Y-58986247D02*
X106666666Y-59224342D01*
X106666666Y-59224342D02*
X106619047Y-59319580D01*
X106619047Y-59319580D02*
X106571428Y-59367200D01*
X106571428Y-59367200D02*
X106476190Y-59414819D01*
X106476190Y-59414819D02*
X106190476Y-59414819D01*
X106190476Y-59414819D02*
X106095238Y-59367200D01*
X106095238Y-59367200D02*
X106047619Y-59319580D01*
X143666666Y-58414819D02*
X143666666Y-59129104D01*
X143666666Y-59129104D02*
X143619047Y-59271961D01*
X143619047Y-59271961D02*
X143523809Y-59367200D01*
X143523809Y-59367200D02*
X143380952Y-59414819D01*
X143380952Y-59414819D02*
X143285714Y-59414819D01*
X144571428Y-58748152D02*
X144571428Y-59414819D01*
X144333333Y-58367200D02*
X144095238Y-59081485D01*
X144095238Y-59081485D02*
X144714285Y-59081485D01*
X78937142Y-82454819D02*
X78603809Y-81978628D01*
X78365714Y-82454819D02*
X78365714Y-81454819D01*
X78365714Y-81454819D02*
X78746666Y-81454819D01*
X78746666Y-81454819D02*
X78841904Y-81502438D01*
X78841904Y-81502438D02*
X78889523Y-81550057D01*
X78889523Y-81550057D02*
X78937142Y-81645295D01*
X78937142Y-81645295D02*
X78937142Y-81788152D01*
X78937142Y-81788152D02*
X78889523Y-81883390D01*
X78889523Y-81883390D02*
X78841904Y-81931009D01*
X78841904Y-81931009D02*
X78746666Y-81978628D01*
X78746666Y-81978628D02*
X78365714Y-81978628D01*
X79889523Y-82454819D02*
X79318095Y-82454819D01*
X79603809Y-82454819D02*
X79603809Y-81454819D01*
X79603809Y-81454819D02*
X79508571Y-81597676D01*
X79508571Y-81597676D02*
X79413333Y-81692914D01*
X79413333Y-81692914D02*
X79318095Y-81740533D01*
X80746666Y-81454819D02*
X80556190Y-81454819D01*
X80556190Y-81454819D02*
X80460952Y-81502438D01*
X80460952Y-81502438D02*
X80413333Y-81550057D01*
X80413333Y-81550057D02*
X80318095Y-81692914D01*
X80318095Y-81692914D02*
X80270476Y-81883390D01*
X80270476Y-81883390D02*
X80270476Y-82264342D01*
X80270476Y-82264342D02*
X80318095Y-82359580D01*
X80318095Y-82359580D02*
X80365714Y-82407200D01*
X80365714Y-82407200D02*
X80460952Y-82454819D01*
X80460952Y-82454819D02*
X80651428Y-82454819D01*
X80651428Y-82454819D02*
X80746666Y-82407200D01*
X80746666Y-82407200D02*
X80794285Y-82359580D01*
X80794285Y-82359580D02*
X80841904Y-82264342D01*
X80841904Y-82264342D02*
X80841904Y-82026247D01*
X80841904Y-82026247D02*
X80794285Y-81931009D01*
X80794285Y-81931009D02*
X80746666Y-81883390D01*
X80746666Y-81883390D02*
X80651428Y-81835771D01*
X80651428Y-81835771D02*
X80460952Y-81835771D01*
X80460952Y-81835771D02*
X80365714Y-81883390D01*
X80365714Y-81883390D02*
X80318095Y-81931009D01*
X80318095Y-81931009D02*
X80270476Y-82026247D01*
X90214285Y-27334819D02*
X90214285Y-28049104D01*
X90214285Y-28049104D02*
X90166666Y-28191961D01*
X90166666Y-28191961D02*
X90071428Y-28287200D01*
X90071428Y-28287200D02*
X89928571Y-28334819D01*
X89928571Y-28334819D02*
X89833333Y-28334819D01*
X91214285Y-28334819D02*
X90642857Y-28334819D01*
X90928571Y-28334819D02*
X90928571Y-27334819D01*
X90928571Y-27334819D02*
X90833333Y-27477676D01*
X90833333Y-27477676D02*
X90738095Y-27572914D01*
X90738095Y-27572914D02*
X90642857Y-27620533D01*
X91833333Y-27334819D02*
X91928571Y-27334819D01*
X91928571Y-27334819D02*
X92023809Y-27382438D01*
X92023809Y-27382438D02*
X92071428Y-27430057D01*
X92071428Y-27430057D02*
X92119047Y-27525295D01*
X92119047Y-27525295D02*
X92166666Y-27715771D01*
X92166666Y-27715771D02*
X92166666Y-27953866D01*
X92166666Y-27953866D02*
X92119047Y-28144342D01*
X92119047Y-28144342D02*
X92071428Y-28239580D01*
X92071428Y-28239580D02*
X92023809Y-28287200D01*
X92023809Y-28287200D02*
X91928571Y-28334819D01*
X91928571Y-28334819D02*
X91833333Y-28334819D01*
X91833333Y-28334819D02*
X91738095Y-28287200D01*
X91738095Y-28287200D02*
X91690476Y-28239580D01*
X91690476Y-28239580D02*
X91642857Y-28144342D01*
X91642857Y-28144342D02*
X91595238Y-27953866D01*
X91595238Y-27953866D02*
X91595238Y-27715771D01*
X91595238Y-27715771D02*
X91642857Y-27525295D01*
X91642857Y-27525295D02*
X91690476Y-27430057D01*
X91690476Y-27430057D02*
X91738095Y-27382438D01*
X91738095Y-27382438D02*
X91833333Y-27334819D01*
X93119047Y-28334819D02*
X92547619Y-28334819D01*
X92833333Y-28334819D02*
X92833333Y-27334819D01*
X92833333Y-27334819D02*
X92738095Y-27477676D01*
X92738095Y-27477676D02*
X92642857Y-27572914D01*
X92642857Y-27572914D02*
X92547619Y-27620533D01*
X77454819Y-71166666D02*
X76978628Y-71499999D01*
X77454819Y-71738094D02*
X76454819Y-71738094D01*
X76454819Y-71738094D02*
X76454819Y-71357142D01*
X76454819Y-71357142D02*
X76502438Y-71261904D01*
X76502438Y-71261904D02*
X76550057Y-71214285D01*
X76550057Y-71214285D02*
X76645295Y-71166666D01*
X76645295Y-71166666D02*
X76788152Y-71166666D01*
X76788152Y-71166666D02*
X76883390Y-71214285D01*
X76883390Y-71214285D02*
X76931009Y-71261904D01*
X76931009Y-71261904D02*
X76978628Y-71357142D01*
X76978628Y-71357142D02*
X76978628Y-71738094D01*
X76550057Y-70785713D02*
X76502438Y-70738094D01*
X76502438Y-70738094D02*
X76454819Y-70642856D01*
X76454819Y-70642856D02*
X76454819Y-70404761D01*
X76454819Y-70404761D02*
X76502438Y-70309523D01*
X76502438Y-70309523D02*
X76550057Y-70261904D01*
X76550057Y-70261904D02*
X76645295Y-70214285D01*
X76645295Y-70214285D02*
X76740533Y-70214285D01*
X76740533Y-70214285D02*
X76883390Y-70261904D01*
X76883390Y-70261904D02*
X77454819Y-70833332D01*
X77454819Y-70833332D02*
X77454819Y-70214285D01*
X39454819Y-71166666D02*
X38978628Y-71499999D01*
X39454819Y-71738094D02*
X38454819Y-71738094D01*
X38454819Y-71738094D02*
X38454819Y-71357142D01*
X38454819Y-71357142D02*
X38502438Y-71261904D01*
X38502438Y-71261904D02*
X38550057Y-71214285D01*
X38550057Y-71214285D02*
X38645295Y-71166666D01*
X38645295Y-71166666D02*
X38788152Y-71166666D01*
X38788152Y-71166666D02*
X38883390Y-71214285D01*
X38883390Y-71214285D02*
X38931009Y-71261904D01*
X38931009Y-71261904D02*
X38978628Y-71357142D01*
X38978628Y-71357142D02*
X38978628Y-71738094D01*
X39454819Y-70214285D02*
X39454819Y-70785713D01*
X39454819Y-70499999D02*
X38454819Y-70499999D01*
X38454819Y-70499999D02*
X38597676Y-70595237D01*
X38597676Y-70595237D02*
X38692914Y-70690475D01*
X38692914Y-70690475D02*
X38740533Y-70785713D01*
X67666666Y-58414819D02*
X67666666Y-59129104D01*
X67666666Y-59129104D02*
X67619047Y-59271961D01*
X67619047Y-59271961D02*
X67523809Y-59367200D01*
X67523809Y-59367200D02*
X67380952Y-59414819D01*
X67380952Y-59414819D02*
X67285714Y-59414819D01*
X68095238Y-58510057D02*
X68142857Y-58462438D01*
X68142857Y-58462438D02*
X68238095Y-58414819D01*
X68238095Y-58414819D02*
X68476190Y-58414819D01*
X68476190Y-58414819D02*
X68571428Y-58462438D01*
X68571428Y-58462438D02*
X68619047Y-58510057D01*
X68619047Y-58510057D02*
X68666666Y-58605295D01*
X68666666Y-58605295D02*
X68666666Y-58700533D01*
X68666666Y-58700533D02*
X68619047Y-58843390D01*
X68619047Y-58843390D02*
X68047619Y-59414819D01*
X68047619Y-59414819D02*
X68666666Y-59414819D01*
X172550057Y-83055238D02*
X172502438Y-83150476D01*
X172502438Y-83150476D02*
X172407200Y-83245714D01*
X172407200Y-83245714D02*
X172264342Y-83388571D01*
X172264342Y-83388571D02*
X172216723Y-83483809D01*
X172216723Y-83483809D02*
X172216723Y-83579047D01*
X172454819Y-83531428D02*
X172407200Y-83626666D01*
X172407200Y-83626666D02*
X172311961Y-83721904D01*
X172311961Y-83721904D02*
X172121485Y-83769523D01*
X172121485Y-83769523D02*
X171788152Y-83769523D01*
X171788152Y-83769523D02*
X171597676Y-83721904D01*
X171597676Y-83721904D02*
X171502438Y-83626666D01*
X171502438Y-83626666D02*
X171454819Y-83531428D01*
X171454819Y-83531428D02*
X171454819Y-83340952D01*
X171454819Y-83340952D02*
X171502438Y-83245714D01*
X171502438Y-83245714D02*
X171597676Y-83150476D01*
X171597676Y-83150476D02*
X171788152Y-83102857D01*
X171788152Y-83102857D02*
X172121485Y-83102857D01*
X172121485Y-83102857D02*
X172311961Y-83150476D01*
X172311961Y-83150476D02*
X172407200Y-83245714D01*
X172407200Y-83245714D02*
X172454819Y-83340952D01*
X172454819Y-83340952D02*
X172454819Y-83531428D01*
X171883390Y-82531428D02*
X171835771Y-82626666D01*
X171835771Y-82626666D02*
X171788152Y-82674285D01*
X171788152Y-82674285D02*
X171692914Y-82721904D01*
X171692914Y-82721904D02*
X171645295Y-82721904D01*
X171645295Y-82721904D02*
X171550057Y-82674285D01*
X171550057Y-82674285D02*
X171502438Y-82626666D01*
X171502438Y-82626666D02*
X171454819Y-82531428D01*
X171454819Y-82531428D02*
X171454819Y-82340952D01*
X171454819Y-82340952D02*
X171502438Y-82245714D01*
X171502438Y-82245714D02*
X171550057Y-82198095D01*
X171550057Y-82198095D02*
X171645295Y-82150476D01*
X171645295Y-82150476D02*
X171692914Y-82150476D01*
X171692914Y-82150476D02*
X171788152Y-82198095D01*
X171788152Y-82198095D02*
X171835771Y-82245714D01*
X171835771Y-82245714D02*
X171883390Y-82340952D01*
X171883390Y-82340952D02*
X171883390Y-82531428D01*
X171883390Y-82531428D02*
X171931009Y-82626666D01*
X171931009Y-82626666D02*
X171978628Y-82674285D01*
X171978628Y-82674285D02*
X172073866Y-82721904D01*
X172073866Y-82721904D02*
X172264342Y-82721904D01*
X172264342Y-82721904D02*
X172359580Y-82674285D01*
X172359580Y-82674285D02*
X172407200Y-82626666D01*
X172407200Y-82626666D02*
X172454819Y-82531428D01*
X172454819Y-82531428D02*
X172454819Y-82340952D01*
X172454819Y-82340952D02*
X172407200Y-82245714D01*
X172407200Y-82245714D02*
X172359580Y-82198095D01*
X172359580Y-82198095D02*
X172264342Y-82150476D01*
X172264342Y-82150476D02*
X172073866Y-82150476D01*
X172073866Y-82150476D02*
X171978628Y-82198095D01*
X171978628Y-82198095D02*
X171931009Y-82245714D01*
X171931009Y-82245714D02*
X171883390Y-82340952D01*
X96550057Y-83055238D02*
X96502438Y-83150476D01*
X96502438Y-83150476D02*
X96407200Y-83245714D01*
X96407200Y-83245714D02*
X96264342Y-83388571D01*
X96264342Y-83388571D02*
X96216723Y-83483809D01*
X96216723Y-83483809D02*
X96216723Y-83579047D01*
X96454819Y-83531428D02*
X96407200Y-83626666D01*
X96407200Y-83626666D02*
X96311961Y-83721904D01*
X96311961Y-83721904D02*
X96121485Y-83769523D01*
X96121485Y-83769523D02*
X95788152Y-83769523D01*
X95788152Y-83769523D02*
X95597676Y-83721904D01*
X95597676Y-83721904D02*
X95502438Y-83626666D01*
X95502438Y-83626666D02*
X95454819Y-83531428D01*
X95454819Y-83531428D02*
X95454819Y-83340952D01*
X95454819Y-83340952D02*
X95502438Y-83245714D01*
X95502438Y-83245714D02*
X95597676Y-83150476D01*
X95597676Y-83150476D02*
X95788152Y-83102857D01*
X95788152Y-83102857D02*
X96121485Y-83102857D01*
X96121485Y-83102857D02*
X96311961Y-83150476D01*
X96311961Y-83150476D02*
X96407200Y-83245714D01*
X96407200Y-83245714D02*
X96454819Y-83340952D01*
X96454819Y-83340952D02*
X96454819Y-83531428D01*
X95454819Y-82245714D02*
X95454819Y-82436190D01*
X95454819Y-82436190D02*
X95502438Y-82531428D01*
X95502438Y-82531428D02*
X95550057Y-82579047D01*
X95550057Y-82579047D02*
X95692914Y-82674285D01*
X95692914Y-82674285D02*
X95883390Y-82721904D01*
X95883390Y-82721904D02*
X96264342Y-82721904D01*
X96264342Y-82721904D02*
X96359580Y-82674285D01*
X96359580Y-82674285D02*
X96407200Y-82626666D01*
X96407200Y-82626666D02*
X96454819Y-82531428D01*
X96454819Y-82531428D02*
X96454819Y-82340952D01*
X96454819Y-82340952D02*
X96407200Y-82245714D01*
X96407200Y-82245714D02*
X96359580Y-82198095D01*
X96359580Y-82198095D02*
X96264342Y-82150476D01*
X96264342Y-82150476D02*
X96026247Y-82150476D01*
X96026247Y-82150476D02*
X95931009Y-82198095D01*
X95931009Y-82198095D02*
X95883390Y-82245714D01*
X95883390Y-82245714D02*
X95835771Y-82340952D01*
X95835771Y-82340952D02*
X95835771Y-82531428D01*
X95835771Y-82531428D02*
X95883390Y-82626666D01*
X95883390Y-82626666D02*
X95931009Y-82674285D01*
X95931009Y-82674285D02*
X96026247Y-82721904D01*
X75454819Y-38246666D02*
X74978628Y-38579999D01*
X75454819Y-38818094D02*
X74454819Y-38818094D01*
X74454819Y-38818094D02*
X74454819Y-38437142D01*
X74454819Y-38437142D02*
X74502438Y-38341904D01*
X74502438Y-38341904D02*
X74550057Y-38294285D01*
X74550057Y-38294285D02*
X74645295Y-38246666D01*
X74645295Y-38246666D02*
X74788152Y-38246666D01*
X74788152Y-38246666D02*
X74883390Y-38294285D01*
X74883390Y-38294285D02*
X74931009Y-38341904D01*
X74931009Y-38341904D02*
X74978628Y-38437142D01*
X74978628Y-38437142D02*
X74978628Y-38818094D01*
X75454819Y-37770475D02*
X75454819Y-37579999D01*
X75454819Y-37579999D02*
X75407200Y-37484761D01*
X75407200Y-37484761D02*
X75359580Y-37437142D01*
X75359580Y-37437142D02*
X75216723Y-37341904D01*
X75216723Y-37341904D02*
X75026247Y-37294285D01*
X75026247Y-37294285D02*
X74645295Y-37294285D01*
X74645295Y-37294285D02*
X74550057Y-37341904D01*
X74550057Y-37341904D02*
X74502438Y-37389523D01*
X74502438Y-37389523D02*
X74454819Y-37484761D01*
X74454819Y-37484761D02*
X74454819Y-37675237D01*
X74454819Y-37675237D02*
X74502438Y-37770475D01*
X74502438Y-37770475D02*
X74550057Y-37818094D01*
X74550057Y-37818094D02*
X74645295Y-37865713D01*
X74645295Y-37865713D02*
X74883390Y-37865713D01*
X74883390Y-37865713D02*
X74978628Y-37818094D01*
X74978628Y-37818094D02*
X75026247Y-37770475D01*
X75026247Y-37770475D02*
X75073866Y-37675237D01*
X75073866Y-37675237D02*
X75073866Y-37484761D01*
X75073866Y-37484761D02*
X75026247Y-37389523D01*
X75026247Y-37389523D02*
X74978628Y-37341904D01*
X74978628Y-37341904D02*
X74883390Y-37294285D01*
X115454819Y-71166666D02*
X114978628Y-71499999D01*
X115454819Y-71738094D02*
X114454819Y-71738094D01*
X114454819Y-71738094D02*
X114454819Y-71357142D01*
X114454819Y-71357142D02*
X114502438Y-71261904D01*
X114502438Y-71261904D02*
X114550057Y-71214285D01*
X114550057Y-71214285D02*
X114645295Y-71166666D01*
X114645295Y-71166666D02*
X114788152Y-71166666D01*
X114788152Y-71166666D02*
X114883390Y-71214285D01*
X114883390Y-71214285D02*
X114931009Y-71261904D01*
X114931009Y-71261904D02*
X114978628Y-71357142D01*
X114978628Y-71357142D02*
X114978628Y-71738094D01*
X114454819Y-70833332D02*
X114454819Y-70214285D01*
X114454819Y-70214285D02*
X114835771Y-70547618D01*
X114835771Y-70547618D02*
X114835771Y-70404761D01*
X114835771Y-70404761D02*
X114883390Y-70309523D01*
X114883390Y-70309523D02*
X114931009Y-70261904D01*
X114931009Y-70261904D02*
X115026247Y-70214285D01*
X115026247Y-70214285D02*
X115264342Y-70214285D01*
X115264342Y-70214285D02*
X115359580Y-70261904D01*
X115359580Y-70261904D02*
X115407200Y-70309523D01*
X115407200Y-70309523D02*
X115454819Y-70404761D01*
X115454819Y-70404761D02*
X115454819Y-70690475D01*
X115454819Y-70690475D02*
X115407200Y-70785713D01*
X115407200Y-70785713D02*
X115359580Y-70833332D01*
X105666666Y-80414819D02*
X105666666Y-81129104D01*
X105666666Y-81129104D02*
X105619047Y-81271961D01*
X105619047Y-81271961D02*
X105523809Y-81367200D01*
X105523809Y-81367200D02*
X105380952Y-81414819D01*
X105380952Y-81414819D02*
X105285714Y-81414819D01*
X106047619Y-80414819D02*
X106714285Y-80414819D01*
X106714285Y-80414819D02*
X106285714Y-81414819D01*
X58550057Y-83055238D02*
X58502438Y-83150476D01*
X58502438Y-83150476D02*
X58407200Y-83245714D01*
X58407200Y-83245714D02*
X58264342Y-83388571D01*
X58264342Y-83388571D02*
X58216723Y-83483809D01*
X58216723Y-83483809D02*
X58216723Y-83579047D01*
X58454819Y-83531428D02*
X58407200Y-83626666D01*
X58407200Y-83626666D02*
X58311961Y-83721904D01*
X58311961Y-83721904D02*
X58121485Y-83769523D01*
X58121485Y-83769523D02*
X57788152Y-83769523D01*
X57788152Y-83769523D02*
X57597676Y-83721904D01*
X57597676Y-83721904D02*
X57502438Y-83626666D01*
X57502438Y-83626666D02*
X57454819Y-83531428D01*
X57454819Y-83531428D02*
X57454819Y-83340952D01*
X57454819Y-83340952D02*
X57502438Y-83245714D01*
X57502438Y-83245714D02*
X57597676Y-83150476D01*
X57597676Y-83150476D02*
X57788152Y-83102857D01*
X57788152Y-83102857D02*
X58121485Y-83102857D01*
X58121485Y-83102857D02*
X58311961Y-83150476D01*
X58311961Y-83150476D02*
X58407200Y-83245714D01*
X58407200Y-83245714D02*
X58454819Y-83340952D01*
X58454819Y-83340952D02*
X58454819Y-83531428D01*
X57454819Y-82198095D02*
X57454819Y-82674285D01*
X57454819Y-82674285D02*
X57931009Y-82721904D01*
X57931009Y-82721904D02*
X57883390Y-82674285D01*
X57883390Y-82674285D02*
X57835771Y-82579047D01*
X57835771Y-82579047D02*
X57835771Y-82340952D01*
X57835771Y-82340952D02*
X57883390Y-82245714D01*
X57883390Y-82245714D02*
X57931009Y-82198095D01*
X57931009Y-82198095D02*
X58026247Y-82150476D01*
X58026247Y-82150476D02*
X58264342Y-82150476D01*
X58264342Y-82150476D02*
X58359580Y-82198095D01*
X58359580Y-82198095D02*
X58407200Y-82245714D01*
X58407200Y-82245714D02*
X58454819Y-82340952D01*
X58454819Y-82340952D02*
X58454819Y-82579047D01*
X58454819Y-82579047D02*
X58407200Y-82674285D01*
X58407200Y-82674285D02*
X58359580Y-82721904D01*
X153454819Y-93166666D02*
X152978628Y-93499999D01*
X153454819Y-93738094D02*
X152454819Y-93738094D01*
X152454819Y-93738094D02*
X152454819Y-93357142D01*
X152454819Y-93357142D02*
X152502438Y-93261904D01*
X152502438Y-93261904D02*
X152550057Y-93214285D01*
X152550057Y-93214285D02*
X152645295Y-93166666D01*
X152645295Y-93166666D02*
X152788152Y-93166666D01*
X152788152Y-93166666D02*
X152883390Y-93214285D01*
X152883390Y-93214285D02*
X152931009Y-93261904D01*
X152931009Y-93261904D02*
X152978628Y-93357142D01*
X152978628Y-93357142D02*
X152978628Y-93738094D01*
X152883390Y-92595237D02*
X152835771Y-92690475D01*
X152835771Y-92690475D02*
X152788152Y-92738094D01*
X152788152Y-92738094D02*
X152692914Y-92785713D01*
X152692914Y-92785713D02*
X152645295Y-92785713D01*
X152645295Y-92785713D02*
X152550057Y-92738094D01*
X152550057Y-92738094D02*
X152502438Y-92690475D01*
X152502438Y-92690475D02*
X152454819Y-92595237D01*
X152454819Y-92595237D02*
X152454819Y-92404761D01*
X152454819Y-92404761D02*
X152502438Y-92309523D01*
X152502438Y-92309523D02*
X152550057Y-92261904D01*
X152550057Y-92261904D02*
X152645295Y-92214285D01*
X152645295Y-92214285D02*
X152692914Y-92214285D01*
X152692914Y-92214285D02*
X152788152Y-92261904D01*
X152788152Y-92261904D02*
X152835771Y-92309523D01*
X152835771Y-92309523D02*
X152883390Y-92404761D01*
X152883390Y-92404761D02*
X152883390Y-92595237D01*
X152883390Y-92595237D02*
X152931009Y-92690475D01*
X152931009Y-92690475D02*
X152978628Y-92738094D01*
X152978628Y-92738094D02*
X153073866Y-92785713D01*
X153073866Y-92785713D02*
X153264342Y-92785713D01*
X153264342Y-92785713D02*
X153359580Y-92738094D01*
X153359580Y-92738094D02*
X153407200Y-92690475D01*
X153407200Y-92690475D02*
X153454819Y-92595237D01*
X153454819Y-92595237D02*
X153454819Y-92404761D01*
X153454819Y-92404761D02*
X153407200Y-92309523D01*
X153407200Y-92309523D02*
X153359580Y-92261904D01*
X153359580Y-92261904D02*
X153264342Y-92214285D01*
X153264342Y-92214285D02*
X153073866Y-92214285D01*
X153073866Y-92214285D02*
X152978628Y-92261904D01*
X152978628Y-92261904D02*
X152931009Y-92309523D01*
X152931009Y-92309523D02*
X152883390Y-92404761D01*
X67666666Y-80414819D02*
X67666666Y-81129104D01*
X67666666Y-81129104D02*
X67619047Y-81271961D01*
X67619047Y-81271961D02*
X67523809Y-81367200D01*
X67523809Y-81367200D02*
X67380952Y-81414819D01*
X67380952Y-81414819D02*
X67285714Y-81414819D01*
X68571428Y-80414819D02*
X68380952Y-80414819D01*
X68380952Y-80414819D02*
X68285714Y-80462438D01*
X68285714Y-80462438D02*
X68238095Y-80510057D01*
X68238095Y-80510057D02*
X68142857Y-80652914D01*
X68142857Y-80652914D02*
X68095238Y-80843390D01*
X68095238Y-80843390D02*
X68095238Y-81224342D01*
X68095238Y-81224342D02*
X68142857Y-81319580D01*
X68142857Y-81319580D02*
X68190476Y-81367200D01*
X68190476Y-81367200D02*
X68285714Y-81414819D01*
X68285714Y-81414819D02*
X68476190Y-81414819D01*
X68476190Y-81414819D02*
X68571428Y-81367200D01*
X68571428Y-81367200D02*
X68619047Y-81319580D01*
X68619047Y-81319580D02*
X68666666Y-81224342D01*
X68666666Y-81224342D02*
X68666666Y-80986247D01*
X68666666Y-80986247D02*
X68619047Y-80891009D01*
X68619047Y-80891009D02*
X68571428Y-80843390D01*
X68571428Y-80843390D02*
X68476190Y-80795771D01*
X68476190Y-80795771D02*
X68285714Y-80795771D01*
X68285714Y-80795771D02*
X68190476Y-80843390D01*
X68190476Y-80843390D02*
X68142857Y-80891009D01*
X68142857Y-80891009D02*
X68095238Y-80986247D01*
X134550057Y-61055238D02*
X134502438Y-61150476D01*
X134502438Y-61150476D02*
X134407200Y-61245714D01*
X134407200Y-61245714D02*
X134264342Y-61388571D01*
X134264342Y-61388571D02*
X134216723Y-61483809D01*
X134216723Y-61483809D02*
X134216723Y-61579047D01*
X134454819Y-61531428D02*
X134407200Y-61626666D01*
X134407200Y-61626666D02*
X134311961Y-61721904D01*
X134311961Y-61721904D02*
X134121485Y-61769523D01*
X134121485Y-61769523D02*
X133788152Y-61769523D01*
X133788152Y-61769523D02*
X133597676Y-61721904D01*
X133597676Y-61721904D02*
X133502438Y-61626666D01*
X133502438Y-61626666D02*
X133454819Y-61531428D01*
X133454819Y-61531428D02*
X133454819Y-61340952D01*
X133454819Y-61340952D02*
X133502438Y-61245714D01*
X133502438Y-61245714D02*
X133597676Y-61150476D01*
X133597676Y-61150476D02*
X133788152Y-61102857D01*
X133788152Y-61102857D02*
X134121485Y-61102857D01*
X134121485Y-61102857D02*
X134311961Y-61150476D01*
X134311961Y-61150476D02*
X134407200Y-61245714D01*
X134407200Y-61245714D02*
X134454819Y-61340952D01*
X134454819Y-61340952D02*
X134454819Y-61531428D01*
X133454819Y-60769523D02*
X133454819Y-60150476D01*
X133454819Y-60150476D02*
X133835771Y-60483809D01*
X133835771Y-60483809D02*
X133835771Y-60340952D01*
X133835771Y-60340952D02*
X133883390Y-60245714D01*
X133883390Y-60245714D02*
X133931009Y-60198095D01*
X133931009Y-60198095D02*
X134026247Y-60150476D01*
X134026247Y-60150476D02*
X134264342Y-60150476D01*
X134264342Y-60150476D02*
X134359580Y-60198095D01*
X134359580Y-60198095D02*
X134407200Y-60245714D01*
X134407200Y-60245714D02*
X134454819Y-60340952D01*
X134454819Y-60340952D02*
X134454819Y-60626666D01*
X134454819Y-60626666D02*
X134407200Y-60721904D01*
X134407200Y-60721904D02*
X134359580Y-60769523D01*
X154937142Y-82454819D02*
X154603809Y-81978628D01*
X154365714Y-82454819D02*
X154365714Y-81454819D01*
X154365714Y-81454819D02*
X154746666Y-81454819D01*
X154746666Y-81454819D02*
X154841904Y-81502438D01*
X154841904Y-81502438D02*
X154889523Y-81550057D01*
X154889523Y-81550057D02*
X154937142Y-81645295D01*
X154937142Y-81645295D02*
X154937142Y-81788152D01*
X154937142Y-81788152D02*
X154889523Y-81883390D01*
X154889523Y-81883390D02*
X154841904Y-81931009D01*
X154841904Y-81931009D02*
X154746666Y-81978628D01*
X154746666Y-81978628D02*
X154365714Y-81978628D01*
X155889523Y-82454819D02*
X155318095Y-82454819D01*
X155603809Y-82454819D02*
X155603809Y-81454819D01*
X155603809Y-81454819D02*
X155508571Y-81597676D01*
X155508571Y-81597676D02*
X155413333Y-81692914D01*
X155413333Y-81692914D02*
X155318095Y-81740533D01*
X156460952Y-81883390D02*
X156365714Y-81835771D01*
X156365714Y-81835771D02*
X156318095Y-81788152D01*
X156318095Y-81788152D02*
X156270476Y-81692914D01*
X156270476Y-81692914D02*
X156270476Y-81645295D01*
X156270476Y-81645295D02*
X156318095Y-81550057D01*
X156318095Y-81550057D02*
X156365714Y-81502438D01*
X156365714Y-81502438D02*
X156460952Y-81454819D01*
X156460952Y-81454819D02*
X156651428Y-81454819D01*
X156651428Y-81454819D02*
X156746666Y-81502438D01*
X156746666Y-81502438D02*
X156794285Y-81550057D01*
X156794285Y-81550057D02*
X156841904Y-81645295D01*
X156841904Y-81645295D02*
X156841904Y-81692914D01*
X156841904Y-81692914D02*
X156794285Y-81788152D01*
X156794285Y-81788152D02*
X156746666Y-81835771D01*
X156746666Y-81835771D02*
X156651428Y-81883390D01*
X156651428Y-81883390D02*
X156460952Y-81883390D01*
X156460952Y-81883390D02*
X156365714Y-81931009D01*
X156365714Y-81931009D02*
X156318095Y-81978628D01*
X156318095Y-81978628D02*
X156270476Y-82073866D01*
X156270476Y-82073866D02*
X156270476Y-82264342D01*
X156270476Y-82264342D02*
X156318095Y-82359580D01*
X156318095Y-82359580D02*
X156365714Y-82407200D01*
X156365714Y-82407200D02*
X156460952Y-82454819D01*
X156460952Y-82454819D02*
X156651428Y-82454819D01*
X156651428Y-82454819D02*
X156746666Y-82407200D01*
X156746666Y-82407200D02*
X156794285Y-82359580D01*
X156794285Y-82359580D02*
X156841904Y-82264342D01*
X156841904Y-82264342D02*
X156841904Y-82073866D01*
X156841904Y-82073866D02*
X156794285Y-81978628D01*
X156794285Y-81978628D02*
X156746666Y-81931009D01*
X156746666Y-81931009D02*
X156651428Y-81883390D01*
X116937142Y-82454819D02*
X116603809Y-81978628D01*
X116365714Y-82454819D02*
X116365714Y-81454819D01*
X116365714Y-81454819D02*
X116746666Y-81454819D01*
X116746666Y-81454819D02*
X116841904Y-81502438D01*
X116841904Y-81502438D02*
X116889523Y-81550057D01*
X116889523Y-81550057D02*
X116937142Y-81645295D01*
X116937142Y-81645295D02*
X116937142Y-81788152D01*
X116937142Y-81788152D02*
X116889523Y-81883390D01*
X116889523Y-81883390D02*
X116841904Y-81931009D01*
X116841904Y-81931009D02*
X116746666Y-81978628D01*
X116746666Y-81978628D02*
X116365714Y-81978628D01*
X117889523Y-82454819D02*
X117318095Y-82454819D01*
X117603809Y-82454819D02*
X117603809Y-81454819D01*
X117603809Y-81454819D02*
X117508571Y-81597676D01*
X117508571Y-81597676D02*
X117413333Y-81692914D01*
X117413333Y-81692914D02*
X117318095Y-81740533D01*
X118222857Y-81454819D02*
X118889523Y-81454819D01*
X118889523Y-81454819D02*
X118460952Y-82454819D01*
X143666666Y-80414819D02*
X143666666Y-81129104D01*
X143666666Y-81129104D02*
X143619047Y-81271961D01*
X143619047Y-81271961D02*
X143523809Y-81367200D01*
X143523809Y-81367200D02*
X143380952Y-81414819D01*
X143380952Y-81414819D02*
X143285714Y-81414819D01*
X144285714Y-80843390D02*
X144190476Y-80795771D01*
X144190476Y-80795771D02*
X144142857Y-80748152D01*
X144142857Y-80748152D02*
X144095238Y-80652914D01*
X144095238Y-80652914D02*
X144095238Y-80605295D01*
X144095238Y-80605295D02*
X144142857Y-80510057D01*
X144142857Y-80510057D02*
X144190476Y-80462438D01*
X144190476Y-80462438D02*
X144285714Y-80414819D01*
X144285714Y-80414819D02*
X144476190Y-80414819D01*
X144476190Y-80414819D02*
X144571428Y-80462438D01*
X144571428Y-80462438D02*
X144619047Y-80510057D01*
X144619047Y-80510057D02*
X144666666Y-80605295D01*
X144666666Y-80605295D02*
X144666666Y-80652914D01*
X144666666Y-80652914D02*
X144619047Y-80748152D01*
X144619047Y-80748152D02*
X144571428Y-80795771D01*
X144571428Y-80795771D02*
X144476190Y-80843390D01*
X144476190Y-80843390D02*
X144285714Y-80843390D01*
X144285714Y-80843390D02*
X144190476Y-80891009D01*
X144190476Y-80891009D02*
X144142857Y-80938628D01*
X144142857Y-80938628D02*
X144095238Y-81033866D01*
X144095238Y-81033866D02*
X144095238Y-81224342D01*
X144095238Y-81224342D02*
X144142857Y-81319580D01*
X144142857Y-81319580D02*
X144190476Y-81367200D01*
X144190476Y-81367200D02*
X144285714Y-81414819D01*
X144285714Y-81414819D02*
X144476190Y-81414819D01*
X144476190Y-81414819D02*
X144571428Y-81367200D01*
X144571428Y-81367200D02*
X144619047Y-81319580D01*
X144619047Y-81319580D02*
X144666666Y-81224342D01*
X144666666Y-81224342D02*
X144666666Y-81033866D01*
X144666666Y-81033866D02*
X144619047Y-80938628D01*
X144619047Y-80938628D02*
X144571428Y-80891009D01*
X144571428Y-80891009D02*
X144476190Y-80843390D01*
X29666666Y-80414819D02*
X29666666Y-81129104D01*
X29666666Y-81129104D02*
X29619047Y-81271961D01*
X29619047Y-81271961D02*
X29523809Y-81367200D01*
X29523809Y-81367200D02*
X29380952Y-81414819D01*
X29380952Y-81414819D02*
X29285714Y-81414819D01*
X30619047Y-80414819D02*
X30142857Y-80414819D01*
X30142857Y-80414819D02*
X30095238Y-80891009D01*
X30095238Y-80891009D02*
X30142857Y-80843390D01*
X30142857Y-80843390D02*
X30238095Y-80795771D01*
X30238095Y-80795771D02*
X30476190Y-80795771D01*
X30476190Y-80795771D02*
X30571428Y-80843390D01*
X30571428Y-80843390D02*
X30619047Y-80891009D01*
X30619047Y-80891009D02*
X30666666Y-80986247D01*
X30666666Y-80986247D02*
X30666666Y-81224342D01*
X30666666Y-81224342D02*
X30619047Y-81319580D01*
X30619047Y-81319580D02*
X30571428Y-81367200D01*
X30571428Y-81367200D02*
X30476190Y-81414819D01*
X30476190Y-81414819D02*
X30238095Y-81414819D01*
X30238095Y-81414819D02*
X30142857Y-81367200D01*
X30142857Y-81367200D02*
X30095238Y-81319580D01*
X40937142Y-82454819D02*
X40603809Y-81978628D01*
X40365714Y-82454819D02*
X40365714Y-81454819D01*
X40365714Y-81454819D02*
X40746666Y-81454819D01*
X40746666Y-81454819D02*
X40841904Y-81502438D01*
X40841904Y-81502438D02*
X40889523Y-81550057D01*
X40889523Y-81550057D02*
X40937142Y-81645295D01*
X40937142Y-81645295D02*
X40937142Y-81788152D01*
X40937142Y-81788152D02*
X40889523Y-81883390D01*
X40889523Y-81883390D02*
X40841904Y-81931009D01*
X40841904Y-81931009D02*
X40746666Y-81978628D01*
X40746666Y-81978628D02*
X40365714Y-81978628D01*
X41889523Y-82454819D02*
X41318095Y-82454819D01*
X41603809Y-82454819D02*
X41603809Y-81454819D01*
X41603809Y-81454819D02*
X41508571Y-81597676D01*
X41508571Y-81597676D02*
X41413333Y-81692914D01*
X41413333Y-81692914D02*
X41318095Y-81740533D01*
X42794285Y-81454819D02*
X42318095Y-81454819D01*
X42318095Y-81454819D02*
X42270476Y-81931009D01*
X42270476Y-81931009D02*
X42318095Y-81883390D01*
X42318095Y-81883390D02*
X42413333Y-81835771D01*
X42413333Y-81835771D02*
X42651428Y-81835771D01*
X42651428Y-81835771D02*
X42746666Y-81883390D01*
X42746666Y-81883390D02*
X42794285Y-81931009D01*
X42794285Y-81931009D02*
X42841904Y-82026247D01*
X42841904Y-82026247D02*
X42841904Y-82264342D01*
X42841904Y-82264342D02*
X42794285Y-82359580D01*
X42794285Y-82359580D02*
X42746666Y-82407200D01*
X42746666Y-82407200D02*
X42651428Y-82454819D01*
X42651428Y-82454819D02*
X42413333Y-82454819D01*
X42413333Y-82454819D02*
X42318095Y-82407200D01*
X42318095Y-82407200D02*
X42270476Y-82359580D01*
X168214285Y-27374819D02*
X168214285Y-28089104D01*
X168214285Y-28089104D02*
X168166666Y-28231961D01*
X168166666Y-28231961D02*
X168071428Y-28327200D01*
X168071428Y-28327200D02*
X167928571Y-28374819D01*
X167928571Y-28374819D02*
X167833333Y-28374819D01*
X169214285Y-28374819D02*
X168642857Y-28374819D01*
X168928571Y-28374819D02*
X168928571Y-27374819D01*
X168928571Y-27374819D02*
X168833333Y-27517676D01*
X168833333Y-27517676D02*
X168738095Y-27612914D01*
X168738095Y-27612914D02*
X168642857Y-27660533D01*
X169833333Y-27374819D02*
X169928571Y-27374819D01*
X169928571Y-27374819D02*
X170023809Y-27422438D01*
X170023809Y-27422438D02*
X170071428Y-27470057D01*
X170071428Y-27470057D02*
X170119047Y-27565295D01*
X170119047Y-27565295D02*
X170166666Y-27755771D01*
X170166666Y-27755771D02*
X170166666Y-27993866D01*
X170166666Y-27993866D02*
X170119047Y-28184342D01*
X170119047Y-28184342D02*
X170071428Y-28279580D01*
X170071428Y-28279580D02*
X170023809Y-28327200D01*
X170023809Y-28327200D02*
X169928571Y-28374819D01*
X169928571Y-28374819D02*
X169833333Y-28374819D01*
X169833333Y-28374819D02*
X169738095Y-28327200D01*
X169738095Y-28327200D02*
X169690476Y-28279580D01*
X169690476Y-28279580D02*
X169642857Y-28184342D01*
X169642857Y-28184342D02*
X169595238Y-27993866D01*
X169595238Y-27993866D02*
X169595238Y-27755771D01*
X169595238Y-27755771D02*
X169642857Y-27565295D01*
X169642857Y-27565295D02*
X169690476Y-27470057D01*
X169690476Y-27470057D02*
X169738095Y-27422438D01*
X169738095Y-27422438D02*
X169833333Y-27374819D01*
X171071428Y-27374819D02*
X170595238Y-27374819D01*
X170595238Y-27374819D02*
X170547619Y-27851009D01*
X170547619Y-27851009D02*
X170595238Y-27803390D01*
X170595238Y-27803390D02*
X170690476Y-27755771D01*
X170690476Y-27755771D02*
X170928571Y-27755771D01*
X170928571Y-27755771D02*
X171023809Y-27803390D01*
X171023809Y-27803390D02*
X171071428Y-27851009D01*
X171071428Y-27851009D02*
X171119047Y-27946247D01*
X171119047Y-27946247D02*
X171119047Y-28184342D01*
X171119047Y-28184342D02*
X171071428Y-28279580D01*
X171071428Y-28279580D02*
X171023809Y-28327200D01*
X171023809Y-28327200D02*
X170928571Y-28374819D01*
X170928571Y-28374819D02*
X170690476Y-28374819D01*
X170690476Y-28374819D02*
X170595238Y-28327200D01*
X170595238Y-28327200D02*
X170547619Y-28279580D01*
X37674819Y-46285714D02*
X38389104Y-46285714D01*
X38389104Y-46285714D02*
X38531961Y-46333333D01*
X38531961Y-46333333D02*
X38627200Y-46428571D01*
X38627200Y-46428571D02*
X38674819Y-46571428D01*
X38674819Y-46571428D02*
X38674819Y-46666666D01*
X38674819Y-45285714D02*
X38674819Y-45857142D01*
X38674819Y-45571428D02*
X37674819Y-45571428D01*
X37674819Y-45571428D02*
X37817676Y-45666666D01*
X37817676Y-45666666D02*
X37912914Y-45761904D01*
X37912914Y-45761904D02*
X37960533Y-45857142D01*
X37674819Y-44666666D02*
X37674819Y-44571428D01*
X37674819Y-44571428D02*
X37722438Y-44476190D01*
X37722438Y-44476190D02*
X37770057Y-44428571D01*
X37770057Y-44428571D02*
X37865295Y-44380952D01*
X37865295Y-44380952D02*
X38055771Y-44333333D01*
X38055771Y-44333333D02*
X38293866Y-44333333D01*
X38293866Y-44333333D02*
X38484342Y-44380952D01*
X38484342Y-44380952D02*
X38579580Y-44428571D01*
X38579580Y-44428571D02*
X38627200Y-44476190D01*
X38627200Y-44476190D02*
X38674819Y-44571428D01*
X38674819Y-44571428D02*
X38674819Y-44666666D01*
X38674819Y-44666666D02*
X38627200Y-44761904D01*
X38627200Y-44761904D02*
X38579580Y-44809523D01*
X38579580Y-44809523D02*
X38484342Y-44857142D01*
X38484342Y-44857142D02*
X38293866Y-44904761D01*
X38293866Y-44904761D02*
X38055771Y-44904761D01*
X38055771Y-44904761D02*
X37865295Y-44857142D01*
X37865295Y-44857142D02*
X37770057Y-44809523D01*
X37770057Y-44809523D02*
X37722438Y-44761904D01*
X37722438Y-44761904D02*
X37674819Y-44666666D01*
X37674819Y-43999999D02*
X37674819Y-43380952D01*
X37674819Y-43380952D02*
X38055771Y-43714285D01*
X38055771Y-43714285D02*
X38055771Y-43571428D01*
X38055771Y-43571428D02*
X38103390Y-43476190D01*
X38103390Y-43476190D02*
X38151009Y-43428571D01*
X38151009Y-43428571D02*
X38246247Y-43380952D01*
X38246247Y-43380952D02*
X38484342Y-43380952D01*
X38484342Y-43380952D02*
X38579580Y-43428571D01*
X38579580Y-43428571D02*
X38627200Y-43476190D01*
X38627200Y-43476190D02*
X38674819Y-43571428D01*
X38674819Y-43571428D02*
X38674819Y-43857142D01*
X38674819Y-43857142D02*
X38627200Y-43952380D01*
X38627200Y-43952380D02*
X38579580Y-43999999D01*
X77454819Y-93166666D02*
X76978628Y-93499999D01*
X77454819Y-93738094D02*
X76454819Y-93738094D01*
X76454819Y-93738094D02*
X76454819Y-93357142D01*
X76454819Y-93357142D02*
X76502438Y-93261904D01*
X76502438Y-93261904D02*
X76550057Y-93214285D01*
X76550057Y-93214285D02*
X76645295Y-93166666D01*
X76645295Y-93166666D02*
X76788152Y-93166666D01*
X76788152Y-93166666D02*
X76883390Y-93214285D01*
X76883390Y-93214285D02*
X76931009Y-93261904D01*
X76931009Y-93261904D02*
X76978628Y-93357142D01*
X76978628Y-93357142D02*
X76978628Y-93738094D01*
X76454819Y-92309523D02*
X76454819Y-92499999D01*
X76454819Y-92499999D02*
X76502438Y-92595237D01*
X76502438Y-92595237D02*
X76550057Y-92642856D01*
X76550057Y-92642856D02*
X76692914Y-92738094D01*
X76692914Y-92738094D02*
X76883390Y-92785713D01*
X76883390Y-92785713D02*
X77264342Y-92785713D01*
X77264342Y-92785713D02*
X77359580Y-92738094D01*
X77359580Y-92738094D02*
X77407200Y-92690475D01*
X77407200Y-92690475D02*
X77454819Y-92595237D01*
X77454819Y-92595237D02*
X77454819Y-92404761D01*
X77454819Y-92404761D02*
X77407200Y-92309523D01*
X77407200Y-92309523D02*
X77359580Y-92261904D01*
X77359580Y-92261904D02*
X77264342Y-92214285D01*
X77264342Y-92214285D02*
X77026247Y-92214285D01*
X77026247Y-92214285D02*
X76931009Y-92261904D01*
X76931009Y-92261904D02*
X76883390Y-92309523D01*
X76883390Y-92309523D02*
X76835771Y-92404761D01*
X76835771Y-92404761D02*
X76835771Y-92595237D01*
X76835771Y-92595237D02*
X76883390Y-92690475D01*
X76883390Y-92690475D02*
X76931009Y-92738094D01*
X76931009Y-92738094D02*
X77026247Y-92785713D01*
X154937142Y-60454819D02*
X154603809Y-59978628D01*
X154365714Y-60454819D02*
X154365714Y-59454819D01*
X154365714Y-59454819D02*
X154746666Y-59454819D01*
X154746666Y-59454819D02*
X154841904Y-59502438D01*
X154841904Y-59502438D02*
X154889523Y-59550057D01*
X154889523Y-59550057D02*
X154937142Y-59645295D01*
X154937142Y-59645295D02*
X154937142Y-59788152D01*
X154937142Y-59788152D02*
X154889523Y-59883390D01*
X154889523Y-59883390D02*
X154841904Y-59931009D01*
X154841904Y-59931009D02*
X154746666Y-59978628D01*
X154746666Y-59978628D02*
X154365714Y-59978628D01*
X155889523Y-60454819D02*
X155318095Y-60454819D01*
X155603809Y-60454819D02*
X155603809Y-59454819D01*
X155603809Y-59454819D02*
X155508571Y-59597676D01*
X155508571Y-59597676D02*
X155413333Y-59692914D01*
X155413333Y-59692914D02*
X155318095Y-59740533D01*
X156746666Y-59788152D02*
X156746666Y-60454819D01*
X156508571Y-59407200D02*
X156270476Y-60121485D01*
X156270476Y-60121485D02*
X156889523Y-60121485D01*
M02*
